<svg width="101" height="126" viewBox="0 0 101 126" fill="none" xmlns="http://www.w3.org/2000/svg">
<path d="M66.3871 1.62409L67.7597 7.99715L61.0055 16.1598L57.9837 24.3215L54.235 34.4468L48.6083 32.3635L49.0106 24.1107L49.0933 22.4129L54.8222 6.93939L66.3871 1.62409Z" fill="#048B28"/>
<path d="M57.9837 24.3215L54.235 34.4468L48.6083 32.3635L49.0106 24.1107L44.7695 24.0111L29.4619 26.4745L24.2257 23.3363L7.86803 30.0761L2.48639 44.6119L1.15122 61.179L4.81644 70.0003L4.64456 84.8654L5.58408 99.6088L11.7853 113.101L22.6396 119.786L32.4864 123.431L43.6701 124.906L53.4114 117.316L61.8515 120.441L70.7605 123.739L80.1546 117.087L87.1344 106.875L88.8346 93.6423L90.5809 81.4929L98.1078 67.2182L97.8959 63.4075L98.0458 61.3304L99.0575 47.3094L97.7708 33.5038L88.7187 26.4202L79.9527 26.907L67.7615 22.3933L61.6837 24.4085L57.9837 24.3215Z" fill="#F88E14"/>
<path d="M80.1546 117.087L88.1258 120.038L91.077 112.067L95.417 100.345L99.9307 88.1534L98.592 75.9281L98.1078 67.2182L90.5809 81.4929L88.8346 93.6423L87.1344 106.875L80.1546 117.087Z" fill="#F88E14"/>
<path d="M38.1888 31.7049L29.4619 26.4745M22.6396 119.786L11.7853 113.101L5.58408 99.6088L4.64456 84.8654L4.81644 70.0003L1.15122 61.179L2.48639 44.6119L7.86803 30.0761L24.2257 23.3363L29.4619 26.4745M22.6396 119.786L32.4864 123.431L43.6701 124.906L53.4114 117.316M22.6396 119.786L18.7131 104.47L16.0538 84.2909L13.3604 69.9645L10.3717 54.9957L18.1497 39.7476L30.5826 32.0878L45.4043 32.377M53.4114 117.316L61.8515 120.441L70.7605 123.739L80.1546 117.087M53.4114 117.316L46.863 104.761L50.872 83.8526L51.2694 66.9384M80.1546 117.087L88.1258 120.038M80.1546 117.087L87.1344 106.875L88.8346 93.6423L90.5809 81.4929L98.1078 67.2182M88.1258 120.038C88.8781 118.006 90.5215 113.568 91.077 112.067M88.1258 120.038L91.077 112.067M91.077 112.067C91.6325 110.567 94.2018 103.627 95.417 100.345M91.077 112.067L95.417 100.345M95.417 100.345L99.9307 88.1534L98.592 75.9281L98.1078 67.2182M29.4619 26.4745L44.7695 24.0111L49.0106 24.1107M50.3996 54.8867L52.1518 40.0735L58.7325 32.3797L67.3802 29.1834L79.2583 28.7825L83.0095 30.1713L89.7995 30.5526L97.0764 35.3794L98.0458 61.3304M98.0458 61.3304L97.8959 63.4075L98.1078 67.2182M98.0458 61.3304L99.0575 47.3094L97.7708 33.5038L88.7187 26.4202L79.9527 26.907L67.7615 22.3933L61.6837 24.4085L57.9837 24.3215M57.9837 24.3215L54.235 34.4468L48.6083 32.3635L49.0106 24.1107M57.9837 24.3215L49.0106 24.1107M57.9837 24.3215L61.0055 16.1598L67.7597 7.99715L66.3871 1.62409L54.8222 6.93939L49.0933 22.4129L49.0106 24.1107" stroke="white"/>
</svg>
