<svg width="287" height="309" viewBox="0 0 287 309" fill="none" xmlns="http://www.w3.org/2000/svg">
<path d="M132.447 1.18311L153.925 7.44751L168.244 22.6611L175.403 44.139L171.824 70.9865L175.403 91.5695L187.037 115.732L195.986 137.21V156.898V175.692L192.407 209.698L171.824 241.915L153.925 258.024L116.339 263.393H86.8068L59.0644 258.024L39.3763 241.915L13.4237 215.963L0 190.01L0 170.322L0 156.898L9.84407 126.471L34.0068 104.993L74.278 77.2509L92.1763 51.2984C95.7559 42.9458 103.452 25.5248 105.6 22.6611C107.748 19.7973 124.393 7.14921 132.447 1.18311Z" fill="#048B28"/>
<path d="M64.4339 72.7762L78.7525 60.2474L86.8068 36.9796L110.075 6.55249L130.658 0.288086L156.61 12.8169L162.875 36.9796L156.61 67.4067V106.783L167.349 134.525V156.898V173.902L162.875 206.119L126.183 235.651L105.6 239.23H78.7525L35.7966 222.227L14.3186 197.169L0.894897 166.742L0.894897 139L19.6881 106.783L47.4305 84.4101L64.4339 72.7762Z" fill="white"/>
<path d="M73.2772 108.804L80.5135 102.422L84.584 90.5707L96.343 75.0722L106.745 71.8813L119.861 78.2631L123.027 90.5707L119.861 106.069V126.126L125.288 140.257V151.653V160.314L123.027 176.724L104.484 191.766L94.0816 193.59H80.5135L58.8046 184.929L47.9502 172.165L41.1661 156.667V142.536L50.6638 126.126L64.6841 114.73L73.2772 108.804Z" fill="white" stroke="#048B28"/>
<path d="M100.65 92.1086L67.7331 96.1528L49.4241 110.31L34.4806 133.728L36.9126 153.523L50.7674 175.636L73.4218 184.76L82.0086 188.17L88.1525 177.74L93.9361 164.378L100.866 145.666L103.049 129.769L106.48 103.3L100.65 92.1086Z" fill="#F88E14"/>
<path d="M114.549 225.807L105.6 213.278L110.075 199.854L121.709 190.905L136.922 183.746L166.454 176.586H187.037L200.461 173.902L239.837 180.166L259.526 183.746L277.424 193.59L286.373 206.119L282.793 225.807V236.546V257.129L273.844 275.922L264.895 286.661L244.312 299.19L231.783 302.769L214.78 305.454L194.197 308.139L158.4 302.769L139.607 293.82L121.709 275.922L110.075 257.129L111.865 238.336L114.549 225.807Z" fill="white"/>
<path d="M282.793 225.807L286.373 206.119L277.424 193.59L259.526 183.746L239.837 180.166L200.461 173.902L187.037 176.586H166.454L136.922 183.746L121.709 190.905L110.075 199.854L105.6 213.278L114.549 225.807L111.865 238.336L110.075 257.129L121.709 275.922L139.607 293.82L158.4 302.769L194.197 308.139L214.78 305.454L231.783 302.769L244.312 299.19L264.895 286.661L273.844 275.922L282.793 257.129V236.546V225.807ZM282.793 225.807L264.895 231.176L254.156 241.02H224.624L204.041 249.074L178.983 241.02" stroke="#048B28"/>
<path d="M192.407 129.156L208.515 122.892L224.624 120.207L241.627 135.421H253.261H272.949L274.739 141.685L272.949 154.214L269.37 169.427L253.261 187.326L247.892 197.17L229.993 202.539L218.36 198.96L202.251 200.749L196.882 190.905L202.251 176.587L199.566 161.373C200.461 158.39 202.251 151.887 202.251 149.739C202.251 147.591 195.688 135.122 192.407 129.156Z" fill="#F88E14" stroke="white"/>
<path d="M180.773 181.956H199.566L196.882 191.8L200.461 196.275L196.882 204.329L173.614 194.485L180.773 181.956Z" fill="#048B28" stroke="white"/>
<path d="M180.773 181.956H161.98L152.136 186.431H139.607L125.288 198.065L129.763 208.804L141.397 217.753C146.468 219.841 157.684 224.017 161.98 224.017C166.275 224.017 182.265 225.807 189.722 226.702H224.624C226.772 226.702 240.434 224.912 246.997 224.017L266.685 217.753L275.634 208.804L273.844 199.854L266.685 191.8L254.156 186.431L243.417 191.8L231.783 198.065L227.309 190.01H214.78C212.692 190.905 207.979 193.232 205.831 195.38C203.683 197.528 194.197 196.275 189.722 195.38L180.773 190.01V181.956Z" fill="#048B28"/>
<path d="M189.722 226.702C182.265 225.807 166.275 224.017 161.98 224.017C157.684 224.017 146.468 219.841 141.397 217.753L129.763 208.804L125.288 198.065L139.607 186.431H152.136L161.98 181.956H180.773V190.01L189.722 195.38C194.197 196.275 203.683 197.528 205.831 195.38C207.979 193.232 212.692 190.905 214.78 190.01H227.309L231.783 198.065L243.417 191.8L254.156 186.431L266.685 191.8L273.844 199.854L275.634 208.804L266.685 217.753L246.997 224.017C240.434 224.912 226.772 226.702 224.624 226.702M189.722 226.702C200.461 226.702 222.476 226.702 224.624 226.702M189.722 226.702H224.624" stroke="white"/>
<path d="M142.292 206.119L152.136 198.959L166.455 209.698L173.614 203.434L188.827 206.119L195.092 216.858L199.566 207.908L214.78 211.488L221.939 206.119" stroke="white"/>
</svg>
