<svg width="34" height="61" viewBox="0 0 34 61" fill="none" xmlns="http://www.w3.org/2000/svg">
<path d="M13.3364 9.39697L14.4112 8.63064L22.2955 13.694L21.2859 14.4139L14.6518 10.1049L16.5634 17.7811L15.5375 18.5126L13.3364 9.39697Z" fill="white"/>
<path d="M12.2521 53.364L15.1495 48.9979L16.1827 49.6835L13.2853 54.0496L12.2521 53.364Z" fill="white"/>
<path d="M18.4483 45.7037L20.4338 40.8545L21.5813 41.3243L19.5958 46.1736L18.4483 45.7037Z" fill="white"/>
<path d="M22.0134 37.6802L22.5881 32.4718L23.8206 32.6078L23.2459 37.8162L22.0134 37.6802Z" fill="white"/>
<path d="M22.13 27.5406L20.9892 22.4263L22.1994 22.1563L23.3403 27.2706L22.13 27.5406Z" fill="white"/>
<path d="M18.1471 13.8681L21.5673 17.838L20.6278 18.6474L17.2077 14.6775L18.1471 13.8681Z" fill="white"/>
</svg>
