<svg width="1086" height="613" viewBox="0 0 1086 613" fill="none" xmlns="http://www.w3.org/2000/svg">
<path d="M485.793 138.654L470.929 180.649L634.766 178.704L621.683 154.963L608.397 114.156L607.961 77.4633L564.961 49.8102L520.761 64.8434L496.268 86.4702L485.793 138.654Z" fill="#F88E14"/>
<path d="M332.071 201.927L379.624 181.733L479.29 166.041L631.181 164.238L704.567 163.367L803.002 187.802L816.126 214.956L791.684 240.849L683.312 242.136L569.892 249.456L480.293 250.52L324.989 252.364L289.628 221.206L332.071 201.927Z" fill="#F88E14"/>
<circle cx="363.13" cy="209.232" r="9.38717" transform="rotate(-0.680153 363.13 209.232)" fill="#CD0D26"/>
<circle cx="392.144" cy="208.888" r="9.38717" transform="rotate(-0.680153 392.144 208.888)" fill="#CD0D26"/>
<circle cx="421.156" cy="208.543" r="9.38717" transform="rotate(-0.680153 421.156 208.543)" fill="#CD0D26"/>
<circle cx="450.169" cy="208.199" r="9.38717" transform="rotate(-0.680153 450.169 208.199)" fill="#CD0D26"/>
<circle cx="479.182" cy="207.854" r="9.38717" transform="rotate(-0.680153 479.182 207.854)" fill="#CD0D26"/>
<circle cx="508.195" cy="207.51" r="9.38717" transform="rotate(-0.680153 508.195 207.51)" fill="#CD0D26"/>
<circle cx="537.207" cy="207.166" r="9.38717" transform="rotate(-0.680153 537.207 207.166)" fill="#CD0D26"/>
<circle cx="566.221" cy="206.821" r="9.38717" transform="rotate(-0.680153 566.221 206.821)" fill="#CD0D26"/>
<circle cx="595.233" cy="206.477" r="9.38717" transform="rotate(-0.680153 595.233 206.477)" fill="#CD0D26"/>
<circle cx="624.246" cy="206.133" r="9.38717" transform="rotate(-0.680153 624.246 206.133)" fill="#CD0D26"/>
<circle cx="653.259" cy="205.788" r="9.38717" transform="rotate(-0.680153 653.259 205.788)" fill="#CD0D26"/>
<circle cx="682.272" cy="205.444" r="9.38717" transform="rotate(-0.680153 682.272 205.444)" fill="#CD0D26"/>
<circle cx="711.284" cy="205.099" r="9.38717" transform="rotate(-0.680153 711.284 205.099)" fill="#CD0D26"/>
<circle cx="740.298" cy="204.755" r="9.38717" transform="rotate(-0.680153 740.298 204.755)" fill="#CD0D26"/>
<path d="M17.1779 120.591L14.7372 79.4311L43.5392 103.588L72.719 150.95L17.1779 120.591Z" fill="#F88E14"/>
<path d="M1030.78 549.748L1067.65 532.218L1032.88 518.993L977.805 516.507L1030.78 549.748Z" fill="#F88E14"/>
<path d="M94.5153 46.5441L130.925 5.50661L135.239 55.3041L118.089 127.3L94.5153 46.5441Z" fill="#048B28"/>
<path d="M1058.21 446.437L1076.44 394.707L1030.74 415.018L976.041 464.859L1058.21 446.437Z" fill="#CD0D26"/>
<path d="M37.2756 219.596L1.24651 213.671L27.7841 193.711L74.4374 177.947L37.2756 219.596Z" fill="#CD0D26"/>
<path d="M934.53 580.262L957.24 608.941L961.81 576.051L952.924 527.578L934.53 580.262Z" fill="#048B28"/>
</svg>
