<svg width="193" height="296" viewBox="0 0 193 296" fill="none" xmlns="http://www.w3.org/2000/svg">
<rect x="0.904694" y="0.820801" width="192" height="295" fill="#048B28"/>
<rect x="6.90469" y="0.820801" width="12" height="295" fill="white" fill-opacity="0.5"/>
<rect x="102.905" y="0.820801" width="12" height="295" fill="white" fill-opacity="0.5"/>
<rect x="30.9047" y="0.820801" width="12" height="295" fill="white" fill-opacity="0.5"/>
<rect x="126.905" y="0.820801" width="12" height="295" fill="white" fill-opacity="0.5"/>
<rect x="54.9047" y="0.820801" width="12" height="295" fill="white" fill-opacity="0.5"/>
<rect x="150.905" y="0.820801" width="12" height="295" fill="white" fill-opacity="0.5"/>
<rect x="174.905" y="0.820801" width="12" height="295" fill="white" fill-opacity="0.5"/>
<rect x="78.9047" y="0.820801" width="12" height="295" fill="white" fill-opacity="0.5"/>
<rect x="0.904694" y="0.820801" width="192" height="32" fill="#048B28"/>
<path fill-rule="evenodd" clip-rule="evenodd" d="M17.9047 32.8208C20.1255 57.3396 54.819 76.8208 97.2918 76.8208C139.764 76.8208 174.458 57.3396 176.679 32.8208L17.9047 32.8208Z" fill="#82C594"/>
<path d="M86.4047 71.3208L98.4047 74.8208L106.405 83.3208L110.405 95.3208L108.405 110.321L110.405 121.821L116.905 135.321L121.905 147.321V158.321V168.821L119.905 187.821L108.405 205.821L98.4047 214.821L77.4047 217.821H60.9047L45.4047 214.821L34.4047 205.821L19.9047 191.321L12.4047 176.821L12.4047 165.821V158.321L17.9047 141.321L31.4047 129.321L53.9047 113.821L63.9047 99.3208C65.9047 94.6541 70.2047 84.9208 71.4047 83.3208C72.6047 81.7208 81.9047 74.6541 86.4047 71.3208Z" fill="#048B28"/>
<path d="M48.4047 111.321L56.4047 104.321L60.9047 91.3208L73.9047 74.3208L85.4047 70.8208L99.9047 77.8208L103.405 91.3208L99.9047 108.321V130.321L105.905 145.821V158.321V167.821L103.405 185.821L82.9047 202.321L71.4047 204.321H56.4047L32.4047 194.821L20.4047 180.821L12.9047 163.821V148.321L23.4047 130.321L38.9047 117.821L48.4047 111.321Z" fill="white"/>
<path d="M53.3456 131.45L57.3886 127.884L59.6628 121.263L66.2327 112.604L72.0445 110.821L79.3724 114.386L81.1413 121.263L79.3724 129.922V141.128L82.4047 149.023V155.39V160.229L81.1413 169.398L70.781 177.802L64.9692 178.821H57.3886L45.2595 173.982L39.195 166.851L35.4047 158.192V150.296L40.7111 141.128L48.5445 134.761L53.3456 131.45Z" fill="white" stroke="#048B28"/>
<path d="M68.6391 122.122L50.248 124.382L40.0185 132.291L31.6694 145.375L33.0282 156.435L40.7691 168.789L53.4263 173.887L58.2239 175.793L61.6566 169.965L64.8879 162.5L68.7595 152.045L69.9797 143.163L71.8965 128.375L68.6391 122.122Z" fill="#F88E14"/>
<path d="M76.4047 196.821L71.4047 189.821L73.9047 182.321L80.4047 177.321L88.9047 173.321L105.405 169.321H116.905L124.405 167.821L146.405 171.321L157.405 173.321L167.405 178.821L172.405 185.821L170.405 196.821V202.821V214.321L165.405 224.821L160.405 230.821L148.905 237.821L141.905 239.821L132.405 241.321L120.905 242.821L100.905 239.821L90.4047 234.821L80.4047 224.821L73.9047 214.321L74.9047 203.821L76.4047 196.821Z" fill="white"/>
<path d="M170.405 196.821L172.405 185.821L167.405 178.821L157.405 173.321L146.405 171.321L124.405 167.821L116.905 169.321H105.405L88.9047 173.321L80.4047 177.321L73.9047 182.321L71.4047 189.821L76.4047 196.821L74.9047 203.821L73.9047 214.321L80.4047 224.821L90.4047 234.821L100.905 239.821L120.905 242.821L132.405 241.321L141.905 239.821L148.905 237.821L160.405 230.821L165.405 224.821L170.405 214.321V202.821V196.821ZM170.405 196.821L160.405 199.821L154.405 205.321H137.905L126.405 209.821L112.405 205.321" stroke="#048B28"/>
<path d="M119.905 142.821L128.905 139.321L137.905 137.821L147.405 146.321H153.905H164.905L165.905 149.821L164.905 156.821L162.905 165.321L153.905 175.321L150.905 180.821L140.905 183.821L134.405 181.821L125.405 182.821L122.405 177.321L125.405 169.321L123.905 160.821C124.405 159.154 125.405 155.521 125.405 154.321C125.405 153.121 121.738 146.154 119.905 142.821Z" fill="#F88E14" stroke="white"/>
<path d="M113.405 172.321H123.905L122.405 177.821L124.405 180.321L122.405 184.821L109.405 179.321L113.405 172.321Z" fill="#048B28" stroke="white"/>
<path d="M113.405 172.321H102.905L97.4047 174.821H90.4047L82.4047 181.321L84.9047 187.321L91.4047 192.321C94.238 193.487 100.505 195.821 102.905 195.821C105.305 195.821 114.238 196.821 118.405 197.321H137.905C139.105 197.321 146.738 196.321 150.405 195.821L161.405 192.321L166.405 187.321L165.405 182.321L161.405 177.821L154.405 174.821L148.405 177.821L141.905 181.321L139.405 176.821H132.405C131.238 177.321 128.605 178.621 127.405 179.821C126.205 181.021 120.905 180.321 118.405 179.821L113.405 176.821V172.321Z" fill="#048B28"/>
<path d="M118.405 197.321C114.238 196.821 105.305 195.821 102.905 195.821C100.505 195.821 94.238 193.487 91.4047 192.321L84.9047 187.321L82.4047 181.321L90.4047 174.821H97.4047L102.905 172.321H113.405V176.821L118.405 179.821C120.905 180.321 126.205 181.021 127.405 179.821C128.605 178.621 131.238 177.321 132.405 176.821H139.405L141.905 181.321L148.405 177.821L154.405 174.821L161.405 177.821L165.405 182.321L166.405 187.321L161.405 192.321L150.405 195.821C146.738 196.321 139.105 197.321 137.905 197.321M118.405 197.321C124.405 197.321 136.705 197.321 137.905 197.321M118.405 197.321H137.905" stroke="white"/>
<path d="M91.9047 185.821L97.4047 181.821L105.405 187.821L109.405 184.321L117.905 185.821L121.405 191.821L123.905 186.821L132.405 188.821L136.405 185.821" stroke="white"/>
<path d="M34.4047 236.821L37.9047 229.821L39.9047 236.821L43.9047 231.321L47.4047 238.321L54.4047 235.321V242.321H65.4047L59.9047 248.821L74.9047 255.821L62.9047 258.821L66.9047 266.321L58.9047 267.821L62.9047 273.321H55.9047L54.4047 280.821L47.4047 277.821L43.9047 283.321L39.9047 275.821L32.9047 280.821V275.821L24.4047 280.821L27.9047 270.321L11.9047 271.821L17.4047 267.821L11.9047 263.321L17.4047 260.821L14.9047 248.821H21.4047V242.321H24.4047L22.9047 234.321L27.9047 236.821L30.9047 234.321L34.4047 236.821Z" fill="white" stroke="#048B28"/>
<path d="M138.405 74.3208L136.905 83.8208L130.905 82.3208L133.905 89.3208L126.405 88.8208L129.905 95.8208L124.405 98.3208L130.905 101.821L124.405 107.321L128.905 110.321L127.405 116.321H132.905L130.905 122.321H138.405L140.905 129.821L145.905 125.321L149.905 129.821L153.905 125.321L158.405 131.321L160.905 125.321L166.405 129.821L168.405 122.321H172.905V116.321L179.905 114.821L175.905 110.321L183.905 105.821L177.405 101.821L181.405 96.8208L175.905 93.8208L181.405 88.3208H172.905V82.3208H168.405V74.3208L159.405 78.8208L158.405 72.8208L151.905 77.8208L147.905 71.3208L144.905 80.3208L138.405 74.3208Z" fill="white" stroke="#048B28"/>
<path d="M34.8567 23.8908C34.1474 23.8908 33.508 23.7321 32.9387 23.4148C32.3694 23.0881 31.9214 22.6401 31.5947 22.0708C31.268 21.5015 31.1047 20.8575 31.1047 20.1388C31.1047 19.4201 31.268 18.7761 31.5947 18.2068C31.9214 17.6375 32.3694 17.1941 32.9387 16.8768C33.508 16.5595 34.1474 16.4008 34.8567 16.4008C35.566 16.4008 36.2054 16.5595 36.7747 16.8768C37.344 17.1941 37.7874 17.6375 38.1047 18.2068C38.4314 18.7761 38.5947 19.4201 38.5947 20.1388C38.5947 20.8575 38.4314 21.5015 38.1047 22.0708C37.7874 22.6401 37.344 23.0881 36.7747 23.4148C36.2054 23.7321 35.566 23.8908 34.8567 23.8908ZM34.8567 23.0088C35.3794 23.0088 35.846 22.8921 36.2567 22.6588C36.6767 22.4161 37.0034 22.0755 37.2367 21.6368C37.47 21.1981 37.5867 20.6988 37.5867 20.1388C37.5867 19.5788 37.47 19.0795 37.2367 18.6408C37.0034 18.2021 36.6767 17.8661 36.2567 17.6328C35.846 17.3901 35.3794 17.2688 34.8567 17.2688C34.334 17.2688 33.8627 17.3901 33.4427 17.6328C33.032 17.8661 32.7054 18.2021 32.4627 18.6408C32.2294 19.0795 32.1127 19.5788 32.1127 20.1388C32.1127 20.6988 32.2294 21.1981 32.4627 21.6368C32.7054 22.0755 33.032 22.4161 33.4427 22.6588C33.8627 22.8921 34.334 23.0088 34.8567 23.0088ZM45.6256 17.3388H42.8396V23.8208H41.8456V17.3388H39.0596V16.4568H45.6256V17.3388ZM52.6317 16.4568V23.8208H51.6377V17.3388H48.1097L48.0117 19.1588C47.937 20.6895 47.7597 21.8655 47.4797 22.6868C47.1997 23.5081 46.7003 23.9188 45.9817 23.9188C45.7857 23.9188 45.5477 23.8815 45.2677 23.8068L45.3377 22.9528C45.5057 22.9901 45.6223 23.0088 45.6877 23.0088C46.0703 23.0088 46.3597 22.8315 46.5557 22.4768C46.7517 22.1221 46.8823 21.6835 46.9477 21.1608C47.013 20.6381 47.069 19.9475 47.1157 19.0888L47.2417 16.4568H52.6317ZM55.4574 16.4568H56.4514V22.3088L61.3654 16.4568H62.2474V23.8208H61.2534V17.9688L56.3534 23.8208H55.4574V16.4568ZM70.654 16.4568V23.8208H69.66V20.7548C68.8107 21.1281 67.9754 21.3148 67.154 21.3148C66.2674 21.3148 65.5767 21.1141 65.082 20.7128C64.5874 20.3021 64.34 19.6908 64.34 18.8788V16.4568H65.334V18.8228C65.334 19.3735 65.5114 19.7935 65.866 20.0828C66.2207 20.3628 66.7107 20.5028 67.336 20.5028C68.0267 20.5028 68.8014 20.3208 69.66 19.9568V16.4568H70.654ZM73.4769 16.4568H74.4709V19.7188H79.1049V16.4568H80.0989V23.8208H79.1049V20.5728H74.4709V23.8208H73.4769V16.4568ZM85.9622 23.8908C85.2528 23.8908 84.6135 23.7321 84.0442 23.4148C83.4748 23.0881 83.0268 22.6401 82.7002 22.0708C82.3735 21.5015 82.2102 20.8575 82.2102 20.1388C82.2102 19.4201 82.3735 18.7761 82.7002 18.2068C83.0268 17.6375 83.4748 17.1941 84.0442 16.8768C84.6135 16.5595 85.2528 16.4008 85.9622 16.4008C86.6715 16.4008 87.3108 16.5595 87.8802 16.8768C88.4495 17.1941 88.8928 17.6375 89.2102 18.2068C89.5368 18.7761 89.7002 19.4201 89.7002 20.1388C89.7002 20.8575 89.5368 21.5015 89.2102 22.0708C88.8928 22.6401 88.4495 23.0881 87.8802 23.4148C87.3108 23.7321 86.6715 23.8908 85.9622 23.8908ZM85.9622 23.0088C86.4848 23.0088 86.9515 22.8921 87.3622 22.6588C87.7822 22.4161 88.1088 22.0755 88.3422 21.6368C88.5755 21.1981 88.6922 20.6988 88.6922 20.1388C88.6922 19.5788 88.5755 19.0795 88.3422 18.6408C88.1088 18.2021 87.7822 17.8661 87.3622 17.6328C86.9515 17.3901 86.4848 17.2688 85.9622 17.2688C85.4395 17.2688 84.9682 17.3901 84.5482 17.6328C84.1375 17.8661 83.8108 18.2021 83.5682 18.6408C83.3348 19.0795 83.2182 19.5788 83.2182 20.1388C83.2182 20.6988 83.3348 21.1981 83.5682 21.6368C83.8108 22.0755 84.1375 22.4161 84.5482 22.6588C84.9682 22.8921 85.4395 23.0088 85.9622 23.0088ZM98.5686 23.8908C97.8406 23.8908 97.1873 23.7321 96.6086 23.4148C96.0393 23.0975 95.5913 22.6541 95.2646 22.0848C94.9379 21.5061 94.7746 20.8575 94.7746 20.1388C94.7746 19.4201 94.9379 18.7761 95.2646 18.2068C95.5913 17.6375 96.0393 17.1941 96.6086 16.8768C97.1873 16.5595 97.8406 16.4008 98.5686 16.4008C99.2033 16.4008 99.7679 16.5268 100.263 16.7788C100.767 17.0215 101.163 17.3808 101.453 17.8568L100.711 18.3608C100.468 17.9968 100.16 17.7261 99.7866 17.5488C99.4133 17.3621 99.0073 17.2688 98.5686 17.2688C98.0366 17.2688 97.5559 17.3901 97.1266 17.6328C96.7066 17.8661 96.3753 18.2021 96.1326 18.6408C95.8993 19.0795 95.7826 19.5788 95.7826 20.1388C95.7826 20.7081 95.8993 21.2121 96.1326 21.6508C96.3753 22.0801 96.7066 22.4161 97.1266 22.6588C97.5559 22.8921 98.0366 23.0088 98.5686 23.0088C99.0073 23.0088 99.4133 22.9201 99.7866 22.7428C100.16 22.5655 100.468 22.2948 100.711 21.9308L101.453 22.4348C101.163 22.9108 100.767 23.2748 100.263 23.5268C99.7586 23.7695 99.1939 23.8908 98.5686 23.8908ZM111.609 16.4568V23.8208H110.699V17.9968L107.717 22.9248H107.269L104.287 17.9828V23.8208H103.377V16.4568H104.385L107.507 21.7628L110.685 16.4568H111.609ZM117.476 23.8908C116.767 23.8908 116.127 23.7321 115.558 23.4148C114.989 23.0881 114.541 22.6401 114.214 22.0708C113.887 21.5015 113.724 20.8575 113.724 20.1388C113.724 19.4201 113.887 18.7761 114.214 18.2068C114.541 17.6375 114.989 17.1941 115.558 16.8768C116.127 16.5595 116.767 16.4008 117.476 16.4008C118.185 16.4008 118.825 16.5595 119.394 16.8768C119.963 17.1941 120.407 17.6375 120.724 18.2068C121.051 18.7761 121.214 19.4201 121.214 20.1388C121.214 20.8575 121.051 21.5015 120.724 22.0708C120.407 22.6401 119.963 23.0881 119.394 23.4148C118.825 23.7321 118.185 23.8908 117.476 23.8908ZM117.476 23.0088C117.999 23.0088 118.465 22.8921 118.876 22.6588C119.296 22.4161 119.623 22.0755 119.856 21.6368C120.089 21.1981 120.206 20.6988 120.206 20.1388C120.206 19.5788 120.089 19.0795 119.856 18.6408C119.623 18.2021 119.296 17.8661 118.876 17.6328C118.465 17.3901 117.999 17.2688 117.476 17.2688C116.953 17.2688 116.482 17.3901 116.062 17.6328C115.651 17.8661 115.325 18.2021 115.082 18.6408C114.849 19.0795 114.732 19.5788 114.732 20.1388C114.732 20.6988 114.849 21.1981 115.082 21.6368C115.325 22.0755 115.651 22.4161 116.062 22.6588C116.482 22.8921 116.953 23.0088 117.476 23.0088ZM128.245 17.3388H125.459V23.8208H124.465V17.3388H121.679V16.4568H128.245V17.3388ZM133.476 16.4008C134.167 16.4008 134.792 16.5595 135.352 16.8768C135.912 17.1848 136.351 17.6235 136.668 18.1928C136.985 18.7621 137.144 19.4108 137.144 20.1388C137.144 20.8761 136.985 21.5295 136.668 22.0988C136.351 22.6681 135.912 23.1115 135.352 23.4288C134.801 23.7368 134.176 23.8908 133.476 23.8908C132.879 23.8908 132.337 23.7695 131.852 23.5268C131.376 23.2748 130.984 22.9108 130.676 22.4348V26.5368H129.682V16.4568H130.634V17.9128C130.933 17.4275 131.325 17.0541 131.81 16.7928C132.305 16.5315 132.86 16.4008 133.476 16.4008ZM133.406 23.0088C133.919 23.0088 134.386 22.8921 134.806 22.6588C135.226 22.4161 135.553 22.0755 135.786 21.6368C136.029 21.1981 136.15 20.6988 136.15 20.1388C136.15 19.5788 136.029 19.0841 135.786 18.6548C135.553 18.2161 135.226 17.8755 134.806 17.6328C134.386 17.3901 133.919 17.2688 133.406 17.2688C132.883 17.2688 132.412 17.3901 131.992 17.6328C131.581 17.8755 131.255 18.2161 131.012 18.6548C130.779 19.0841 130.662 19.5788 130.662 20.1388C130.662 20.6988 130.779 21.1981 131.012 21.6368C131.255 22.0755 131.581 22.4161 131.992 22.6588C132.412 22.8921 132.883 23.0088 133.406 23.0088ZM139.28 16.4568H140.274V22.3088L145.188 16.4568H146.07V23.8208H145.076V17.9688L140.176 23.8208H139.28V16.4568ZM154.098 17.3388H151.312V23.8208H150.318V17.3388H147.532V16.4568H154.098V17.3388ZM158.274 23.8908C157.546 23.8908 156.892 23.7321 156.314 23.4148C155.744 23.0975 155.296 22.6541 154.97 22.0848C154.643 21.5061 154.48 20.8575 154.48 20.1388C154.48 19.4201 154.643 18.7761 154.97 18.2068C155.296 17.6375 155.744 17.1941 156.314 16.8768C156.892 16.5595 157.546 16.4008 158.274 16.4008C158.908 16.4008 159.473 16.5268 159.968 16.7788C160.472 17.0215 160.868 17.3808 161.158 17.8568L160.416 18.3608C160.173 17.9968 159.865 17.7261 159.492 17.5488C159.118 17.3621 158.712 17.2688 158.274 17.2688C157.742 17.2688 157.261 17.3901 156.832 17.6328C156.412 17.8661 156.08 18.2021 155.838 18.6408C155.604 19.0795 155.488 19.5788 155.488 20.1388C155.488 20.7081 155.604 21.2121 155.838 21.6508C156.08 22.0801 156.412 22.4161 156.832 22.6588C157.261 22.8921 157.742 23.0088 158.274 23.0088C158.712 23.0088 159.118 22.9201 159.492 22.7428C159.865 22.5655 160.173 22.2948 160.416 21.9308L161.158 22.4348C160.868 22.9108 160.472 23.2748 159.968 23.5268C159.464 23.7695 158.899 23.8908 158.274 23.8908ZM168.492 16.4568V23.8208H167.582V21.3848H165.272H164.992L163.284 23.8208H162.206L164.04 21.2448C163.471 21.0861 163.032 20.8155 162.724 20.4328C162.416 20.0501 162.262 19.5648 162.262 18.9768C162.262 18.1555 162.542 17.5301 163.102 17.1008C163.662 16.6715 164.428 16.4568 165.398 16.4568H168.492ZM163.27 19.0048C163.27 20.0968 163.966 20.6428 165.356 20.6428H167.582V17.3388H165.426C163.989 17.3388 163.27 17.8941 163.27 19.0048Z" fill="white"/>
<path d="M47.0047 40.6208V51.8208H44.4287V42.7328H39.3727V51.8208H36.7967V40.6208H47.0047ZM53.6211 51.9488C52.7144 51.9488 51.8984 51.7621 51.1731 51.3888C50.4584 51.0048 49.8984 50.4768 49.4931 49.8048C49.0877 49.1328 48.8851 48.3701 48.8851 47.5168C48.8851 46.6635 49.0877 45.9008 49.4931 45.2288C49.8984 44.5568 50.4584 44.0341 51.1731 43.6608C51.8984 43.2768 52.7144 43.0848 53.6211 43.0848C54.5277 43.0848 55.3384 43.2768 56.0531 43.6608C56.7677 44.0341 57.3277 44.5568 57.7331 45.2288C58.1384 45.9008 58.3411 46.6635 58.3411 47.5168C58.3411 48.3701 58.1384 49.1328 57.7331 49.8048C57.3277 50.4768 56.7677 51.0048 56.0531 51.3888C55.3384 51.7621 54.5277 51.9488 53.6211 51.9488ZM53.6211 49.9008C54.2611 49.9008 54.7837 49.6875 55.1891 49.2608C55.6051 48.8235 55.8131 48.2421 55.8131 47.5168C55.8131 46.7915 55.6051 46.2155 55.1891 45.7888C54.7837 45.3515 54.2611 45.1328 53.6211 45.1328C52.9811 45.1328 52.4531 45.3515 52.0371 45.7888C51.6211 46.2155 51.4131 46.7915 51.4131 47.5168C51.4131 48.2421 51.6211 48.8235 52.0371 49.2608C52.4531 49.6875 52.9811 49.9008 53.6211 49.9008ZM69.5808 49.7728V53.6768H67.2608V51.8208H61.2128V53.6768H58.8928V49.7728H59.2448C59.7782 49.7621 60.1462 49.4475 60.3488 48.8288C60.5515 48.2101 60.6795 47.3301 60.7328 46.1888L60.8448 43.2128H68.3488V49.7728H69.5808ZM62.9888 46.3648C62.9568 47.2395 62.8875 47.9541 62.7808 48.5088C62.6848 49.0635 62.4982 49.4848 62.2208 49.7728H65.8528V45.2608H63.0368L62.9888 46.3648ZM76.6574 47.3408C77.1694 47.5008 77.5641 47.7461 77.8414 48.0768C78.1294 48.4075 78.2734 48.8021 78.2734 49.2608C78.2734 49.8048 78.0868 50.2848 77.7134 50.7008C77.3401 51.1061 76.8281 51.4208 76.1774 51.6448C75.5268 51.8688 74.7908 51.9808 73.9694 51.9808C73.2974 51.9808 72.6361 51.9115 71.9854 51.7728C71.3348 51.6341 70.7321 51.4261 70.1774 51.1488L70.8494 49.4048C71.7561 49.8421 72.7588 50.0608 73.8574 50.0608C74.4441 50.0608 74.9028 49.9755 75.2334 49.8048C75.5748 49.6235 75.7454 49.3728 75.7454 49.0528C75.7454 48.7755 75.6281 48.5675 75.3934 48.4288C75.1588 48.2795 74.8174 48.2048 74.3694 48.2048H72.6094V46.6528H74.1454C74.5828 46.6528 74.9188 46.5835 75.1534 46.4448C75.3881 46.3061 75.5054 46.1035 75.5054 45.8368C75.5054 45.5595 75.3561 45.3461 75.0574 45.1968C74.7694 45.0475 74.3534 44.9728 73.8094 44.9728C72.9774 44.9728 72.0708 45.1701 71.0894 45.5648L70.4814 43.8368C71.6761 43.3141 72.8388 43.0528 73.9694 43.0528C74.7481 43.0528 75.4414 43.1488 76.0494 43.3408C76.6681 43.5328 77.1534 43.8155 77.5054 44.1888C77.8574 44.5515 78.0334 44.9781 78.0334 45.4688C78.0334 45.8741 77.9108 46.2421 77.6654 46.5728C77.4201 46.8928 77.0841 47.1488 76.6574 47.3408ZM83.4331 43.0848C84.7664 43.0848 85.7904 43.4048 86.5051 44.0448C87.2197 44.6741 87.5771 45.6288 87.5771 46.9088V51.8208H85.2411V50.7488C84.7717 51.5488 83.8971 51.9488 82.6171 51.9488C81.9557 51.9488 81.3797 51.8368 80.8891 51.6128C80.4091 51.3888 80.0411 51.0795 79.7851 50.6848C79.5291 50.2901 79.4011 49.8421 79.4011 49.3408C79.4011 48.5408 79.6997 47.9115 80.2971 47.4528C80.9051 46.9941 81.8384 46.7648 83.0971 46.7648H85.0811C85.0811 46.2208 84.9157 45.8048 84.5851 45.5168C84.2544 45.2181 83.7584 45.0688 83.0971 45.0688C82.6384 45.0688 82.1851 45.1435 81.7371 45.2928C81.2997 45.4315 80.9264 45.6235 80.6171 45.8688L79.7211 44.1248C80.1904 43.7941 80.7504 43.5381 81.4011 43.3568C82.0624 43.1755 82.7397 43.0848 83.4331 43.0848ZM83.2411 50.2688C83.6677 50.2688 84.0464 50.1728 84.3771 49.9808C84.7077 49.7781 84.9424 49.4848 85.0811 49.1008V48.2208H83.3691C82.3451 48.2208 81.8331 48.5568 81.8331 49.2288C81.8331 49.5488 81.9557 49.8048 82.2011 49.9968C82.4571 50.1781 82.8037 50.2688 83.2411 50.2688ZM96.6413 45.2608H92.2253V51.8208H89.7453V43.2128H96.6413V45.2608ZM101.637 51.9488C100.73 51.9488 99.914 51.7621 99.1887 51.3888C98.474 51.0048 97.914 50.4768 97.5087 49.8048C97.1034 49.1328 96.9007 48.3701 96.9007 47.5168C96.9007 46.6635 97.1034 45.9008 97.5087 45.2288C97.914 44.5568 98.474 44.0341 99.1887 43.6608C99.914 43.2768 100.73 43.0848 101.637 43.0848C102.543 43.0848 103.354 43.2768 104.069 43.6608C104.783 44.0341 105.343 44.5568 105.749 45.2288C106.154 45.9008 106.357 46.6635 106.357 47.5168C106.357 48.3701 106.154 49.1328 105.749 49.8048C105.343 50.4768 104.783 51.0048 104.069 51.3888C103.354 51.7621 102.543 51.9488 101.637 51.9488ZM101.637 49.9008C102.277 49.9008 102.799 49.6875 103.205 49.2608C103.621 48.8235 103.829 48.2421 103.829 47.5168C103.829 46.7915 103.621 46.2155 103.205 45.7888C102.799 45.3515 102.277 45.1328 101.637 45.1328C100.997 45.1328 100.469 45.3515 100.053 45.7888C99.6367 46.2155 99.4287 46.7915 99.4287 47.5168C99.4287 48.2421 99.6367 48.8235 100.053 49.2608C100.469 49.6875 100.997 49.9008 101.637 49.9008ZM116.204 43.2128V51.8208H113.708V45.2608H110.988L110.908 46.7808C110.866 47.9115 110.759 48.8501 110.588 49.5968C110.418 50.3435 110.14 50.9301 109.756 51.3568C109.372 51.7835 108.839 51.9968 108.156 51.9968C107.794 51.9968 107.362 51.9328 106.86 51.8048L106.988 49.7568C107.159 49.7781 107.282 49.7888 107.356 49.7888C107.73 49.7888 108.007 49.6555 108.188 49.3888C108.38 49.1115 108.508 48.7648 108.572 48.3488C108.636 47.9221 108.684 47.3621 108.716 46.6688L108.844 43.2128H116.204ZM122.637 51.9488C121.73 51.9488 120.914 51.7621 120.189 51.3888C119.474 51.0048 118.914 50.4768 118.509 49.8048C118.103 49.1328 117.901 48.3701 117.901 47.5168C117.901 46.6635 118.103 45.9008 118.509 45.2288C118.914 44.5568 119.474 44.0341 120.189 43.6608C120.914 43.2768 121.73 43.0848 122.637 43.0848C123.543 43.0848 124.354 43.2768 125.069 43.6608C125.783 44.0341 126.343 44.5568 126.749 45.2288C127.154 45.9008 127.357 46.6635 127.357 47.5168C127.357 48.3701 127.154 49.1328 126.749 49.8048C126.343 50.4768 125.783 51.0048 125.069 51.3888C124.354 51.7621 123.543 51.9488 122.637 51.9488ZM122.637 49.9008C123.277 49.9008 123.799 49.6875 124.205 49.2608C124.621 48.8235 124.829 48.2421 124.829 47.5168C124.829 46.7915 124.621 46.2155 124.205 45.7888C123.799 45.3515 123.277 45.1328 122.637 45.1328C121.997 45.1328 121.469 45.3515 121.053 45.7888C120.637 46.2155 120.429 46.7915 120.429 47.5168C120.429 48.2421 120.637 48.8235 121.053 49.2608C121.469 49.6875 121.997 49.9008 122.637 49.9008ZM135.649 47.3248C136.663 47.6661 137.169 48.3488 137.169 49.3728C137.169 50.1515 136.876 50.7541 136.289 51.1808C135.703 51.6075 134.828 51.8208 133.665 51.8208H129.073V43.2128H133.473C134.551 43.2128 135.393 43.4101 136.001 43.8048C136.609 44.1888 136.913 44.7328 136.913 45.4368C136.913 45.8635 136.801 46.2421 136.577 46.5728C136.364 46.8928 136.055 47.1435 135.649 47.3248ZM131.361 46.7488H133.249C134.124 46.7488 134.561 46.4395 134.561 45.8208C134.561 45.2128 134.124 44.9088 133.249 44.9088H131.361V46.7488ZM133.457 50.1248C134.375 50.1248 134.833 49.8101 134.833 49.1808C134.833 48.8501 134.727 48.6101 134.513 48.4608C134.3 48.3008 133.964 48.2208 133.505 48.2208H131.361V50.1248H133.457ZM143.059 51.9488C142.152 51.9488 141.336 51.7621 140.611 51.3888C139.896 51.0048 139.336 50.4768 138.931 49.8048C138.525 49.1328 138.323 48.3701 138.323 47.5168C138.323 46.6635 138.525 45.9008 138.931 45.2288C139.336 44.5568 139.896 44.0341 140.611 43.6608C141.336 43.2768 142.152 43.0848 143.059 43.0848C143.965 43.0848 144.776 43.2768 145.491 43.6608C146.205 44.0341 146.765 44.5568 147.171 45.2288C147.576 45.9008 147.779 46.6635 147.779 47.5168C147.779 48.3701 147.576 49.1328 147.171 49.8048C146.765 50.4768 146.205 51.0048 145.491 51.3888C144.776 51.7621 143.965 51.9488 143.059 51.9488ZM143.059 49.9008C143.699 49.9008 144.221 49.6875 144.627 49.2608C145.043 48.8235 145.251 48.2421 145.251 47.5168C145.251 46.7915 145.043 46.2155 144.627 45.7888C144.221 45.3515 143.699 45.1328 143.059 45.1328C142.419 45.1328 141.891 45.3515 141.475 45.7888C141.059 46.2155 140.851 46.7915 140.851 47.5168C140.851 48.2421 141.059 48.8235 141.475 49.2608C141.891 49.6875 142.419 49.9008 143.059 49.9008ZM153.287 48.5568H151.991V51.8208H149.495V43.2128H151.991V46.5568H153.335L155.671 43.2128H158.327L155.319 47.3408L158.535 51.8208H155.591L153.287 48.5568Z" fill="white"/>
<path d="M85.4007 273.997C85.998 274.242 86.462 274.599 86.7927 275.069C87.134 275.538 87.3047 276.071 87.3047 276.669C87.3047 277.373 87.054 277.986 86.5527 278.509C86.062 279.021 85.3954 279.415 84.5527 279.693C83.7207 279.959 82.7927 280.093 81.7687 280.093C80.1367 280.093 78.5847 279.767 77.1127 279.117L78.2167 276.509C78.7394 276.722 79.2834 276.887 79.8487 277.005C80.414 277.111 80.9474 277.165 81.4487 277.165C82.0567 277.165 82.5474 277.079 82.9207 276.909C83.3047 276.738 83.4967 276.487 83.4967 276.157C83.4967 275.709 83.1287 275.485 82.3927 275.485H79.3687V272.765H82.0727C82.3927 272.765 82.6327 272.706 82.7927 272.589C82.9634 272.471 83.0487 272.306 83.0487 272.093C83.0487 271.815 82.8994 271.602 82.6007 271.453C82.3127 271.303 81.9287 271.229 81.4487 271.229C81.0007 271.229 80.5154 271.293 79.9927 271.421C79.47 271.549 78.974 271.73 78.5047 271.965L77.4007 269.165C78.638 268.599 79.982 268.317 81.4327 268.317C82.4034 268.317 83.2994 268.45 84.1207 268.717C84.9527 268.983 85.614 269.373 86.1047 269.885C86.606 270.386 86.8567 270.978 86.8567 271.661C86.8567 272.162 86.7287 272.615 86.4727 273.021C86.2167 273.426 85.8594 273.751 85.4007 273.997ZM96.5507 277.869H92.2947L91.5427 279.821H87.7027L92.5987 268.621H96.3107L101.207 279.821H97.3027L96.5507 277.869ZM95.5107 275.149L94.4227 272.333L93.3347 275.149H95.5107ZM110.768 271.549H105.952V279.821H102.24V268.621H110.768V271.549ZM116.921 280.077C115.715 280.077 114.633 279.826 113.673 279.325C112.713 278.823 111.961 278.13 111.417 277.245C110.873 276.349 110.601 275.341 110.601 274.221C110.601 273.101 110.873 272.098 111.417 271.213C111.961 270.317 112.713 269.618 113.673 269.117C114.633 268.615 115.715 268.365 116.921 268.365C118.126 268.365 119.209 268.615 120.169 269.117C121.129 269.618 121.881 270.317 122.425 271.213C122.969 272.098 123.241 273.101 123.241 274.221C123.241 275.341 122.969 276.349 122.425 277.245C121.881 278.13 121.129 278.823 120.169 279.325C119.209 279.826 118.126 280.077 116.921 280.077ZM116.921 277.021C117.39 277.021 117.811 276.909 118.185 276.685C118.569 276.45 118.873 276.125 119.097 275.709C119.321 275.282 119.433 274.786 119.433 274.221C119.433 273.655 119.321 273.165 119.097 272.749C118.873 272.322 118.569 271.997 118.185 271.773C117.811 271.538 117.39 271.421 116.921 271.421C116.451 271.421 116.025 271.538 115.641 271.773C115.267 271.997 114.969 272.322 114.745 272.749C114.521 273.165 114.409 273.655 114.409 274.221C114.409 274.786 114.521 275.282 114.745 275.709C114.969 276.125 115.267 276.45 115.641 276.685C116.025 276.909 116.451 277.021 116.921 277.021ZM135.215 268.621V279.821H131.503V271.549H128.943L128.911 272.845C128.869 274.445 128.741 275.757 128.527 276.781C128.314 277.805 127.941 278.605 127.407 279.181C126.874 279.746 126.111 280.029 125.119 280.029C124.618 280.029 124.085 279.959 123.519 279.821L123.711 276.797C123.85 276.829 123.989 276.845 124.127 276.845C124.522 276.845 124.821 276.685 125.023 276.365C125.237 276.045 125.381 275.618 125.455 275.085C125.53 274.551 125.583 273.853 125.615 272.989L125.759 268.621H135.215ZM142.89 280.077C141.684 280.077 140.602 279.826 139.642 279.325C138.682 278.823 137.93 278.13 137.386 277.245C136.842 276.349 136.57 275.341 136.57 274.221C136.57 273.101 136.842 272.098 137.386 271.213C137.93 270.317 138.682 269.618 139.642 269.117C140.602 268.615 141.684 268.365 142.89 268.365C144.095 268.365 145.178 268.615 146.138 269.117C147.098 269.618 147.85 270.317 148.394 271.213C148.938 272.098 149.21 273.101 149.21 274.221C149.21 275.341 148.938 276.349 148.394 277.245C147.85 278.13 147.098 278.823 146.138 279.325C145.178 279.826 144.095 280.077 142.89 280.077ZM142.89 277.021C143.359 277.021 143.78 276.909 144.154 276.685C144.538 276.45 144.842 276.125 145.066 275.709C145.29 275.282 145.402 274.786 145.402 274.221C145.402 273.655 145.29 273.165 145.066 272.749C144.842 272.322 144.538 271.997 144.154 271.773C143.78 271.538 143.359 271.421 142.89 271.421C142.42 271.421 141.994 271.538 141.61 271.773C141.236 271.997 140.938 272.322 140.714 272.749C140.49 273.165 140.378 273.655 140.378 274.221C140.378 274.786 140.49 275.282 140.714 275.709C140.938 276.125 141.236 276.45 141.61 276.685C141.994 276.909 142.42 277.021 142.89 277.021ZM159.177 273.949C159.806 274.173 160.286 274.509 160.617 274.957C160.947 275.394 161.113 275.933 161.113 276.573C161.113 277.575 160.713 278.37 159.913 278.957C159.123 279.533 158.003 279.821 156.553 279.821H150.569V268.621H156.249C157.635 268.621 158.707 268.877 159.465 269.389C160.233 269.901 160.617 270.621 160.617 271.549C160.617 272.082 160.489 272.551 160.233 272.957C159.987 273.362 159.635 273.693 159.177 273.949ZM154.281 272.925H155.881C156.499 272.925 156.809 272.653 156.809 272.109C156.809 271.543 156.499 271.261 155.881 271.261H154.281V272.925ZM156.377 277.181C156.995 277.181 157.305 276.882 157.305 276.285C157.305 275.709 156.995 275.421 156.377 275.421H154.281V277.181H156.377ZM168.155 280.077C166.95 280.077 165.867 279.826 164.907 279.325C163.947 278.823 163.195 278.13 162.651 277.245C162.107 276.349 161.835 275.341 161.835 274.221C161.835 273.101 162.107 272.098 162.651 271.213C163.195 270.317 163.947 269.618 164.907 269.117C165.867 268.615 166.95 268.365 168.155 268.365C169.361 268.365 170.443 268.615 171.403 269.117C172.363 269.618 173.115 270.317 173.659 271.213C174.203 272.098 174.475 273.101 174.475 274.221C174.475 275.341 174.203 276.349 173.659 277.245C173.115 278.13 172.363 278.823 171.403 279.325C170.443 279.826 169.361 280.077 168.155 280.077ZM168.155 277.021C168.625 277.021 169.046 276.909 169.419 276.685C169.803 276.45 170.107 276.125 170.331 275.709C170.555 275.282 170.667 274.786 170.667 274.221C170.667 273.655 170.555 273.165 170.331 272.749C170.107 272.322 169.803 271.997 169.419 271.773C169.046 271.538 168.625 271.421 168.155 271.421C167.686 271.421 167.259 271.538 166.875 271.773C166.502 271.997 166.203 272.322 165.979 272.749C165.755 273.165 165.643 273.655 165.643 274.221C165.643 274.786 165.755 275.282 165.979 275.709C166.203 276.125 166.502 276.45 166.875 276.685C167.259 276.909 167.686 277.021 168.155 277.021ZM183.658 274.061L186.97 279.821H182.714L180.57 275.773H179.514V279.821H175.738V268.621H179.514V272.797H180.666L183.05 268.621H186.986L183.658 274.061Z" fill="white"/>
<path d="M99.3887 255.421V263.821H98.5127V256.189H93.1967V263.821H92.3207V255.421H99.3887ZM105.367 255.421C106.439 255.421 107.279 255.677 107.887 256.189C108.495 256.701 108.799 257.405 108.799 258.301C108.799 259.197 108.495 259.901 107.887 260.413C107.279 260.917 106.439 261.169 105.367 261.169H103.111V263.821H102.223V255.421H105.367ZM105.343 260.389C106.175 260.389 106.811 260.209 107.251 259.849C107.691 259.481 107.911 258.965 107.911 258.301C107.911 257.621 107.691 257.101 107.251 256.741C106.811 256.373 106.175 256.189 105.343 256.189H103.111V260.389H105.343ZM114.427 263.893C113.595 263.893 112.839 263.709 112.159 263.341C111.487 262.965 110.959 262.453 110.575 261.805C110.199 261.157 110.011 260.429 110.011 259.621C110.011 258.813 110.199 258.085 110.575 257.437C110.959 256.789 111.487 256.281 112.159 255.913C112.839 255.537 113.595 255.349 114.427 255.349C115.259 255.349 116.007 255.533 116.671 255.901C117.343 256.269 117.871 256.781 118.255 257.437C118.639 258.085 118.831 258.813 118.831 259.621C118.831 260.429 118.639 261.161 118.255 261.817C117.871 262.465 117.343 262.973 116.671 263.341C116.007 263.709 115.259 263.893 114.427 263.893ZM114.427 263.101C115.091 263.101 115.691 262.953 116.227 262.657C116.763 262.353 117.183 261.937 117.487 261.409C117.791 260.873 117.943 260.277 117.943 259.621C117.943 258.965 117.791 258.373 117.487 257.845C117.183 257.309 116.763 256.893 116.227 256.597C115.691 256.293 115.091 256.141 114.427 256.141C113.763 256.141 113.159 256.293 112.615 256.597C112.079 256.893 111.655 257.309 111.343 257.845C111.039 258.373 110.887 258.965 110.887 259.621C110.887 260.277 111.039 260.873 111.343 261.409C111.655 261.937 112.079 262.353 112.615 262.657C113.159 262.953 113.763 263.101 114.427 263.101ZM124.622 263.893C123.79 263.893 123.038 263.709 122.366 263.341C121.702 262.973 121.178 262.465 120.794 261.817C120.418 261.161 120.23 260.429 120.23 259.621C120.23 258.813 120.418 258.085 120.794 257.437C121.178 256.781 121.706 256.269 122.378 255.901C123.05 255.533 123.802 255.349 124.634 255.349C125.258 255.349 125.834 255.453 126.362 255.661C126.89 255.869 127.338 256.173 127.706 256.573L127.142 257.137C126.486 256.473 125.658 256.141 124.658 256.141C123.994 256.141 123.39 256.293 122.846 256.597C122.302 256.901 121.874 257.317 121.562 257.845C121.258 258.373 121.106 258.965 121.106 259.621C121.106 260.277 121.258 260.869 121.562 261.397C121.874 261.925 122.302 262.341 122.846 262.645C123.39 262.949 123.994 263.101 124.658 263.101C125.666 263.101 126.494 262.765 127.142 262.093L127.706 262.657C127.338 263.057 126.886 263.365 126.35 263.581C125.822 263.789 125.246 263.893 124.622 263.893ZM134.93 256.189H131.978V263.821H131.102V256.189H128.15V255.421H134.93V256.189ZM140.055 263.893C139.223 263.893 138.467 263.709 137.787 263.341C137.115 262.965 136.587 262.453 136.203 261.805C135.827 261.157 135.639 260.429 135.639 259.621C135.639 258.813 135.827 258.085 136.203 257.437C136.587 256.789 137.115 256.281 137.787 255.913C138.467 255.537 139.223 255.349 140.055 255.349C140.887 255.349 141.635 255.533 142.299 255.901C142.971 256.269 143.499 256.781 143.883 257.437C144.267 258.085 144.459 258.813 144.459 259.621C144.459 260.429 144.267 261.161 143.883 261.817C143.499 262.465 142.971 262.973 142.299 263.341C141.635 263.709 140.887 263.893 140.055 263.893ZM140.055 263.101C140.719 263.101 141.319 262.953 141.855 262.657C142.391 262.353 142.811 261.937 143.115 261.409C143.419 260.873 143.571 260.277 143.571 259.621C143.571 258.965 143.419 258.373 143.115 257.845C142.811 257.309 142.391 256.893 141.855 256.597C141.319 256.293 140.719 256.141 140.055 256.141C139.391 256.141 138.787 256.293 138.243 256.597C137.707 256.893 137.283 257.309 136.971 257.845C136.667 258.373 136.515 258.965 136.515 259.621C136.515 260.277 136.667 260.873 136.971 261.409C137.283 261.937 137.707 262.353 138.243 262.657C138.787 262.953 139.391 263.101 140.055 263.101ZM155.215 256.189H152.263V263.821H151.387V256.189H148.435V255.421H155.215V256.189ZM162.714 263.053V263.821H156.774V255.421H162.534V256.189H157.662V259.177H162.006V259.933H157.662V263.053H162.714ZM167.468 259.969H165.548V263.821H164.684V255.421H165.548V259.189H167.468L170.312 255.421H171.272L168.152 259.501L171.452 263.821H170.432L167.468 259.969ZM176.477 263.893C175.645 263.893 174.893 263.709 174.221 263.341C173.557 262.973 173.033 262.465 172.649 261.817C172.273 261.161 172.085 260.429 172.085 259.621C172.085 258.813 172.273 258.085 172.649 257.437C173.033 256.781 173.561 256.269 174.233 255.901C174.905 255.533 175.657 255.349 176.489 255.349C177.113 255.349 177.689 255.453 178.217 255.661C178.745 255.869 179.193 256.173 179.561 256.573L178.997 257.137C178.341 256.473 177.513 256.141 176.513 256.141C175.849 256.141 175.245 256.293 174.701 256.597C174.157 256.901 173.729 257.317 173.417 257.845C173.113 258.373 172.961 258.965 172.961 259.621C172.961 260.277 173.113 260.869 173.417 261.397C173.729 261.925 174.157 262.341 174.701 262.645C175.245 262.949 175.849 263.101 176.513 263.101C177.521 263.101 178.349 262.765 178.997 262.093L179.561 262.657C179.193 263.057 178.741 263.365 178.205 263.581C177.677 263.789 177.101 263.893 176.477 263.893ZM186.785 256.189H183.833V263.821H182.957V256.189H180.005V255.421H186.785V256.189Z" fill="white"/>
<path d="M34.7207 263.659C33.7962 263.74 32.9527 263.584 32.1901 263.19C31.4275 262.796 30.8013 262.187 30.3115 261.363C29.8314 260.527 29.5388 259.509 29.4337 258.308C29.3285 257.107 29.4401 256.059 29.7685 255.163C30.1066 254.255 30.617 253.541 31.2995 253.021C31.9821 252.501 32.7856 252.2 33.71 252.119C34.6345 252.038 35.478 252.195 36.2406 252.588C37.0032 252.982 37.6245 253.597 38.1046 254.433C38.5944 255.257 38.8919 256.27 38.9971 257.47C39.1022 258.671 38.9857 259.725 38.6476 260.633C38.3192 261.529 37.8137 262.237 37.1312 262.757C36.4486 263.277 35.6451 263.578 34.7207 263.659ZM34.5294 261.475C35.2095 261.416 35.7152 261.077 36.0466 260.459C36.3885 259.84 36.506 258.92 36.399 257.698C36.292 256.476 36.0163 255.59 35.5719 255.04C35.1382 254.489 34.5813 254.243 33.9013 254.303C33.2318 254.361 32.7261 254.7 32.3842 255.319C32.0528 255.937 31.9406 256.857 32.0477 258.079C32.1547 259.301 32.425 260.187 32.8588 260.738C33.3031 261.288 33.86 261.534 34.5294 261.475ZM42.8728 257.581C42.0546 257.652 41.361 257.435 40.7919 256.928C40.2326 256.409 39.9119 255.682 39.83 254.747C39.7481 253.812 39.938 253.046 40.3997 252.449C40.871 251.84 41.5158 251.5 42.334 251.428C43.1522 251.356 43.841 251.58 44.4004 252.098C44.9588 252.606 45.279 253.328 45.3609 254.263C45.4428 255.198 45.2533 255.969 44.7926 256.577C44.331 257.174 43.691 257.509 42.8728 257.581ZM48.9917 250.974L50.8885 250.807L44.2468 262.632L42.35 262.798L48.9917 250.974ZM42.7584 256.274C43.1196 256.242 43.3882 256.069 43.564 255.753C43.7505 255.437 43.8181 254.987 43.767 254.402C43.7158 253.818 43.5709 253.386 43.3323 253.107C43.1044 252.828 42.8098 252.703 42.4485 252.735C42.0978 252.766 41.8297 252.945 41.6442 253.271C41.4577 253.587 41.3896 254.032 41.4399 254.606C41.4901 255.18 41.635 255.612 41.8745 255.901C42.1131 256.18 42.4077 256.304 42.7584 256.274ZM50.9045 262.177C50.3732 262.224 49.8843 262.144 49.4379 261.936C49.0011 261.718 48.6454 261.385 48.3707 260.938C48.096 260.491 47.9316 259.959 47.8776 259.343C47.8237 258.726 47.8931 258.174 48.0859 257.686C48.2787 257.198 48.5717 256.814 48.9647 256.533C49.3674 256.241 49.8344 256.071 50.3657 256.025C51.1839 255.953 51.8727 256.177 52.432 256.695C53.0011 257.202 53.3266 257.923 53.4085 258.858C53.4904 259.793 53.2956 260.565 52.8243 261.174C52.3626 261.771 51.7227 262.106 50.9045 262.177ZM50.79 260.87C51.1513 260.839 51.4199 260.665 51.5957 260.35C51.7812 260.023 51.8489 259.573 51.7986 258.999C51.7484 258.425 51.604 257.999 51.3654 257.72C51.1365 257.43 50.8414 257.3 50.4801 257.332C50.1295 257.363 49.8609 257.536 49.6745 257.852C49.488 258.168 49.4204 258.619 49.4715 259.203C49.5227 259.788 49.6676 260.219 49.9062 260.498C50.1448 260.777 50.4394 260.901 50.79 260.87Z" fill="#048B28"/>
<path d="M136.515 101.081C136.748 100.827 137.028 100.644 137.355 100.531C137.688 100.417 138.078 100.361 138.525 100.361L138.245 101.801C138.058 101.787 137.938 101.781 137.885 101.781C137.411 101.781 137.031 101.897 136.745 102.131C136.465 102.364 136.275 102.727 136.175 103.221L135.655 105.821H134.095L135.165 100.441H136.645L136.515 101.081ZM144.153 102.731C144.153 102.977 144.123 103.251 144.063 103.551H139.943C139.997 104.284 140.46 104.651 141.333 104.651C141.607 104.651 141.867 104.607 142.113 104.521C142.367 104.434 142.587 104.311 142.773 104.151L143.423 105.181C143.123 105.421 142.78 105.601 142.393 105.721C142.007 105.841 141.6 105.901 141.173 105.901C140.62 105.901 140.133 105.804 139.713 105.611C139.3 105.411 138.98 105.127 138.753 104.761C138.533 104.394 138.423 103.971 138.423 103.491C138.423 102.897 138.557 102.364 138.823 101.891C139.097 101.411 139.473 101.037 139.953 100.771C140.433 100.497 140.98 100.361 141.593 100.361C142.113 100.361 142.563 100.457 142.943 100.651C143.33 100.844 143.627 101.121 143.833 101.481C144.047 101.841 144.153 102.257 144.153 102.731ZM141.523 101.531C141.157 101.531 140.847 101.631 140.593 101.831C140.34 102.024 140.16 102.294 140.053 102.641H142.723C142.723 102.294 142.613 102.024 142.393 101.831C142.18 101.631 141.89 101.531 141.523 101.531ZM151.213 100.441L150.323 104.921C150.123 105.934 149.736 106.674 149.163 107.141C148.596 107.607 147.836 107.841 146.883 107.841C146.363 107.841 145.883 107.781 145.443 107.661C145.009 107.541 144.636 107.364 144.323 107.131L145.063 106.001C145.276 106.181 145.549 106.321 145.883 106.421C146.223 106.527 146.579 106.581 146.953 106.581C147.479 106.581 147.879 106.464 148.153 106.231C148.426 106.004 148.613 105.657 148.713 105.191L148.753 104.961C148.319 105.361 147.773 105.561 147.113 105.561C146.666 105.561 146.263 105.471 145.903 105.291C145.543 105.104 145.256 104.841 145.043 104.501C144.836 104.161 144.733 103.761 144.733 103.301C144.733 102.754 144.863 102.257 145.123 101.811C145.383 101.364 145.739 101.011 146.193 100.751C146.653 100.491 147.166 100.361 147.733 100.361C148.153 100.361 148.519 100.441 148.833 100.601C149.153 100.754 149.393 100.994 149.553 101.321L149.723 100.441H151.213ZM147.533 104.281C147.986 104.281 148.359 104.134 148.653 103.841C148.946 103.547 149.093 103.171 149.093 102.711C149.093 102.384 148.986 102.127 148.773 101.941C148.559 101.747 148.263 101.651 147.883 101.651C147.423 101.651 147.043 101.797 146.743 102.091C146.449 102.384 146.303 102.761 146.303 103.221C146.303 103.547 146.413 103.807 146.633 104.001C146.853 104.187 147.153 104.281 147.533 104.281ZM158.085 100.441L157.015 105.821H155.535L155.645 105.241C155.411 105.461 155.145 105.627 154.845 105.741C154.545 105.847 154.228 105.901 153.895 105.901C153.308 105.901 152.838 105.741 152.485 105.421C152.138 105.101 151.965 104.651 151.965 104.071C151.965 103.851 151.988 103.634 152.035 103.421L152.625 100.441H154.185L153.615 103.321C153.588 103.447 153.575 103.577 153.575 103.711C153.575 104.271 153.875 104.551 154.475 104.551C154.868 104.551 155.191 104.437 155.445 104.211C155.705 103.977 155.881 103.631 155.975 103.171L156.525 100.441H158.085ZM159.94 98.4008H161.5L160.02 105.821H158.46L159.94 98.4008ZM167.998 100.441L166.928 105.821H165.448L165.548 105.291C165.101 105.697 164.551 105.901 163.898 105.901C163.478 105.901 163.091 105.804 162.738 105.611C162.384 105.417 162.101 105.141 161.888 104.781C161.681 104.414 161.578 103.984 161.578 103.491C161.578 102.897 161.708 102.364 161.968 101.891C162.234 101.411 162.594 101.037 163.048 100.771C163.501 100.497 164.001 100.361 164.548 100.361C165.374 100.361 165.958 100.631 166.298 101.171L166.438 100.441H167.998ZM164.378 104.611C164.684 104.611 164.958 104.537 165.198 104.391C165.438 104.237 165.624 104.027 165.758 103.761C165.891 103.494 165.958 103.187 165.958 102.841C165.958 102.474 165.848 102.184 165.628 101.971C165.414 101.757 165.114 101.651 164.728 101.651C164.421 101.651 164.148 101.727 163.908 101.881C163.668 102.027 163.481 102.234 163.348 102.501C163.214 102.767 163.148 103.074 163.148 103.421C163.148 103.787 163.254 104.077 163.468 104.291C163.688 104.504 163.991 104.611 164.378 104.611ZM170.792 101.081C171.025 100.827 171.305 100.644 171.632 100.531C171.965 100.417 172.355 100.361 172.802 100.361L172.522 101.801C172.335 101.787 172.215 101.781 172.162 101.781C171.689 101.781 171.309 101.897 171.022 102.131C170.742 102.364 170.552 102.727 170.452 103.221L169.932 105.821H168.372L169.442 100.441H170.922L170.792 101.081Z" fill="#048B28"/>
</svg>
