<svg width="23" height="38" viewBox="0 0 23 38" fill="none" xmlns="http://www.w3.org/2000/svg">
<path fill-rule="evenodd" clip-rule="evenodd" d="M0.39917 0L1.5038 0L1.5038 33.5241L21.48 3.55985L22.3991 4.17259L0.39917 37.1725L0.39917 0Z" fill="#F88E14"/>
<path fill-rule="evenodd" clip-rule="evenodd" d="M6.51821 17.2049C5.10447 17.014 3.51216 17.4388 1.21928 18.7091L0.68396 17.7429C3.05121 16.4314 4.90052 15.8718 6.66607 16.1102C8.42256 16.3475 9.98438 17.3615 11.8037 18.9101L11.0877 19.7512C9.29613 18.2263 7.94101 17.3971 6.51821 17.2049Z" fill="#F88E14"/>
<path d="M17.4596 4.55101C17.1355 4.55101 16.8373 4.47368 16.5648 4.31904C16.2997 4.16439 16.0861 3.95451 15.9241 3.68939C15.7695 3.41692 15.6921 3.11867 15.6921 2.79464C15.6921 2.47798 15.7695 2.18709 15.9241 1.92198C16.0861 1.6495 16.2997 1.43594 16.5648 1.28129C16.8373 1.12664 17.1355 1.04932 17.4596 1.04932C17.7836 1.04932 18.0782 1.12664 18.3433 1.28129C18.6157 1.43594 18.8293 1.6495 18.984 1.92198C19.1386 2.18709 19.2159 2.47798 19.2159 2.79464C19.2159 3.11867 19.1386 3.41692 18.984 3.68939C18.8293 3.95451 18.6157 4.16439 18.3433 4.31904C18.0782 4.47368 17.7836 4.55101 17.4596 4.55101ZM17.4596 4.08706C17.8204 4.08706 18.1223 3.96555 18.3654 3.72253C18.6084 3.47215 18.7299 3.16285 18.7299 2.79464C18.7299 2.43379 18.6084 2.13186 18.3654 1.88884C18.1223 1.63846 17.8204 1.51326 17.4596 1.51326C17.0987 1.51326 16.7931 1.63477 16.5427 1.87779C16.2997 2.12081 16.1782 2.42643 16.1782 2.79464C16.1782 3.16285 16.2997 3.47215 16.5427 3.72253C16.7931 3.96555 17.0987 4.08706 17.4596 4.08706Z" fill="#F88E14"/>
<path d="M10.3234 8.90309C9.5354 8.90309 8.91681 8.65639 8.46759 8.16298C8.02574 7.66958 7.80481 6.9847 7.80481 6.10836C7.80481 5.22465 7.96314 4.39618 8.2798 3.62293C8.59646 2.84232 9.04936 2.21636 9.6385 1.74505C10.2276 1.27374 10.9052 1.03809 11.671 1.03809C12.459 1.03809 13.0739 1.28479 13.5158 1.77819C13.965 2.27159 14.1896 2.95647 14.1896 3.83281C14.1896 4.71652 14.0313 5.54868 13.7146 6.32929C13.3979 7.10253 12.945 7.72481 12.3559 8.19612C11.7668 8.66743 11.0893 8.90309 10.3234 8.90309ZM10.3897 8.17403C10.9935 8.17403 11.5237 7.96046 11.9803 7.53334C12.4369 7.09885 12.783 6.54653 13.0187 5.87639C13.2617 5.20624 13.3832 4.52873 13.3832 3.84386C13.3832 3.17371 13.2249 2.6619 12.9082 2.30842C12.5989 1.94757 12.1644 1.76714 11.6048 1.76714C11.0009 1.76714 10.4707 1.98439 10.0141 2.41888C9.5575 2.84601 9.2077 3.39464 8.96468 4.06479C8.72902 4.73493 8.61119 5.41244 8.61119 6.09731C8.61119 6.76746 8.76584 7.28296 9.07514 7.6438C9.3918 7.99729 9.82997 8.17403 10.3897 8.17403Z" fill="#F88E14"/>
<path d="M6.85088 1.104L5.30439 8.83645H4.49801L5.90089 1.81097H4.07825L4.22185 1.104H6.85088Z" fill="#F88E14"/>
</svg>
