<svg width="193" height="98" viewBox="0 0 193 98" fill="none" xmlns="http://www.w3.org/2000/svg">
<path d="M37.5 76.5L83 71.5L119 67L144.5 58.5L152 49V39L144.5 31.5L132.5 27.5L119 23L111.5 12.5L105.5 4L95 1L80 4L65 12.5L49.5 20.5L37.5 31.5L27.5 39L21 49L14 52H7L1 58.5L5 70.5L21 76.5H33.5H37.5Z" fill="#CD0D26"/>
<path d="M83 71.5L37.5 76.5H33.5L30.5 87V94.5L49.5 97H72L128 87L144.5 81.5V71.5L152 64.5L165.5 58.5L170.5 49L165.5 34L149 27.5L132.5 23L122.5 17.5L111.5 4L105.5 1H95L105.5 4L111.5 12.5L119 23L132.5 27.5L144.5 31.5L152 39V49L144.5 58.5L119 67L83 71.5Z" fill="white"/>
<path d="M5 70.5L1 58.5V84L10.5 90L27.5 94.5H30.5V87L33.5 76.5H21L5 70.5Z" fill="#CD0D26"/>
<path d="M144.5 71.5V81.5L165.5 76.5L186 67L192.5 58.5V49L186 36.5L188 30.5L183 27.5L176.5 23L165.5 12.5L152 8L132.5 4L119 1H105.5L111.5 4L122.5 17.5L132.5 23L149 27.5L165.5 34L170.5 49L165.5 58.5L152 64.5L144.5 71.5Z" fill="#CD0D26"/>
<path d="M95 1L105.5 4L111.5 12.5L119 23L132.5 27.5L144.5 31.5L152 39V49L144.5 58.5L119 67L83 71.5L37.5 76.5H33.5M95 1L80 4L65 12.5L49.5 20.5L37.5 31.5L27.5 39L21 49L14 52H7L1 58.5M95 1H105.5M1 58.5L5 70.5L21 76.5H33.5M1 58.5V84L10.5 90L27.5 94.5H30.5M33.5 76.5L30.5 87V94.5M30.5 94.5L49.5 97H72L128 87L144.5 81.5M144.5 81.5V71.5L152 64.5L165.5 58.5L170.5 49L165.5 34L149 27.5L132.5 23L122.5 17.5L111.5 4L105.5 1M144.5 81.5L165.5 76.5L186 67L192.5 58.5V49L186 36.5L188 30.5L183 27.5L176.5 23L165.5 12.5L152 8L132.5 4L119 1H105.5" stroke="white"/>
</svg>
