<svg width="113" height="43" viewBox="0 0 113 43" fill="none" xmlns="http://www.w3.org/2000/svg">
<path d="M42.3829 19.2305L39.1271 28.0934H73.8552L71.1421 23.0289L68.4289 14.3469V6.56923L59.3852 0.600342L49.9797 3.67522L44.7343 8.1971L42.3829 19.2305Z" fill="#F88E14"/>
<path d="M9.64354 32.2528L19.7726 28.0927L40.935 25.0178H73.1308H88.686L109.487 30.4441L112.2 36.2321L106.954 41.6583H83.9833L59.9269 42.9245H40.935H8.01566L0.599777 36.2321L9.64354 32.2528Z" fill="#F88E14"/>
<circle cx="18.1358" cy="33.8812" r="1.98963" fill="#CD0D26"/>
<circle cx="24.2862" cy="33.8815" r="1.98963" fill="#CD0D26"/>
<circle cx="30.4345" cy="33.8815" r="1.98963" fill="#CD0D26"/>
<circle cx="36.5852" cy="33.8815" r="1.98963" fill="#CD0D26"/>
<circle cx="42.7345" cy="33.8815" r="1.98963" fill="#CD0D26"/>
<circle cx="48.8852" cy="33.8815" r="1.98963" fill="#CD0D26"/>
<circle cx="55.0334" cy="33.8815" r="1.98963" fill="#CD0D26"/>
<circle cx="61.1832" cy="33.8815" r="1.98963" fill="#CD0D26"/>
<circle cx="67.3338" cy="33.8815" r="1.98963" fill="#CD0D26"/>
<circle cx="73.4826" cy="33.8815" r="1.98963" fill="#CD0D26"/>
<circle cx="79.6333" cy="33.8815" r="1.98963" fill="#CD0D26"/>
<circle cx="85.7821" cy="33.8815" r="1.98963" fill="#CD0D26"/>
<circle cx="91.9323" cy="33.8815" r="1.98963" fill="#CD0D26"/>
<circle cx="98.0825" cy="33.8815" r="1.98963" fill="#CD0D26"/>
</svg>
