<svg width="112" height="152" viewBox="0 0 112 152" fill="none" xmlns="http://www.w3.org/2000/svg">
<path d="M104.019 23.1551L101.5 27L99.5 20L101.289 18.8331L99.5 16L92.5 24L85 30L78 33.5L73.5 40L54.5 44.5L28.5 46.5L12 54L2.5 71.5L1 96L6 121.5L9.375 126L10.5 127.5L11.0401 128.256L12 129.6L12.6429 130.5L14.7857 133.5L16.9286 136.5L18 138L31 142.5H61.5L89.5 134.5L103 116.5L105.5 101.5V85L98 64L92.5 51.5V38.5L105.5 25.5L104.019 23.1551Z" fill="white"/>
<path d="M3 142.5V131.5L9.375 126M9.375 126L6 121.5L1 96L2.5 71.5L12 54L28.5 46.5L54.5 44.5L73.5 40L78 33.5L85 30L92.5 24L99.5 16L101.289 18.8331M9.375 126L10.5 127.5L11.0401 128.256M9.375 126V121.5C8.41667 113.667 6.5 97.6 6.5 96C6.5 94 9.375 82 9.375 81C9.375 80.2 11.7917 71 13 66.5L24.5 54L33 49L63 46.5L73.5 44.5L82.5 35.5M6.5 147.5L5 140L7.5 133.5L11.0401 128.256M11.0401 128.256L12 129.6M3.5 147.5L7.5 142L9.375 136.5L12.6429 130.5M12.6429 130.5L14.7857 133.5M12.6429 130.5L12 129.6M9.375 148.5V141L11.0401 138L14.7857 133.5M14.7857 133.5L16.9286 136.5M14 151.5L11.0401 145.5L14.7857 143.197L13 138.5L16.9286 136.5M16.9286 136.5L18 138L31 142.5H61.5L89.5 134.5L103 116.5L105.5 101.5V85L98 64L92.5 51.5V38.5L105.5 25.5L104.019 23.1551M92.5 30L82.5 42.5L68 51.5L46 57.5L28.5 66.5L16.9286 81L13 91.5V112V121.5L12 129.6M85 42.5L68 57.5L39.5 66.5L28.5 85L24.5 98.5L20.5 127.5M104.019 23.1551L101.5 27L99.5 20L101.289 18.8331M104.019 23.1551L101.289 18.8331M104.019 23.1551L111 12.5L101.289 18.8331M111 1L101.5 16V21.5L111 1Z" stroke="#048B28"/>
<path d="M30 129.5L46.5 126L66 111.5L79 83.5L81.5 62" stroke="#048B28"/>
<path d="M89.5 49.5L94.5 75L96.5 94.5L86 114.5L72.5 126L47 135.5L22 137.5" stroke="#048B28"/>
</svg>
