<svg width="100" height="100" viewBox="0 0 100 100" fill="none" xmlns="http://www.w3.org/2000/svg">
<path d="M61.5 29.5V15.5V7L64.5 5.5H68.5L72.5 0L77.5 2H81.5L84.5 5.5L88.5 7L90.5 15.5L88.5 20V25.5L90.5 29.5H86L81.5 33L77.5 36L71 33L68.5 29.5L64.5 33L61.5 40.5L58 51.5L61.5 53.5L64.5 49L72.5 44.5L79 42V44.5L81.5 40.5H86H88.5L95.5 46.5L94.4202 49L99.5 51.5L97 58.5L95.5 63H88.5L84.5 67H77.5L72.5 63H68.5L64.5 56H60L58 63L61.5 91.5H58L54 81.5H49L42.5 89.5L40.5 91.5V96.5H37H34.5L32.5 91.5L27 100L24 96.5L20 94.5V91.5L16 89.5H12.5L20 84.5L18 81.5H21.5L27 77.5H32.5H37L32.5 75L21.5 77.5L12.5 83H6L4.5 77.5V75L0 73.5L4.5 68.5L6 67L0 60.5L1.5 58.5L4.5 51.5H6H9.5L16 49H18H21.5L27 51.5L32.5 56V58.5L34.5 53.5L38.5 51.5L44 56L50.5 63L49 68.5L50.5 77.5H54V68.5V63V51.5L56 40.5L50.5 42H46L42.5 39V36L40.5 29.5L44 28L46 22.5H49L50.5 13.5L54 17.5L60 25.5L61.5 29.5Z" fill="#048B28"/>
</svg>
