<svg width="116" height="120" viewBox="0 0 116 120" fill="none" xmlns="http://www.w3.org/2000/svg">
<path d="M10 3L8 8.5L12.5 20.5L17.0222 38.1778L18 42H14.5L12.5 45L18 48H25.5L29 42V39H25.5L24.0466 36.9006L21 32.5L18 20.5V12L10 3Z" fill="#048B28"/>
<path d="M18 42L17.0222 38.1778L12.5 39L8 45V62L18 76.5L33 92.5L47.5 101L55.5 103H74.5H94L115.5 105.5V103L104.5 97.5L85 92.5L70 89L55.5 81.5L47.5 70L44 53L37.5 42L29 36L24.0466 36.9006L25.5 39H29V42L25.5 48H18L12.5 45L14.5 42H18Z" fill="#CD0D26"/>
<path d="M29.9341 34.934L40.3339 60.931L39.5911 61.2281L29.4736 35.9368L10.1987 43.6475L20.3162 68.9388L19.5735 69.236L9.17363 43.239L29.9341 34.934Z" fill="black"/>
<path d="M30.988 85.4053L30.5668 85.9442L17.3493 75.613L32.8683 55.7585L45.6603 65.7571L45.239 66.296L33.0143 56.7408L26.0086 65.7037L36.957 74.2613L36.5358 74.8002L25.5874 66.2426L18.3378 75.5175L30.988 85.4053Z" fill="black"/>
<path d="M102.968 90.4283L103.495 90.7323L96.0388 103.646L76.6398 92.4465L83.8558 79.948L84.3824 80.252L77.4864 92.1962L86.2436 97.2522L92.4196 86.5551L92.9462 86.8591L86.7702 97.5562L95.8322 102.788L102.968 90.4283Z" fill="black"/>
<path d="M16.6552 7.24323L12.5335 16.1343L12.2795 16.0166L14.1343 12.0156C13.4785 12.0099 12.8482 11.9492 12.2435 11.8335C11.6427 11.7093 11.0925 11.5314 10.5929 11.2998C9.63602 10.8562 8.99034 10.274 8.65583 9.5531C8.3298 8.83615 8.35716 8.06699 8.73792 7.24562L10.1393 4.22264L10.3933 4.3404L8.99195 7.36338C8.64652 8.10854 8.62546 8.80862 8.92879 9.4636C9.23212 10.1186 9.81987 10.6482 10.692 11.0526C11.6658 11.504 12.8525 11.7403 14.252 11.7616L16.4012 7.12547L16.6552 7.24323Z" fill="black"/>
<path d="M18.9308 25.6153L20.6986 32.3884L20.5051 32.4389L18.7853 25.8496L14.9537 26.8497L15.5846 29.7028C15.7867 30.6353 15.9021 31.3941 15.9307 31.9792C15.9594 32.5642 15.8978 33.0144 15.7458 33.3297C15.5921 33.6385 15.3444 33.8375 15.0025 33.9267C14.867 33.9621 14.7306 33.9805 14.5932 33.9819L14.5839 33.788C14.7132 33.7818 14.8294 33.7652 14.9326 33.7383C15.2358 33.6591 15.4539 33.4782 15.5868 33.1955C15.718 32.9063 15.7662 32.4838 15.7313 31.9279C15.7029 31.3703 15.5887 30.6422 15.3886 29.7436L14.7122 26.7164L18.9308 25.6153Z" fill="black"/>
<path d="M11.8307 16.3663L12.0282 16.3344L13.0835 22.8697L17.1321 15.5102L17.2801 15.4863L18.3961 22.3968L18.1986 22.4287L17.1433 15.8933L13.0947 23.2528L12.9466 23.2768L11.8307 16.3663Z" fill="black"/>
<path d="M16.0149 36.856L16.2323 36.7543L19.5995 43.9493L21.8514 34.1246L22.0145 34.0483L25.5749 41.6564L25.3576 41.7581L21.9904 34.563L19.7385 44.3878L19.5754 44.4641L16.0149 36.856Z" fill="black"/>
<path d="M42.7528 76.218C44.47 76.12 45.8376 76.4493 46.8557 77.2058C47.873 77.9491 48.4231 79.0462 48.5059 80.4971C48.5887 81.9481 48.1674 83.1073 47.242 83.9748C46.3159 84.829 44.9942 85.305 43.277 85.4031L38.944 85.6504L39.2175 90.4426L38.8182 90.4653L38.0205 76.4881L42.7528 76.218ZM43.2953 85.0214C44.9193 84.9287 46.143 84.4916 46.9665 83.7101C47.8033 82.9278 48.1833 81.8644 48.1066 80.5199C48.0298 79.1754 47.5313 78.1622 46.6109 77.4802C45.7039 76.7975 44.4384 76.5024 42.8143 76.5951L38.4415 76.8447L38.9224 85.271L43.2953 85.0214Z" fill="black"/>
<path d="M51.6138 85.0641C53.2588 84.562 54.6656 84.5579 55.8339 85.0517C56.9984 85.5327 57.7927 86.4683 58.217 87.8583C58.6412 89.2483 58.5066 90.4744 57.813 91.5364C57.1156 92.5857 55.9444 93.3614 54.2993 93.8634L50.1483 95.1303L51.5494 99.7212L51.1669 99.838L47.0802 86.4477L51.6138 85.0641ZM54.2266 93.4883C55.7824 93.0135 56.8678 92.2989 57.4826 91.3445C58.1102 90.3862 58.2275 89.2631 57.8344 87.9751C57.4413 86.687 56.7169 85.8208 55.6611 85.3763C54.6182 84.9278 53.3188 84.9411 51.7629 85.4159L47.5737 86.6944L50.0374 94.7668L54.2266 93.4883Z" fill="black"/>
<path d="M64.5963 90.8591C65.6803 89.5237 66.8448 88.7345 68.0897 88.4914C69.3243 88.2399 70.5057 88.5722 71.6341 89.4882C72.7624 90.4041 73.3356 91.4963 73.3536 92.7646C73.3612 94.0245 72.823 95.3221 71.739 96.6575L69.0037 100.027L72.7303 103.052L72.4782 103.363L61.6088 94.5391L64.5963 90.8591ZM71.4692 96.3869C72.4944 95.124 72.9955 93.925 72.9723 92.79C72.9576 91.6445 72.4275 90.6475 71.382 89.7987C70.3364 88.95 69.2517 88.6361 68.1277 88.8571C67.0121 89.0678 65.9417 89.8046 64.9165 91.0675L62.156 94.4681L68.7086 99.7875L71.4692 96.3869Z" fill="black"/>
</svg>
