<svg width="502" height="358" viewBox="0 0 502 358" fill="none" xmlns="http://www.w3.org/2000/svg">
<path d="M495.754 290.429V294.923L488.051 322.231L457.499 344.857L478.579 339.396L491.851 326.912L502 312.088V294.923L495.754 290.429Z" fill="#CD0D26"/>
<path d="M419.314 281.844L423.148 308.187L439.543 335.495L457.499 344.857L488.051 322.231L495.754 294.923V290.429L482.482 280.879L470.771 269.176H462.184L442.666 273.077L436.755 271.895L419.314 281.844Z" fill="#CD0D26"/>
<path d="M495.754 280.879L502 251.231L491.967 221.152L485.605 234.846L473.114 243.429L455.157 242.721L454.736 250.877L454.315 259.033L462.184 269.176H470.771L482.482 280.879L495.754 290.429V280.879Z" fill="#F88E14"/>
<path d="M409.876 240.308L416.902 265.275L417.053 266.309L423.148 269.176L436.755 271.895L442.666 273.077L462.184 269.176L454.315 259.033L454.736 250.877L433.297 251.231L420.025 243.429C417.527 245.925 412.218 242.388 409.876 240.308Z" fill="#048B28"/>
<path d="M436.755 271.895L423.148 269.176L417.053 266.309L419.314 281.844L436.755 271.895Z" fill="white"/>
<path d="M445.788 245.769L433.297 251.231L454.736 250.877L455.157 242.721L446.929 240.308L445.788 245.769Z" fill="white"/>
<path d="M439.543 237.187L436.755 234.846C432.219 236.667 422.523 240.932 420.025 243.429L433.297 251.231L445.788 245.769L446.929 240.308L439.543 237.187Z" fill="white"/>
<path d="M423.148 216.901H413.779L404.02 226.654L409.876 240.308C412.218 242.388 417.527 245.925 420.025 243.429C422.523 240.932 432.219 236.667 436.755 234.846L420.025 220.802L423.148 216.901Z" fill="#048B28"/>
<path d="M427.832 205.978L423.148 216.901L420.025 220.802L436.755 234.846L439.543 237.187L446.929 240.308L455.157 242.721L464.526 234.846L468.429 220.802L449.692 216.901L427.832 205.978Z" fill="#F88E14"/>
<path d="M491.851 220.802L488.051 204.188L482.482 213L468.429 220.802L464.526 234.846L455.157 242.721L473.114 243.429L485.605 234.846L491.967 221.152L491.851 220.802Z" fill="#F88E14"/>
<path d="M473.114 193.495L462.184 190.374L439.543 198.176L427.832 205.978L449.692 216.901L468.429 220.802L482.482 213L488.051 204.188L486.362 196.805L473.114 193.495Z" fill="#F88E14"/>
<path d="M495.754 213L491.851 198.176L488.051 204.188L491.851 220.802L491.967 221.152L495.754 213Z" fill="white"/>
<path d="M409.876 201.297L398.165 213L404.02 226.654L413.779 216.901H423.148L427.832 205.978L439.543 198.176H427.832L409.876 201.297Z" fill="white"/>
<path d="M392.588 193.495L398.165 213L409.876 201.297L427.832 198.176H439.543L462.184 190.374L459.841 184.132L454.315 181.291L445.788 184.132L425.49 190.374C418.203 191.414 402.693 193.495 398.946 193.495H392.588Z" fill="white"/>
<path d="M455.157 150.582H427.832L449.692 156.824L455.157 166.187V181.011L454.315 181.291L459.841 184.132L462.184 190.374L473.114 193.495L476.236 184.132V168.527L470.771 156.824L455.157 150.582Z" fill="#CD0D26"/>
<path d="M485.605 193.495L491.851 184.132V166.187L476.236 144.341V134.141L455.157 129.516L433.297 127.402L449.692 141.22L455.157 150.582L470.771 156.824L476.236 168.527V184.132L473.114 193.495L486.362 196.805L485.605 193.495Z" fill="#048B28"/>
<path d="M403.63 174.769H387.235L392.588 193.495H398.946C402.693 193.495 418.203 191.414 425.49 190.374L445.788 184.132L454.315 181.291L455.157 181.011V166.187L437.981 170.868L403.63 174.769Z" fill="#048B28"/>
<path d="M365.301 145.334L387.235 174.769H403.63L437.981 170.868L455.157 166.187L449.692 156.824L427.832 150.582L403.63 144.341H369.278L365.301 145.334Z" fill="#CD0D26"/>
<path d="M353.173 130.405L359.91 138.099L365.301 145.334L369.278 144.341H403.63L427.832 150.582H455.157L449.692 141.22L433.297 127.402L406.753 124.835H363.813L353.173 130.405Z" fill="#CD0D26"/>
<path d="M476.236 127.176L469.958 114L456.32 112.397L455.157 118.593L372.401 110.791L338.842 114.037L353.173 130.405L363.813 124.835H406.753L433.297 127.402L455.157 129.516L476.236 134.141V127.176Z" fill="white"/>
<path d="M416.435 92.7562L398.182 100.232L379.93 107.708L442.666 110.791L456.32 112.397L457.499 106.11L455.157 91.2857L449.692 84.2637H445.788V88.1648H423.148L417.683 96.7473L416.435 92.7562Z" fill="#048B28"/>
<path d="M419.858 81.8335L445.788 84.2637V79.5824L437.981 74.9011L425.49 79.5824L419.858 81.8335Z" fill="white"/>
<path d="M417.683 96.7473L423.148 88.1648H445.788V84.2637L419.858 81.8335L420.025 91.2857L416.435 92.7562L417.683 96.7473Z" fill="white"/>
<path d="M263.882 57.7363L285.659 71.559L287.303 67.0989L318.532 64.7582L334.146 57.7363L344.296 64.7582L341.953 76.4615L334.146 84.2637H347.418L369.171 88.1456L392.154 80.3527L384.112 71.7802L363.813 67.0989L323.997 43.3271L318.532 43.5623V46.8327H305.26L297.453 43.3271H287.303L277.935 46.8327L263.882 44.4725L256.855 49.1538L254.574 52.1944L263.882 57.7363Z" fill="#F88E14"/>
<path d="M392.154 80.3527L369.278 88.1648L369.171 88.1456L359.91 91.2857C352.1 94.7124 338.154 100.731 330.016 103.956L335.924 110.705L347.418 106.11L379.93 107.708L414.384 86.1965L413.779 84.2637L419.858 81.8335L409.876 76.4615H403.63L392.154 80.3527Z" fill="#048B28"/>
<path d="M318.532 64.7582L287.303 67.0989L285.659 71.559L321.655 94.4066L330.016 103.956C338.154 100.731 352.1 94.7124 359.91 91.2857L369.171 88.1456L347.418 84.2637H334.146L341.953 76.4615L344.296 64.7582L334.146 57.7363L318.532 64.7582Z" fill="#CD0D26"/>
<path d="M338.842 114.037L372.401 110.791L379.93 107.708L347.418 106.11L335.924 110.705L338.842 114.037Z" fill="white"/>
<path d="M372.401 110.791L455.157 118.593L456.32 112.397L442.666 110.791L379.93 107.708L372.401 110.791Z" fill="white"/>
<path d="M487.166 136.538V124.835L482.482 115.473L469.958 114L476.236 127.176V134.141L487.166 136.538Z" fill="white"/>
<path d="M468.429 110.791L457.499 83.4835L445.788 69.4396L439.543 57.7363L409.876 53.0549L405.801 52.353L398.946 57.7363L369.278 53.0549L356.787 46.8327L363.813 67.0989L384.112 71.7802L392.154 80.3527L403.63 76.4615H409.876L419.858 81.8335L425.49 79.5824L437.981 74.9011L445.788 79.5824V84.2637H449.692L455.157 91.2857L457.499 106.11L456.32 112.397L469.958 114L468.429 110.791Z" fill="#F88E14"/>
<path d="M327.9 35.8901L387.235 49.1538L405.801 52.353L409.876 49.1538V32.7692L380.208 27.3077L339.611 23.6194V30.4286L327.9 35.8901Z" fill="#F88E14"/>
<path d="M387.235 49.1538L327.9 35.8901L297.453 31.2413L297.436 31.2418L295.96 34.1922L318.532 35.8901V43.3271L363.813 67.0989L356.787 46.8327L369.278 53.0549L398.946 57.7363L405.801 52.353L387.235 49.1538Z" fill="#048B28"/>
<path d="M297.453 31.2413L327.9 35.8901L339.611 30.4286V23.6194L302.918 20.2857L297.437 31.239L297.453 31.2413Z" fill="#F88E14"/>
<path d="M236.132 41.2151L239.68 43.3271L252.171 50.7641V44.4725L271.689 42.1319L305.26 43.3271H317.12L309.944 42.1319L295.11 35.8901L295.96 34.1922L268.244 32.1074H249.829L236.132 41.2151Z" fill="#CD0D26"/>
<path d="M229 19.5L271.689 27.3077L297.437 31.239L302.918 20.2857L339.611 23.6194V20.2857L323.997 3.12088L309.944 0L291.207 3.12088L274.031 10.9231H266.224H249.829L239.68 16.3846L227.188 5.46154L217.717 10.3695L229 19.5Z" fill="#048B28"/>
<path d="M194.398 35.8901H227.188L236.132 41.2151L249.829 32.1074H268.244L297.436 31.2418L297.437 31.239L271.689 27.3077L229 19.5L217.717 10.3695L202.205 20.2857L194.398 35.8901Z" fill="#048B28"/>
<path d="M210.793 3.12088H191.275L163.95 10.9231L146.774 16.3846L138.212 27.2758L146.774 30.4286L152.145 41.7131L165.67 38.8408L167.073 30.4286L185.03 22.6264L202.205 20.2857L217.717 10.3695L210.793 3.12088Z" fill="#F88E14"/>
<path d="M185.03 22.6264L167.073 30.4286L165.67 38.8408L179.565 35.8901H194.398L202.205 20.2857L185.03 22.6264Z" fill="white"/>
<path d="M130.568 41.9634L138.187 27.3077L138.212 27.2758L131.941 24.967H110.862L99.1509 35.8901L96.8087 44.4725V47.8254L100.328 48.6809L108.519 42.1319L124.134 35.8901L130.568 41.9634Z" fill="#CD0D26"/>
<path d="M146.774 30.4286L138.212 27.2758L138.187 27.3077L130.568 41.9634L134.315 45.4996L152.145 41.7131L146.774 30.4286Z" fill="#CD0D26"/>
<path d="M112.359 51.9504L117.107 49.1538L128.037 46.8327L130.568 41.9634L124.134 35.8901L108.519 42.1319L100.328 48.6809L102.274 49.1538L101.398 53.2789L112.359 51.9504Z" fill="#048B28"/>
<path d="M73.3872 42.1319L68.703 64.7582L57.7729 83.4835V91.5122L73.3872 74.9011L89.0016 65.7057V57.7363L96.8087 51.4945V47.8254L73.3872 42.1319Z" fill="white"/>
<path d="M100.155 59.1375L101.398 53.2789L96.8087 53.8352V51.4945L89.0016 57.7363V65.7057L100.155 59.1375Z" fill="#048B28"/>
<path fill-rule="evenodd" clip-rule="evenodd" d="M12.4914 225.484V240.308L73.3872 255.132L306.821 314.429L409.876 344.857L445.788 355L457.499 344.857L439.543 335.495L423.148 308.187L419.314 281.844L417.053 266.309L416.902 265.275L409.876 240.308L404.02 226.654L398.165 213L392.588 193.495L387.235 174.769L365.301 145.334L359.91 138.099L353.173 130.405L338.842 114.037L335.924 110.705L330.016 103.956L321.655 94.4066L285.659 71.559L263.882 57.7363L254.574 52.1944L252.171 50.7641L239.68 43.3271L236.132 41.2151L227.188 35.8901H194.398H179.565L165.67 38.8408L152.145 41.7131L134.315 45.4996L128.037 46.8327L117.107 49.1538L112.359 51.9504L137.873 48.8579L138.187 49.1538L113.204 69.4396H97.968L100.155 59.1375L89.0016 65.7057L73.3872 74.9011L57.7729 91.5122L49.1851 100.648L33.5708 127.176L24.9829 138.099L17.9565 159.945L0 184.132V213L12.4914 225.484Z" fill="#F88E14"/>
<path d="M113.204 69.4396L138.187 49.1538L137.873 48.8579L112.359 51.9504L100.155 59.1375L97.968 69.4396H113.204Z" fill="#F88E14"/>
<path d="M112.359 51.9504L101.398 53.2789L100.155 59.1375L112.359 51.9504Z" fill="#048B28"/>
<path d="M102.274 49.1538L100.328 48.6809L96.8087 51.4945V53.8352L101.398 53.2789L102.274 49.1538Z" fill="#048B28"/>
<path d="M130.568 41.9634L128.037 46.8327L134.315 45.4996L130.568 41.9634Z" fill="#048B28"/>
<path d="M100.328 48.6809L96.8087 47.8254V51.4945L100.328 48.6809Z" fill="white"/>
<path d="M256.855 49.1538L263.882 44.4725L277.935 46.8327L287.303 43.3271H297.453L305.26 46.8327H318.532V43.5623L317.12 43.3271H305.26L271.689 42.1319L252.171 44.4725V50.7641L254.574 52.1944L256.855 49.1538Z" fill="white"/>
<path d="M295.11 35.8901L309.944 42.1319L317.12 43.3271H318.532V35.8901L295.96 34.1922L295.11 35.8901Z" fill="white"/>
<path d="M323.997 43.3271L363.813 67.0989L318.532 43.3271V43.5623L323.997 43.3271Z" fill="white"/>
<path d="M295.96 34.1922L297.436 31.2418L268.244 32.1074L295.96 34.1922Z" fill="white"/>
<path d="M369.278 88.1648L392.154 80.3527L369.171 88.1456L369.278 88.1648Z" fill="white"/>
<path d="M379.93 107.708L398.182 100.232L416.435 92.7562L414.384 86.1965L379.93 107.708Z" fill="#048B28"/>
<path d="M416.435 92.7562L420.025 91.2857L419.858 81.8335L413.779 84.2637L414.384 86.1965L416.435 92.7562Z" fill="white"/>
<path d="M488.051 204.188L491.851 198.176L486.362 196.805L488.051 204.188Z" fill="white"/>
<path d="M60 293L35 172H167.5H302.5L356 256.5L378.5 358L60 293Z" fill="white"/>
</svg>
