<svg width="56" height="48" viewBox="0 0 56 48" fill="none" xmlns="http://www.w3.org/2000/svg">
<path d="M2.89397 17.7304L3.01053 16.4155L11.9838 13.7174L11.8743 14.9525L4.28701 17.1913L11.3622 20.7299L11.2509 21.985L2.89397 17.7304Z" fill="white"/>
<path d="M23.4624 19.3718L18.2377 19.7723L18.1429 18.5359L23.3676 18.1354L23.4624 19.3718Z" fill="white"/>
<path d="M30.6995 13.9265L26.2968 16.7679L25.6244 15.7261L30.0271 12.8847L30.6995 13.9265Z" fill="white"/>
<path d="M38.0002 11.144L32.7608 11.0628L32.7801 9.82291L38.0194 9.90419L38.0002 11.144Z" fill="white"/>
<path d="M44.4297 16.0994L41.2543 11.9312L42.2407 11.1798L45.4161 15.348L44.4297 16.0994Z" fill="white"/>
<path d="M44.0004 23.5468L44.7337 18.3583L45.9615 18.5318L45.2282 23.7203L44.0004 23.5468Z" fill="white"/>
<path d="M39.8051 31.5307L42.5308 27.0554L43.5899 27.7005L40.8641 32.1757L39.8051 31.5307Z" fill="white"/>
<path d="M34.6928 40.5492L37.4185 36.074L38.4776 36.719L35.7518 41.1943L34.6928 40.5492Z" fill="white"/>
<path d="M10.5107 17.0105L15.7131 17.6368L15.5649 18.8679L10.3625 18.2416L10.5107 17.0105Z" fill="white"/>
</svg>
