<svg width="192" height="295" viewBox="0 0 192 295" fill="none" xmlns="http://www.w3.org/2000/svg">
<rect width="192" height="295" fill="#FB9DA4"/>
<rect y="89" width="192" height="64" fill="#C42733"/>
<path d="M94.816 102.76H86.464V124H81.82V102.76H73.504V98.8H94.816V102.76ZM104.493 104.56C107.325 104.56 109.485 105.244 110.973 106.612C112.485 107.956 113.241 109.996 113.241 112.732V124H108.993V121.66C108.441 122.5 107.649 123.148 106.617 123.604C105.609 124.036 104.385 124.252 102.945 124.252C101.505 124.252 100.245 124.012 99.1647 123.532C98.0847 123.028 97.2447 122.344 96.6447 121.48C96.0687 120.592 95.7807 119.596 95.7807 118.492C95.7807 116.764 96.4167 115.384 97.6887 114.352C98.9847 113.296 101.013 112.768 103.773 112.768H108.741V112.48C108.741 111.136 108.333 110.104 107.517 109.384C106.725 108.664 105.537 108.304 103.953 108.304C102.873 108.304 101.805 108.472 100.749 108.808C99.7167 109.144 98.8407 109.612 98.1207 110.212L96.3567 106.936C97.3647 106.168 98.5767 105.58 99.9927 105.172C101.409 104.764 102.909 104.56 104.493 104.56ZM103.881 120.976C105.009 120.976 106.005 120.724 106.869 120.22C107.757 119.692 108.381 118.948 108.741 117.988V115.756H104.097C101.505 115.756 100.209 116.608 100.209 118.312C100.209 119.128 100.533 119.776 101.181 120.256C101.829 120.736 102.729 120.976 103.881 120.976ZM126.801 116.296H123.309V124H118.809V104.776H123.309V112.552H126.909L132.597 104.776H137.421L130.437 114.028L137.889 124H132.597L126.801 116.296ZM148.998 124.252C147.054 124.252 145.302 123.832 143.742 122.992C142.182 122.152 140.958 120.988 140.07 119.5C139.206 117.988 138.774 116.284 138.774 114.388C138.774 112.492 139.206 110.8 140.07 109.312C140.958 107.824 142.182 106.66 143.742 105.82C145.302 104.98 147.054 104.56 148.998 104.56C150.966 104.56 152.73 104.98 154.29 105.82C155.85 106.66 157.062 107.824 157.926 109.312C158.814 110.8 159.258 112.492 159.258 114.388C159.258 116.284 158.814 117.988 157.926 119.5C157.062 120.988 155.85 122.152 154.29 122.992C152.73 123.832 150.966 124.252 148.998 124.252ZM148.998 120.4C150.654 120.4 152.022 119.848 153.102 118.744C154.182 117.64 154.722 116.188 154.722 114.388C154.722 112.588 154.182 111.136 153.102 110.032C152.022 108.928 150.654 108.376 148.998 108.376C147.342 108.376 145.974 108.928 144.894 110.032C143.838 111.136 143.31 112.588 143.31 114.388C143.31 116.188 143.838 117.64 144.894 118.744C145.974 119.848 147.342 120.4 148.998 120.4ZM163.704 104.776H168.204V117.448L178.824 104.776H182.928V124H178.428V111.328L167.844 124H163.704V104.776ZM173.028 102.508C171.084 102.508 169.596 102.064 168.564 101.176C167.556 100.264 167.04 98.944 167.016 97.216H170.004C170.028 98.08 170.292 98.764 170.796 99.268C171.324 99.772 172.056 100.024 172.992 100.024C173.904 100.024 174.624 99.772 175.152 99.268C175.704 98.764 175.992 98.08 176.016 97.216H179.076C179.052 98.944 178.524 100.264 177.492 101.176C176.46 102.064 174.972 102.508 173.028 102.508Z" fill="white"/>
<path d="M144.471 45.65L143.134 54.0417L137.79 52.7167L140.462 58.9L133.782 58.4583L136.899 64.6417L132 66.85L137.79 69.9417L132 74.8L136.008 77.45L134.672 82.75H139.571L137.79 88.05H144.471L146.697 94.675L151.151 90.7L154.714 94.675L158.277 90.7L162.286 96L164.513 90.7L169.412 94.675L171.193 88.05H175.202V82.75L181.437 81.425L177.874 77.45L185 73.475L179.21 69.9417L182.773 65.525L177.874 62.875L182.773 58.0167H175.202V52.7167H171.193V45.65L163.176 49.625L162.286 44.325L156.496 48.7417L152.933 43L150.261 50.95L144.471 45.65Z" fill="white" stroke="#C42733"/>
<path d="M150.23 68.48H146.84L145.16 77H142.76L144.44 68.48H141.125L141.515 66.5H150.62L150.23 68.48ZM155.314 77.18C154.264 77.18 153.354 76.99 152.584 76.61C151.814 76.23 151.224 75.695 150.814 75.005C150.404 74.315 150.199 73.52 150.199 72.62C150.199 71.43 150.469 70.36 151.009 69.41C151.559 68.45 152.324 67.695 153.304 67.145C154.294 66.595 155.424 66.32 156.694 66.32C157.744 66.32 158.654 66.51 159.424 66.89C160.194 67.27 160.784 67.805 161.194 68.495C161.604 69.185 161.809 69.98 161.809 70.88C161.809 72.07 161.534 73.145 160.984 74.105C160.444 75.055 159.679 75.805 158.689 76.355C157.709 76.905 156.584 77.18 155.314 77.18ZM155.524 75.11C156.294 75.11 156.969 74.925 157.549 74.555C158.129 74.185 158.574 73.69 158.884 73.07C159.194 72.45 159.349 71.765 159.349 71.015C159.349 70.215 159.099 69.58 158.599 69.11C158.099 68.63 157.394 68.39 156.484 68.39C155.714 68.39 155.039 68.575 154.459 68.945C153.879 69.315 153.434 69.81 153.124 70.43C152.814 71.05 152.659 71.735 152.659 72.485C152.659 73.285 152.909 73.925 153.409 74.405C153.909 74.875 154.614 75.11 155.524 75.11ZM174.284 66.5L172.184 77H169.784L171.449 68.48H166.709L165.029 77H162.629L164.729 66.5H174.284Z" fill="#C42733"/>
<path d="M37.9468 255.937L27.5054 238.927L29.2553 234.004L31.3667 215.985L33.0261 210.833L33.237 202.027L40.6512 195.388L41.7412 182.796L61.6178 174.919L69.8292 161.62L77.8511 150.511L84.2226 155.916L92.2445 144.807L111.019 167.502L98.3098 146.104L106.992 142.664L115.294 143.603L127.037 153.224L139.043 152.168L144.746 166.561L149.816 179.355L166.951 172.565L175.492 184.777L185.536 197.45L177.997 200.438L37.9468 255.937Z" fill="#048B28"/>
<path d="M35.0462 263.959L34.7726 221.244L45.2723 191.706L59.665 171.992L85.8737 153.412L115.868 149.72L140.435 159.017L165.831 180.411L180.226 202.727L183.576 211.18L35.0462 263.959Z" fill="#F88E14"/>
<rect x="24.8403" y="216.192" width="22.1177" height="4.91504" transform="rotate(-21.6174 24.8403 216.192)" fill="white"/>
<rect x="50.7541" y="161.513" width="3.44053" height="19.1686" transform="rotate(-21.6174 50.7541 161.513)" fill="white"/>
<rect x="60.1168" y="166.462" width="4.91504" height="13.7621" transform="rotate(-78.5339 60.1168 166.462)" fill="white"/>
<rect x="140.784" y="169.905" width="15.7281" height="5.40654" transform="rotate(-40.4965 140.784 169.905)" fill="white"/>
<rect x="139.514" y="176.036" width="25.0667" height="3.93203" transform="rotate(-21.6174 139.514 176.036)" fill="white"/>
<path d="M14.24 28V14H27.78V28H23.14V16.66L24.16 17.66H17.86L18.88 16.66V28H14.24ZM37.3756 28.32C36.2423 28.32 35.189 28.14 34.2156 27.78C33.2556 27.42 32.4223 26.9133 31.7156 26.26C31.009 25.5933 30.4556 24.8133 30.0556 23.92C29.669 23.0267 29.4756 22.0533 29.4756 21C29.4756 19.9333 29.669 18.96 30.0556 18.08C30.4556 17.1867 31.009 16.4133 31.7156 15.76C32.4223 15.0933 33.2556 14.58 34.2156 14.22C35.189 13.86 36.2423 13.68 37.3756 13.68C38.5223 13.68 39.5756 13.86 40.5356 14.22C41.4956 14.58 42.329 15.0933 43.0356 15.76C43.7423 16.4133 44.289 17.1867 44.6756 18.08C45.0756 18.96 45.2756 19.9333 45.2756 21C45.2756 22.0533 45.0756 23.0267 44.6756 23.92C44.289 24.8133 43.7423 25.5933 43.0356 26.26C42.329 26.9133 41.4956 27.42 40.5356 27.78C39.5756 28.14 38.5223 28.32 37.3756 28.32ZM37.3756 24.5C37.8156 24.5 38.2223 24.42 38.5956 24.26C38.9823 24.1 39.3156 23.8733 39.5956 23.58C39.889 23.2733 40.1156 22.9067 40.2756 22.48C40.4356 22.04 40.5156 21.5467 40.5156 21C40.5156 20.4533 40.4356 19.9667 40.2756 19.54C40.1156 19.1 39.889 18.7333 39.5956 18.44C39.3156 18.1333 38.9823 17.9 38.5956 17.74C38.2223 17.58 37.8156 17.5 37.3756 17.5C36.9356 17.5 36.5223 17.58 36.1356 17.74C35.7623 17.9 35.429 18.1333 35.1356 18.44C34.8556 18.7333 34.6356 19.1 34.4756 19.54C34.3156 19.9667 34.2356 20.4533 34.2356 21C34.2356 21.5467 34.3156 22.04 34.4756 22.48C34.6356 22.9067 34.8556 23.2733 35.1356 23.58C35.429 23.8733 35.7623 24.1 36.1356 24.26C36.5223 24.42 36.9356 24.5 37.3756 24.5ZM46.9744 28V14H60.5144V28H55.8744V16.66L56.8944 17.66H50.5944L51.6144 16.66V28H46.9744ZM64.11 24.34C64.9367 24.5533 65.5833 24.6267 66.05 24.56C66.5167 24.48 66.93 24.1933 67.29 23.7L67.97 22.74L68.37 22.3L72.43 14H76.99L71.37 24.54C70.7567 25.6867 70.0167 26.58 69.15 27.22C68.2967 27.8467 67.35 28.2067 66.31 28.3C65.27 28.3933 64.17 28.2067 63.01 27.74L64.11 24.34ZM68.31 26L61.79 14H66.77L70.87 22.74L68.31 26ZM78.7175 28.26C78.4242 28.26 78.1108 28.24 77.7775 28.2C77.4442 28.16 77.0908 28.0933 76.7175 28L76.9575 24.22C77.1442 24.26 77.3175 24.28 77.4775 24.28C77.9975 24.28 78.3842 24.0667 78.6375 23.64C78.8908 23.2133 79.0642 22.64 79.1575 21.92C79.2508 21.1867 79.3108 20.3667 79.3375 19.46L79.5175 14H91.3375V28H86.6975V16.66L87.7175 17.66H82.6175L83.5375 16.6L83.4575 19.28C83.4175 20.6267 83.3242 21.8533 83.1775 22.96C83.0442 24.0533 82.8108 25 82.4775 25.8C82.1442 26.5867 81.6708 27.1933 81.0575 27.62C80.4575 28.0467 79.6775 28.26 78.7175 28.26ZM101.45 28V23.74L102.55 24.68H99.3303C98.037 24.68 96.917 24.4733 95.9703 24.06C95.037 23.6333 94.317 23.0267 93.8103 22.24C93.3036 21.4533 93.0503 20.5133 93.0503 19.42C93.0503 18.3 93.3103 17.34 93.8303 16.54C94.3636 15.7267 95.117 15.1 96.0903 14.66C97.0636 14.22 98.2103 14 99.5303 14H106.09V28H101.45ZM93.1103 28L96.6303 22.9H101.33L98.0503 28H93.1103ZM101.45 22.26V16.5L102.55 17.64H99.6103C99.0103 17.64 98.557 17.78 98.2503 18.06C97.957 18.34 97.8103 18.7667 97.8103 19.34C97.8103 19.9267 97.9636 20.3733 98.2703 20.68C98.577 20.9733 99.0236 21.12 99.6103 21.12H102.55L101.45 22.26ZM108.576 28V14H115.316C116.623 14 117.749 14.2133 118.696 14.64C119.656 15.0667 120.396 15.68 120.916 16.48C121.436 17.2667 121.696 18.2 121.696 19.28C121.696 20.36 121.436 21.2933 120.916 22.08C120.396 22.8667 119.656 23.48 118.696 23.92C117.749 24.3467 116.623 24.56 115.316 24.56H111.196L113.296 22.54V28H108.576ZM113.296 23.06L111.196 20.92H115.016C115.669 20.92 116.149 20.7733 116.456 20.48C116.776 20.1867 116.936 19.7867 116.936 19.28C116.936 18.7733 116.776 18.3733 116.456 18.08C116.149 17.7867 115.669 17.64 115.016 17.64H111.196L113.296 15.5V23.06ZM132.207 14H136.927V28H132.207V14ZM127.847 28H123.127V14H127.847V28ZM132.527 22.84H127.527V18.96H132.527V22.84ZM146.956 18.3C148.662 18.3 149.996 18.6867 150.956 19.46C151.929 20.22 152.416 21.3733 152.416 22.92C152.416 24.5867 151.869 25.8533 150.776 26.72C149.682 27.5733 148.209 28 146.356 28H139.416V14H144.056V18.3H146.956ZM146.036 24.7C146.502 24.7 146.889 24.5533 147.196 24.26C147.516 23.9533 147.676 23.5333 147.676 23C147.676 22.4667 147.516 22.1 147.196 21.9C146.889 21.7 146.502 21.6 146.036 21.6H144.056V24.7H146.036ZM153.696 28V14H158.336V28H153.696ZM160.822 28V14H165.462V21.28L170.282 14H174.722V28H170.082V20.74L165.282 28H160.822ZM167.762 13.2C166.175 13.2 165.049 12.9067 164.382 12.32C163.729 11.72 163.402 10.8667 163.402 9.76H166.542C166.542 10.2 166.629 10.5267 166.802 10.74C166.989 10.94 167.309 11.04 167.762 11.04C168.229 11.04 168.555 10.94 168.742 10.74C168.929 10.5267 169.022 10.2 169.022 9.76H172.162C172.162 10.8667 171.822 11.72 171.142 12.32C170.475 12.9067 169.349 13.2 167.762 13.2Z" fill="#C42733"/>
<path d="M18.61 42.59H14.21C14.25 43.1367 14.46 43.58 14.84 43.92C15.22 44.2533 15.7 44.42 16.28 44.42C16.6067 44.42 16.9067 44.3633 17.18 44.25C17.4533 44.13 17.69 43.9567 17.89 43.73L18.29 44.19C18.0567 44.47 17.7633 44.6833 17.41 44.83C17.0633 44.9767 16.68 45.05 16.26 45.05C15.72 45.05 15.24 44.9367 14.82 44.71C14.4067 44.4767 14.0833 44.1567 13.85 43.75C13.6167 43.3433 13.5 42.8833 13.5 42.37C13.5 41.8567 13.61 41.3967 13.83 40.99C14.0567 40.5833 14.3633 40.2667 14.75 40.04C15.1433 39.8133 15.5833 39.7 16.07 39.7C16.5567 39.7 16.9933 39.8133 17.38 40.04C17.7667 40.2667 18.07 40.5833 18.29 40.99C18.51 41.39 18.62 41.85 18.62 42.37L18.61 42.59ZM16.07 40.31C15.5633 40.31 15.1367 40.4733 14.79 40.8C14.45 41.12 14.2567 41.54 14.21 42.06H17.94C17.8933 41.54 17.6967 41.12 17.35 40.8C17.01 40.4733 16.5833 40.31 16.07 40.31ZM23.9116 40.37H20.9016V45H20.1916V39.74H23.9116V40.37ZM26.8636 45.05C26.3569 45.05 25.9003 44.9367 25.4936 44.71C25.0869 44.4767 24.7669 44.1567 24.5336 43.75C24.3003 43.3433 24.1836 42.8833 24.1836 42.37C24.1836 41.8567 24.3003 41.3967 24.5336 40.99C24.7669 40.5833 25.0869 40.2667 25.4936 40.04C25.9003 39.8133 26.3569 39.7 26.8636 39.7C27.3703 39.7 27.8269 39.8133 28.2336 40.04C28.6403 40.2667 28.9569 40.5833 29.1836 40.99C29.4169 41.3967 29.5336 41.8567 29.5336 42.37C29.5336 42.8833 29.4169 43.3433 29.1836 43.75C28.9569 44.1567 28.6403 44.4767 28.2336 44.71C27.8269 44.9367 27.3703 45.05 26.8636 45.05ZM26.8636 44.42C27.2369 44.42 27.5703 44.3367 27.8636 44.17C28.1636 43.9967 28.3969 43.7533 28.5636 43.44C28.7303 43.1267 28.8136 42.77 28.8136 42.37C28.8136 41.97 28.7303 41.6133 28.5636 41.3C28.3969 40.9867 28.1636 40.7467 27.8636 40.58C27.5703 40.4067 27.2369 40.32 26.8636 40.32C26.4903 40.32 26.1536 40.4067 25.8536 40.58C25.5603 40.7467 25.3269 40.9867 25.1536 41.3C24.9869 41.6133 24.9036 41.97 24.9036 42.37C24.9036 42.77 24.9869 43.1267 25.1536 43.44C25.3269 43.7533 25.5603 43.9967 25.8536 44.17C26.1536 44.3367 26.4903 44.42 26.8636 44.42ZM33.6682 39.74H34.3782V43.92L37.8882 39.74H38.5182V45H37.8082V40.82L34.3082 45H33.6682V39.74ZM42.753 45.05C42.233 45.05 41.7663 44.9367 41.353 44.71C40.9463 44.4833 40.6263 44.1667 40.393 43.76C40.1596 43.3467 40.043 42.8833 40.043 42.37C40.043 41.8567 40.1596 41.3967 40.393 40.99C40.6263 40.5833 40.9463 40.2667 41.353 40.04C41.7663 39.8133 42.233 39.7 42.753 39.7C43.2063 39.7 43.6096 39.79 43.963 39.97C44.323 40.1433 44.6063 40.4 44.813 40.74L44.283 41.1C44.1096 40.84 43.8896 40.6467 43.623 40.52C43.3563 40.3867 43.0663 40.32 42.753 40.32C42.373 40.32 42.0296 40.4067 41.723 40.58C41.423 40.7467 41.1863 40.9867 41.013 41.3C40.8463 41.6133 40.763 41.97 40.763 42.37C40.763 42.7767 40.8463 43.1367 41.013 43.45C41.1863 43.7567 41.423 43.9967 41.723 44.17C42.0296 44.3367 42.373 44.42 42.753 44.42C43.0663 44.42 43.3563 44.3567 43.623 44.23C43.8896 44.1033 44.1096 43.91 44.283 43.65L44.813 44.01C44.6063 44.35 44.323 44.61 43.963 44.79C43.603 44.9633 43.1996 45.05 42.753 45.05ZM50.9077 39.74V45H50.1977V40.37H46.8977V45H46.1877V39.74H50.9077ZM55.096 45.05C54.5893 45.05 54.1327 44.9367 53.726 44.71C53.3193 44.4767 52.9993 44.1567 52.766 43.75C52.5327 43.3433 52.416 42.8833 52.416 42.37C52.416 41.8567 52.5327 41.3967 52.766 40.99C52.9993 40.5833 53.3193 40.2667 53.726 40.04C54.1327 39.8133 54.5893 39.7 55.096 39.7C55.6027 39.7 56.0593 39.8133 56.466 40.04C56.8727 40.2667 57.1893 40.5833 57.416 40.99C57.6493 41.3967 57.766 41.8567 57.766 42.37C57.766 42.8833 57.6493 43.3433 57.416 43.75C57.1893 44.1567 56.8727 44.4767 56.466 44.71C56.0593 44.9367 55.6027 45.05 55.096 45.05ZM55.096 44.42C55.4693 44.42 55.8027 44.3367 56.096 44.17C56.396 43.9967 56.6293 43.7533 56.796 43.44C56.9627 43.1267 57.046 42.77 57.046 42.37C57.046 41.97 56.9627 41.6133 56.796 41.3C56.6293 40.9867 56.396 40.7467 56.096 40.58C55.8027 40.4067 55.4693 40.32 55.096 40.32C54.7227 40.32 54.386 40.4067 54.086 40.58C53.7927 40.7467 53.5593 40.9867 53.386 41.3C53.2193 41.6133 53.136 41.97 53.136 42.37C53.136 42.77 53.2193 43.1267 53.386 43.44C53.5593 43.7533 53.7927 43.9967 54.086 44.17C54.386 44.3367 54.7227 44.42 55.096 44.42ZM63.5541 39.74V45H62.8441V40.37H60.3241L60.2541 41.67C60.2008 42.7633 60.0741 43.6033 59.8741 44.19C59.6741 44.7767 59.3175 45.07 58.8041 45.07C58.6641 45.07 58.4941 45.0433 58.2941 44.99L58.3441 44.38C58.4641 44.4067 58.5475 44.42 58.5941 44.42C58.8675 44.42 59.0741 44.2933 59.2141 44.04C59.3541 43.7867 59.4475 43.4733 59.4941 43.1C59.5408 42.7267 59.5808 42.2333 59.6141 41.62L59.7041 39.74H63.5541ZM67.8325 41.6C68.4925 41.6067 68.9925 41.7533 69.3325 42.04C69.6792 42.3267 69.8525 42.74 69.8525 43.28C69.8525 43.84 69.6658 44.27 69.2925 44.57C68.9258 44.87 68.3925 45.0167 67.6925 45.01L65.5725 45V39.74H66.2825V41.58L67.8325 41.6ZM67.6525 44.47C68.1392 44.4767 68.5058 44.38 68.7525 44.18C69.0058 43.9733 69.1325 43.6733 69.1325 43.28C69.1325 42.8933 69.0092 42.6067 68.7625 42.42C68.5158 42.2333 68.1458 42.1367 67.6525 42.13L66.2825 42.11V44.45L67.6525 44.47ZM73.7184 42.26C74.0918 42.3467 74.3784 42.4967 74.5784 42.71C74.7851 42.9233 74.8884 43.1833 74.8884 43.49C74.8884 43.7967 74.7818 44.07 74.5684 44.31C74.3618 44.55 74.0784 44.7367 73.7184 44.87C73.3584 44.9967 72.9618 45.06 72.5284 45.06C72.1484 45.06 71.7751 45.0067 71.4084 44.9C71.0418 44.7867 70.7218 44.6233 70.4484 44.41L70.6884 43.88C70.9284 44.06 71.2084 44.2 71.5284 44.3C71.8484 44.4 72.1718 44.45 72.4984 44.45C72.9851 44.45 73.3818 44.36 73.6884 44.18C74.0018 43.9933 74.1584 43.7433 74.1584 43.43C74.1584 43.15 74.0318 42.9333 73.7784 42.78C73.5251 42.62 73.1784 42.54 72.7384 42.54H71.8384V42.02H72.6984C73.0918 42.02 73.4084 41.9467 73.6484 41.8C73.8884 41.6467 74.0084 41.4433 74.0084 41.19C74.0084 40.91 73.8718 40.69 73.5984 40.53C73.3318 40.37 72.9818 40.29 72.5484 40.29C71.9818 40.29 71.4218 40.4333 70.8684 40.72L70.6684 40.17C71.2951 39.8433 71.9451 39.68 72.6184 39.68C73.0184 39.68 73.3784 39.74 73.6984 39.86C74.0251 39.9733 74.2784 40.1367 74.4584 40.35C74.6451 40.5633 74.7384 40.81 74.7384 41.09C74.7384 41.3567 74.6451 41.5933 74.4584 41.8C74.2784 42.0067 74.0318 42.16 73.7184 42.26ZM78.6702 45.05C78.1636 45.05 77.7069 44.9367 77.3002 44.71C76.8936 44.4767 76.5736 44.1567 76.3402 43.75C76.1069 43.3433 75.9902 42.8833 75.9902 42.37C75.9902 41.8567 76.1069 41.3967 76.3402 40.99C76.5736 40.5833 76.8936 40.2667 77.3002 40.04C77.7069 39.8133 78.1636 39.7 78.6702 39.7C79.1769 39.7 79.6336 39.8133 80.0402 40.04C80.4469 40.2667 80.7636 40.5833 80.9902 40.99C81.2236 41.3967 81.3402 41.8567 81.3402 42.37C81.3402 42.8833 81.2236 43.3433 80.9902 43.75C80.7636 44.1567 80.4469 44.4767 80.0402 44.71C79.6336 44.9367 79.1769 45.05 78.6702 45.05ZM78.6702 44.42C79.0436 44.42 79.3769 44.3367 79.6702 44.17C79.9702 43.9967 80.2036 43.7533 80.3702 43.44C80.5369 43.1267 80.6202 42.77 80.6202 42.37C80.6202 41.97 80.5369 41.6133 80.3702 41.3C80.2036 40.9867 79.9702 40.7467 79.6702 40.58C79.3769 40.4067 79.0436 40.32 78.6702 40.32C78.2969 40.32 77.9602 40.4067 77.6602 40.58C77.3669 40.7467 77.1336 40.9867 76.9602 41.3C76.7936 41.6133 76.7102 41.97 76.7102 42.37C76.7102 42.77 76.7936 43.1267 76.9602 43.44C77.1336 43.7533 77.3669 43.9967 77.6602 44.17C77.9602 44.3367 78.2969 44.42 78.6702 44.42ZM86.2077 42.28C86.921 42.4467 87.2777 42.8767 87.2777 43.57C87.2777 44.03 87.1077 44.3833 86.7677 44.63C86.4277 44.8767 85.921 45 85.2477 45H82.8577V39.74H85.1777C85.7777 39.74 86.2477 39.8567 86.5877 40.09C86.9277 40.3233 87.0977 40.6567 87.0977 41.09C87.0977 41.3767 87.0177 41.6233 86.8577 41.83C86.7043 42.03 86.4877 42.18 86.2077 42.28ZM83.5477 42.08H85.1277C85.5343 42.08 85.8443 42.0033 86.0577 41.85C86.2777 41.6967 86.3877 41.4733 86.3877 41.18C86.3877 40.8867 86.2777 40.6667 86.0577 40.52C85.8443 40.3733 85.5343 40.3 85.1277 40.3H83.5477V42.08ZM85.2177 44.44C85.671 44.44 86.011 44.3667 86.2377 44.22C86.4643 44.0733 86.5777 43.8433 86.5777 43.53C86.5777 43.2167 86.4743 42.9867 86.2677 42.84C86.061 42.6867 85.7343 42.61 85.2877 42.61H83.5477V44.44H85.2177ZM90.7516 39.7C91.4383 39.7 91.965 39.8733 92.3316 40.22C92.6983 40.56 92.8816 41.0667 92.8816 41.74V45H92.2016V44.18C92.0416 44.4533 91.805 44.6667 91.4916 44.82C91.185 44.9733 90.8183 45.05 90.3916 45.05C89.805 45.05 89.3383 44.91 88.9916 44.63C88.645 44.35 88.4716 43.98 88.4716 43.52C88.4716 43.0733 88.6316 42.7133 88.9516 42.44C89.2783 42.1667 89.795 42.03 90.5016 42.03H92.1716V41.71C92.1716 41.2567 92.045 40.9133 91.7916 40.68C91.5383 40.44 91.1683 40.32 90.6816 40.32C90.3483 40.32 90.0283 40.3767 89.7216 40.49C89.415 40.5967 89.1516 40.7467 88.9316 40.94L88.6116 40.41C88.8783 40.1833 89.1983 40.01 89.5716 39.89C89.945 39.7633 90.3383 39.7 90.7516 39.7ZM90.5016 44.49C90.9016 44.49 91.245 44.4 91.5316 44.22C91.8183 44.0333 92.0316 43.7667 92.1716 43.42V42.56H90.5216C89.6216 42.56 89.1716 42.8733 89.1716 43.5C89.1716 43.8067 89.2883 44.05 89.5216 44.23C89.755 44.4033 90.0816 44.49 90.5016 44.49ZM99.0717 39.74V45H98.3617V40.37H95.8417L95.7717 41.67C95.7184 42.7633 95.5917 43.6033 95.3917 44.19C95.1917 44.7767 94.8351 45.07 94.3217 45.07C94.1817 45.07 94.0117 45.0433 93.8117 44.99L93.8617 44.38C93.9817 44.4067 94.0651 44.42 94.1117 44.42C94.3851 44.42 94.5917 44.2933 94.7317 44.04C94.8717 43.7867 94.9651 43.4733 95.0117 43.1C95.0584 42.7267 95.0984 42.2333 95.1317 41.62L95.2217 39.74H99.0717ZM101.09 39.74H101.8V43.92L105.31 39.74H105.94V45H105.23V40.82L101.73 45H101.09V39.74ZM14.01 51.74H14.72V54.07H18.03V51.74H18.74V57H18.03V54.68H14.72V57H14.01V51.74ZM22.568 51.7C23.2547 51.7 23.7814 51.8733 24.148 52.22C24.5147 52.56 24.698 53.0667 24.698 53.74V57H24.018V56.18C23.858 56.4533 23.6214 56.6667 23.308 56.82C23.0014 56.9733 22.6347 57.05 22.208 57.05C21.6214 57.05 21.1547 56.91 20.808 56.63C20.4614 56.35 20.288 55.98 20.288 55.52C20.288 55.0733 20.448 54.7133 20.768 54.44C21.0947 54.1667 21.6114 54.03 22.318 54.03H23.988V53.71C23.988 53.2567 23.8614 52.9133 23.608 52.68C23.3547 52.44 22.9847 52.32 22.498 52.32C22.1647 52.32 21.8447 52.3767 21.538 52.49C21.2314 52.5967 20.968 52.7467 20.748 52.94L20.428 52.41C20.6947 52.1833 21.0147 52.01 21.388 51.89C21.7614 51.7633 22.1547 51.7 22.568 51.7ZM22.318 56.49C22.718 56.49 23.0614 56.4 23.348 56.22C23.6347 56.0333 23.848 55.7667 23.988 55.42V54.56H22.338C21.438 54.56 20.988 54.8733 20.988 55.5C20.988 55.8067 21.1047 56.05 21.338 56.23C21.5714 56.4033 21.898 56.49 22.318 56.49ZM30.6553 50V57H29.9353V50.64H28.2853V50H30.6553ZM34.1686 52.87C35.1819 52.87 35.9186 53.0533 36.3786 53.42C36.8453 53.78 37.0786 54.2867 37.0786 54.94C37.0786 55.3467 36.9819 55.71 36.7886 56.03C36.6019 56.35 36.3186 56.6033 35.9386 56.79C35.5586 56.97 35.0919 57.06 34.5386 57.06C34.0386 57.06 33.5619 56.98 33.1086 56.82C32.6619 56.6533 32.3019 56.4333 32.0286 56.16L32.3786 55.59C32.6119 55.83 32.9186 56.0267 33.2986 56.18C33.6786 56.3267 34.0886 56.4 34.5286 56.4C35.1086 56.4 35.5553 56.27 35.8686 56.01C36.1886 55.75 36.3486 55.4033 36.3486 54.97C36.3486 54.49 36.1686 54.1267 35.8086 53.88C35.4553 53.6333 34.8553 53.51 34.0086 53.51H32.5186L32.8786 50H36.7086V50.64H33.5086L33.2686 52.87H34.1686ZM46.9798 51.74V57H46.3298V52.84L44.1998 56.36H43.8798L41.7498 52.83V57H41.0998V51.74H41.8198L44.0498 55.53L46.3198 51.74H46.9798ZM53.3002 51.74V57H52.5902V52.37H50.0702L50.0002 53.67C49.9469 54.7633 49.8202 55.6033 49.6202 56.19C49.4202 56.7767 49.0636 57.07 48.5502 57.07C48.4102 57.07 48.2402 57.0433 48.0402 56.99L48.0902 56.38C48.2102 56.4067 48.2936 56.42 48.3402 56.42C48.6136 56.42 48.8202 56.2933 48.9602 56.04C49.1002 55.7867 49.1936 55.4733 49.2402 55.1C49.2869 54.7267 49.3269 54.2333 49.3602 53.62L49.4502 51.74H53.3002ZM55.3186 51.74H56.0286V54.07H59.3386V51.74H60.0486V57H59.3386V54.68H56.0286V57H55.3186V51.74ZM66.8838 57.05C66.3638 57.05 65.8972 56.9367 65.4838 56.71C65.0772 56.4833 64.7572 56.1667 64.5238 55.76C64.2905 55.3467 64.1738 54.8833 64.1738 54.37C64.1738 53.8567 64.2905 53.3967 64.5238 52.99C64.7572 52.5833 65.0772 52.2667 65.4838 52.04C65.8972 51.8133 66.3638 51.7 66.8838 51.7C67.3372 51.7 67.7405 51.79 68.0938 51.97C68.4538 52.1433 68.7372 52.4 68.9438 52.74L68.4138 53.1C68.2405 52.84 68.0205 52.6467 67.7538 52.52C67.4872 52.3867 67.1972 52.32 66.8838 52.32C66.5038 52.32 66.1605 52.4067 65.8538 52.58C65.5538 52.7467 65.3172 52.9867 65.1438 53.3C64.9772 53.6133 64.8938 53.97 64.8938 54.37C64.8938 54.7767 64.9772 55.1367 65.1438 55.45C65.3172 55.7567 65.5538 55.9967 65.8538 56.17C66.1605 56.3367 66.5038 56.42 66.8838 56.42C67.1972 56.42 67.4872 56.3567 67.7538 56.23C68.0205 56.1033 68.2405 55.91 68.4138 55.65L68.9438 56.01C68.7372 56.35 68.4538 56.61 68.0938 56.79C67.7338 56.9633 67.3305 57.05 66.8838 57.05ZM72.1286 51.7C72.8153 51.7 73.3419 51.8733 73.7086 52.22C74.0753 52.56 74.2586 53.0667 74.2586 53.74V57H73.5786V56.18C73.4186 56.4533 73.1819 56.6667 72.8686 56.82C72.5619 56.9733 72.1953 57.05 71.7686 57.05C71.1819 57.05 70.7153 56.91 70.3686 56.63C70.0219 56.35 69.8486 55.98 69.8486 55.52C69.8486 55.0733 70.0086 54.7133 70.3286 54.44C70.6553 54.1667 71.1719 54.03 71.8786 54.03H73.5486V53.71C73.5486 53.2567 73.4219 52.9133 73.1686 52.68C72.9153 52.44 72.5453 52.32 72.0586 52.32C71.7253 52.32 71.4053 52.3767 71.0986 52.49C70.7919 52.5967 70.5286 52.7467 70.3086 52.94L69.9886 52.41C70.2553 52.1833 70.5753 52.01 70.9486 51.89C71.3219 51.7633 71.7153 51.7 72.1286 51.7ZM71.8786 56.49C72.2786 56.49 72.6219 56.4 72.9086 56.22C73.1953 56.0333 73.4086 55.7667 73.5486 55.42V54.56H71.8986C70.9986 54.56 70.5486 54.8733 70.5486 55.5C70.5486 55.8067 70.6653 56.05 70.8986 56.23C71.1319 56.4033 71.4586 56.49 71.8786 56.49ZM76.1487 51.74H76.8587V55.92L80.3687 51.74H80.9987V57H80.2887V52.82L76.7887 57H76.1487V51.74ZM78.5387 50.98C78.0853 50.98 77.7253 50.8667 77.4587 50.64C77.192 50.4133 77.0553 50.0933 77.0487 49.68H77.5587C77.5653 49.94 77.6587 50.15 77.8387 50.31C78.0187 50.4633 78.252 50.54 78.5387 50.54C78.8253 50.54 79.0587 50.4633 79.2387 50.31C79.4253 50.15 79.522 49.94 79.5287 49.68H80.0387C80.032 50.0933 79.892 50.4133 79.6187 50.64C79.352 50.8667 78.992 50.98 78.5387 50.98ZM86.7334 52.37H84.7434V57H84.0334V52.37H82.0434V51.74H86.7334V52.37ZM89.6859 57.05C89.1792 57.05 88.7225 56.9367 88.3159 56.71C87.9092 56.4767 87.5892 56.1567 87.3559 55.75C87.1225 55.3433 87.0059 54.8833 87.0059 54.37C87.0059 53.8567 87.1225 53.3967 87.3559 52.99C87.5892 52.5833 87.9092 52.2667 88.3159 52.04C88.7225 51.8133 89.1792 51.7 89.6859 51.7C90.1925 51.7 90.6492 51.8133 91.0559 52.04C91.4625 52.2667 91.7792 52.5833 92.0059 52.99C92.2392 53.3967 92.3559 53.8567 92.3559 54.37C92.3559 54.8833 92.2392 55.3433 92.0059 55.75C91.7792 56.1567 91.4625 56.4767 91.0559 56.71C90.6492 56.9367 90.1925 57.05 89.6859 57.05ZM89.6859 56.42C90.0592 56.42 90.3925 56.3367 90.6859 56.17C90.9859 55.9967 91.2192 55.7533 91.3859 55.44C91.5525 55.1267 91.6359 54.77 91.6359 54.37C91.6359 53.97 91.5525 53.6133 91.3859 53.3C91.2192 52.9867 90.9859 52.7467 90.6859 52.58C90.3925 52.4067 90.0592 52.32 89.6859 52.32C89.3125 52.32 88.9759 52.4067 88.6759 52.58C88.3825 52.7467 88.1492 52.9867 87.9759 53.3C87.8092 53.6133 87.7259 53.97 87.7259 54.37C87.7259 54.77 87.8092 55.1267 87.9759 55.44C88.1492 55.7533 88.3825 55.9967 88.6759 56.17C88.9759 56.3367 89.3125 56.42 89.6859 56.42ZM97.2233 54.28C97.9366 54.4467 98.2933 54.8767 98.2933 55.57C98.2933 56.03 98.1233 56.3833 97.7833 56.63C97.4433 56.8767 96.9366 57 96.2633 57H93.8733V51.74H96.1933C96.7933 51.74 97.2633 51.8567 97.6033 52.09C97.9433 52.3233 98.1133 52.6567 98.1133 53.09C98.1133 53.3767 98.0333 53.6233 97.8733 53.83C97.7199 54.03 97.5033 54.18 97.2233 54.28ZM94.5633 54.08H96.1433C96.5499 54.08 96.8599 54.0033 97.0733 53.85C97.2933 53.6967 97.4033 53.4733 97.4033 53.18C97.4033 52.8867 97.2933 52.6667 97.0733 52.52C96.8599 52.3733 96.5499 52.3 96.1433 52.3H94.5633V54.08ZM96.2333 56.44C96.6866 56.44 97.0266 56.3667 97.2533 56.22C97.4799 56.0733 97.5933 55.8433 97.5933 55.53C97.5933 55.2167 97.4899 54.9867 97.2833 54.84C97.0766 54.6867 96.7499 54.61 96.3033 54.61H94.5633V56.44H96.2333Z" fill="white"/>
<path d="M26.5 117L30 110L32 117L36 111.5L39.5 118.5L46.5 115.5V122.5H57.5L52 129L67 136L55 139L59 146.5L51 148L55 153.5H48L46.5 161L39.5 158L36 163.5L32 156L25 161V156L16.5 161L20 150.5L4 152L9.5 148L4 143.5L9.5 141L7 129H13.5V122.5H16.5L15 114.5L20 117L23 114.5L26.5 117Z" fill="white" stroke="#C42733"/>
<path d="M18.708 275.048H15.572V283H13.332V275.048H10.21V273.2H18.708V275.048ZM22.7264 283.112C21.9331 283.112 21.2191 282.949 20.5844 282.622C19.9591 282.286 19.4691 281.824 19.1144 281.236C18.7598 280.648 18.5824 279.981 18.5824 279.234C18.5824 278.487 18.7598 277.82 19.1144 277.232C19.4691 276.644 19.9591 276.187 20.5844 275.86C21.2191 275.524 21.9331 275.356 22.7264 275.356C23.5198 275.356 24.2291 275.524 24.8544 275.86C25.4798 276.187 25.9698 276.644 26.3244 277.232C26.6791 277.82 26.8564 278.487 26.8564 279.234C26.8564 279.981 26.6791 280.648 26.3244 281.236C25.9698 281.824 25.4798 282.286 24.8544 282.622C24.2291 282.949 23.5198 283.112 22.7264 283.112ZM22.7264 281.32C23.2864 281.32 23.7438 281.133 24.0984 280.76C24.4624 280.377 24.6444 279.869 24.6444 279.234C24.6444 278.599 24.4624 278.095 24.0984 277.722C23.7438 277.339 23.2864 277.148 22.7264 277.148C22.1664 277.148 21.7044 277.339 21.3404 277.722C20.9764 278.095 20.7944 278.599 20.7944 279.234C20.7944 279.869 20.9764 280.377 21.3404 280.76C21.7044 281.133 22.1664 281.32 22.7264 281.32ZM35.8486 275.468V283H33.6646V277.26H30.5286V283H28.3586V275.468H35.8486ZM45.9814 277.19C46.8401 277.33 47.4981 277.652 47.9554 278.156C48.4128 278.651 48.6414 279.267 48.6414 280.004C48.6414 280.573 48.4921 281.101 48.1934 281.586C47.8948 282.062 47.4374 282.445 46.8214 282.734C46.2148 283.023 45.4681 283.168 44.5814 283.168C43.8908 283.168 43.2094 283.079 42.5374 282.902C41.8748 282.715 41.3101 282.454 40.8434 282.118L41.7254 280.382C42.0988 280.662 42.5281 280.881 43.0134 281.04C43.5081 281.189 44.0121 281.264 44.5254 281.264C45.0948 281.264 45.5428 281.157 45.8694 280.942C46.1961 280.718 46.3594 280.405 46.3594 280.004C46.3594 279.201 45.7481 278.8 44.5254 278.8H43.4894V277.302L45.5054 275.02H41.3334V273.2H48.1934V274.67L45.9814 277.19ZM59.9114 279.066C60.7981 279.365 61.2414 279.962 61.2414 280.858C61.2414 281.539 60.9848 282.067 60.4714 282.44C59.9581 282.813 59.1928 283 58.1754 283H54.1574V275.468H58.0074C58.9501 275.468 59.6874 275.641 60.2194 275.986C60.7514 276.322 61.0174 276.798 61.0174 277.414C61.0174 277.787 60.9194 278.119 60.7234 278.408C60.5368 278.688 60.2661 278.907 59.9114 279.066ZM56.1594 278.562H57.8114C58.5768 278.562 58.9594 278.291 58.9594 277.75C58.9594 277.218 58.5768 276.952 57.8114 276.952H56.1594V278.562ZM57.9934 281.516C58.7961 281.516 59.1974 281.241 59.1974 280.69C59.1974 280.401 59.1041 280.191 58.9174 280.06C58.7308 279.92 58.4368 279.85 58.0354 279.85H56.1594V281.516H57.9934ZM73.5653 277.946H75.6373V281.922C75.1053 282.323 74.4893 282.631 73.7893 282.846C73.0893 283.061 72.3846 283.168 71.6753 283.168C70.6579 283.168 69.7433 282.953 68.9313 282.524C68.1193 282.085 67.4799 281.483 67.0133 280.718C66.5559 279.943 66.3273 279.071 66.3273 278.1C66.3273 277.129 66.5559 276.261 67.0133 275.496C67.4799 274.721 68.1239 274.119 68.9453 273.69C69.7666 273.251 70.6906 273.032 71.7173 273.032C72.5759 273.032 73.3553 273.177 74.0553 273.466C74.7553 273.755 75.3433 274.175 75.8193 274.726L74.3633 276.07C73.6633 275.333 72.8186 274.964 71.8293 274.964C71.2039 274.964 70.6486 275.095 70.1633 275.356C69.6779 275.617 69.2999 275.986 69.0293 276.462C68.7586 276.938 68.6233 277.484 68.6233 278.1C68.6233 278.707 68.7586 279.248 69.0293 279.724C69.2999 280.2 69.6733 280.573 70.1493 280.844C70.6346 281.105 71.1853 281.236 71.8013 281.236C72.4546 281.236 73.0426 281.096 73.5653 280.816V277.946ZM82.49 283.168C81.4727 283.168 80.5534 282.949 79.732 282.51C78.92 282.071 78.2807 281.469 77.814 280.704C77.3567 279.929 77.128 279.061 77.128 278.1C77.128 277.139 77.3567 276.275 77.814 275.51C78.2807 274.735 78.92 274.129 79.732 273.69C80.5534 273.251 81.4727 273.032 82.49 273.032C83.5074 273.032 84.422 273.251 85.234 273.69C86.046 274.129 86.6854 274.735 87.152 275.51C87.6187 276.275 87.852 277.139 87.852 278.1C87.852 279.061 87.6187 279.929 87.152 280.704C86.6854 281.469 86.046 282.071 85.234 282.51C84.422 282.949 83.5074 283.168 82.49 283.168ZM82.49 281.236C83.0687 281.236 83.5914 281.105 84.058 280.844C84.5247 280.573 84.8887 280.2 85.15 279.724C85.4207 279.248 85.556 278.707 85.556 278.1C85.556 277.493 85.4207 276.952 85.15 276.476C84.8887 276 84.5247 275.631 84.058 275.37C83.5914 275.099 83.0687 274.964 82.49 274.964C81.9114 274.964 81.3887 275.099 80.922 275.37C80.4554 275.631 80.0867 276 79.816 276.476C79.5547 276.952 79.424 277.493 79.424 278.1C79.424 278.707 79.5547 279.248 79.816 279.724C80.0867 280.2 80.4554 280.573 80.922 280.844C81.3887 281.105 81.9114 281.236 82.49 281.236ZM94.3025 283.168C93.2852 283.168 92.3659 282.949 91.5445 282.51C90.7325 282.071 90.0932 281.469 89.6265 280.704C89.1692 279.929 88.9405 279.061 88.9405 278.1C88.9405 277.139 89.1692 276.275 89.6265 275.51C90.0932 274.735 90.7325 274.129 91.5445 273.69C92.3659 273.251 93.2852 273.032 94.3025 273.032C95.3199 273.032 96.2345 273.251 97.0465 273.69C97.8585 274.129 98.4979 274.735 98.9645 275.51C99.4312 276.275 99.6645 277.139 99.6645 278.1C99.6645 279.061 99.4312 279.929 98.9645 280.704C98.4979 281.469 97.8585 282.071 97.0465 282.51C96.2345 282.949 95.3199 283.168 94.3025 283.168ZM94.3025 281.236C94.8812 281.236 95.4039 281.105 95.8705 280.844C96.3372 280.573 96.7012 280.2 96.9625 279.724C97.2332 279.248 97.3685 278.707 97.3685 278.1C97.3685 277.493 97.2332 276.952 96.9625 276.476C96.7012 276 96.3372 275.631 95.8705 275.37C95.4039 275.099 94.8812 274.964 94.3025 274.964C93.7239 274.964 93.2012 275.099 92.7345 275.37C92.2679 275.631 91.8992 276 91.6285 276.476C91.3672 276.952 91.2365 277.493 91.2365 278.1C91.2365 278.707 91.3672 279.248 91.6285 279.724C91.8992 280.2 92.2679 280.573 92.7345 280.844C93.2012 281.105 93.7239 281.236 94.3025 281.236ZM107.991 277.946H110.063V281.922C109.531 282.323 108.915 282.631 108.215 282.846C107.515 283.061 106.81 283.168 106.101 283.168C105.084 283.168 104.169 282.953 103.357 282.524C102.545 282.085 101.906 281.483 101.439 280.718C100.982 279.943 100.753 279.071 100.753 278.1C100.753 277.129 100.982 276.261 101.439 275.496C101.906 274.721 102.55 274.119 103.371 273.69C104.192 273.251 105.116 273.032 106.143 273.032C107.002 273.032 107.781 273.177 108.481 273.466C109.181 273.755 109.769 274.175 110.245 274.726L108.789 276.07C108.089 275.333 107.244 274.964 106.255 274.964C105.63 274.964 105.074 275.095 104.589 275.356C104.104 275.617 103.726 275.986 103.455 276.462C103.184 276.938 103.049 277.484 103.049 278.1C103.049 278.707 103.184 279.248 103.455 279.724C103.726 280.2 104.099 280.573 104.575 280.844C105.06 281.105 105.611 281.236 106.227 281.236C106.88 281.236 107.468 281.096 107.991 280.816V277.946ZM112.17 273.2H114.438V281.152H119.352V283H112.17V273.2ZM128.207 281.18V283H120.619V273.2H128.025V275.02H122.873V277.148H127.423V278.912H122.873V281.18H128.207ZM136.244 275.02V277.61H140.78V279.43H136.244V283H133.976V273.2H141.382V275.02H136.244ZM147.568 283.168C146.551 283.168 145.631 282.949 144.81 282.51C143.998 282.071 143.359 281.469 142.892 280.704C142.435 279.929 142.206 279.061 142.206 278.1C142.206 277.139 142.435 276.275 142.892 275.51C143.359 274.735 143.998 274.129 144.81 273.69C145.631 273.251 146.551 273.032 147.568 273.032C148.585 273.032 149.5 273.251 150.312 273.69C151.124 274.129 151.763 274.735 152.23 275.51C152.697 276.275 152.93 277.139 152.93 278.1C152.93 279.061 152.697 279.929 152.23 280.704C151.763 281.469 151.124 282.071 150.312 282.51C149.5 282.949 148.585 283.168 147.568 283.168ZM147.568 281.236C148.147 281.236 148.669 281.105 149.136 280.844C149.603 280.573 149.967 280.2 150.228 279.724C150.499 279.248 150.634 278.707 150.634 278.1C150.634 277.493 150.499 276.952 150.228 276.476C149.967 276 149.603 275.631 149.136 275.37C148.669 275.099 148.147 274.964 147.568 274.964C146.989 274.964 146.467 275.099 146 275.37C145.533 275.631 145.165 276 144.894 276.476C144.633 276.952 144.502 277.493 144.502 278.1C144.502 278.707 144.633 279.248 144.894 279.724C145.165 280.2 145.533 280.573 146 280.844C146.467 281.105 146.989 281.236 147.568 281.236ZM163.623 273.2V283H161.761L156.875 277.05V283H154.635V273.2H156.511L161.383 279.15V273.2H163.623ZM167.971 275.048H164.835V273.2H173.375V275.048H170.239V283H167.971V275.048ZM177.747 283.168C176.973 283.168 176.221 283.065 175.493 282.86C174.775 282.645 174.196 282.37 173.757 282.034L174.527 280.326C174.947 280.634 175.447 280.881 176.025 281.068C176.604 281.255 177.183 281.348 177.761 281.348C178.405 281.348 178.881 281.255 179.189 281.068C179.497 280.872 179.651 280.615 179.651 280.298C179.651 280.065 179.558 279.873 179.371 279.724C179.194 279.565 178.961 279.439 178.671 279.346C178.391 279.253 178.009 279.15 177.523 279.038C176.777 278.861 176.165 278.683 175.689 278.506C175.213 278.329 174.803 278.044 174.457 277.652C174.121 277.26 173.953 276.737 173.953 276.084C173.953 275.515 174.107 275.001 174.415 274.544C174.723 274.077 175.185 273.709 175.801 273.438C176.427 273.167 177.187 273.032 178.083 273.032C178.709 273.032 179.32 273.107 179.917 273.256C180.515 273.405 181.037 273.62 181.485 273.9L180.785 275.622C179.88 275.109 178.975 274.852 178.069 274.852C177.435 274.852 176.963 274.955 176.655 275.16C176.357 275.365 176.207 275.636 176.207 275.972C176.207 276.308 176.38 276.56 176.725 276.728C177.08 276.887 177.617 277.045 178.335 277.204C179.082 277.381 179.693 277.559 180.169 277.736C180.645 277.913 181.051 278.193 181.387 278.576C181.733 278.959 181.905 279.477 181.905 280.13C181.905 280.69 181.747 281.203 181.429 281.67C181.121 282.127 180.655 282.491 180.029 282.762C179.404 283.033 178.643 283.168 177.747 283.168Z" fill="white"/>
<path d="M32.6 137.067C32.0262 137.117 31.5011 137.05 31.0246 136.867C30.5482 136.684 30.1594 136.402 29.8584 136.022C29.568 135.64 29.401 135.2 29.3572 134.7C29.3135 134.201 29.4015 133.738 29.6211 133.312C29.8514 132.885 30.1852 132.54 30.6226 132.277C31.06 132.014 31.5656 131.857 32.1394 131.807C32.7132 131.756 33.2383 131.823 33.7148 132.006C34.1912 132.189 34.5747 132.471 34.8651 132.853C35.1661 133.233 35.3384 133.673 35.3822 134.173C35.4259 134.672 35.3327 135.135 35.1024 135.563C34.8827 135.989 34.5542 136.333 34.1168 136.596C33.6794 136.86 33.1738 137.016 32.6 137.067ZM25.4243 132.523L27.9745 132.3L28.9517 143.457L26.8318 143.643L20.6758 137.356L21.2691 144.13L18.7188 144.353L17.7417 133.196L19.8775 133.009L26.0176 139.297L25.4243 132.523ZM32.2553 133.13C31.8621 133.164 31.5482 133.309 31.3137 133.565C31.0898 133.821 30.9955 134.15 31.0308 134.554C31.0653 134.947 31.2154 135.255 31.4812 135.478C31.7567 135.69 32.091 135.778 32.4842 135.744C32.8773 135.709 33.1859 135.564 33.4098 135.309C33.6328 135.043 33.7271 134.714 33.6927 134.321C33.6573 133.917 33.5072 133.609 33.2423 133.397C32.9774 133.184 32.6484 133.095 32.2553 133.13ZM29.9985 138.354L35.3859 137.883L35.5185 139.397L30.1311 139.869L29.9985 138.354ZM42.0292 135.646C43.0208 135.72 43.802 136.021 44.3729 136.549C44.9429 137.067 45.2647 137.746 45.3382 138.585C45.395 139.233 45.2775 139.848 44.9859 140.431C44.6933 141.002 44.2108 141.484 43.5384 141.875C42.8765 142.264 42.0409 142.504 41.0314 142.592C40.2451 142.661 39.4605 142.628 38.6778 142.493C37.9047 142.347 37.2358 142.105 36.671 141.769L37.502 139.705C37.955 139.987 38.4657 140.193 39.034 140.326C39.6121 140.446 40.1934 140.481 40.7778 140.43C41.426 140.373 41.9253 140.206 42.2758 139.929C42.6254 139.642 42.7802 139.269 42.7402 138.813C42.6601 137.899 41.9241 137.503 40.5321 137.625L39.3526 137.728L39.2033 136.022L41.2709 133.223L36.5211 133.639L36.3396 131.567L44.1498 130.883L44.2963 132.557L42.0292 135.646Z" fill="#C42733"/>
<path d="M75.2125 87.3501L73.4038 92.2739H92.6971L91.1898 89.4603L89.6825 84.637V80.316L84.6582 77L79.433 78.7083L76.5189 81.2204L75.2125 87.3501Z" fill="#F88E14"/>
<path d="M57.0243 94.5851L62.6515 92.2739L74.4084 90.5657H92.295H100.937L112.493 93.5803L114 96.7958L111.086 99.8104H98.3241L84.9595 100.514H74.4084H56.1199L52 96.7958L57.0243 94.5851Z" fill="#F88E14"/>
<circle cx="61.7421" cy="95.4894" r="1.10535" fill="#CD0D26"/>
<circle cx="65.1588" cy="95.4894" r="1.10535" fill="#CD0D26"/>
<circle cx="68.5751" cy="95.4894" r="1.10535" fill="#CD0D26"/>
<circle cx="71.9919" cy="95.4894" r="1.10535" fill="#CD0D26"/>
<circle cx="75.4082" cy="95.4894" r="1.10535" fill="#CD0D26"/>
<circle cx="78.825" cy="95.4894" r="1.10535" fill="#CD0D26"/>
<circle cx="82.2413" cy="95.4894" r="1.10535" fill="#CD0D26"/>
<circle cx="85.6576" cy="95.4894" r="1.10535" fill="#CD0D26"/>
<circle cx="89.0744" cy="95.4894" r="1.10535" fill="#CD0D26"/>
<circle cx="92.4907" cy="95.4894" r="1.10535" fill="#CD0D26"/>
<circle cx="95.9075" cy="95.4894" r="1.10535" fill="#CD0D26"/>
<circle cx="99.3238" cy="95.4894" r="1.10535" fill="#CD0D26"/>
<circle cx="102.74" cy="95.4894" r="1.10535" fill="#CD0D26"/>
<circle cx="106.157" cy="95.4894" r="1.10535" fill="#CD0D26"/>
<path d="M84.76 134.16C85.4107 134.384 85.9173 134.736 86.28 135.216C86.6533 135.685 86.84 136.235 86.84 136.864C86.84 137.547 86.616 138.139 86.168 138.64C85.72 139.141 85.112 139.525 84.344 139.792C83.5867 140.059 82.7547 140.192 81.848 140.192C81.08 140.192 80.312 140.096 79.544 139.904C78.7867 139.712 78.0667 139.419 77.384 139.024L78.184 137.168C78.6747 137.467 79.2133 137.696 79.8 137.856C80.3973 138.005 80.9787 138.08 81.544 138.08C82.312 138.08 82.9467 137.941 83.448 137.664C83.96 137.387 84.216 136.997 84.216 136.496C84.216 136.08 84.04 135.765 83.688 135.552C83.3467 135.339 82.8773 135.232 82.28 135.232H79.544V133.28H82.088C82.6107 133.28 83.016 133.173 83.304 132.96C83.6027 132.747 83.752 132.453 83.752 132.08C83.752 131.643 83.5387 131.301 83.112 131.056C82.696 130.811 82.1573 130.688 81.496 130.688C81.0053 130.688 80.4987 130.757 79.976 130.896C79.4533 131.024 78.9573 131.221 78.488 131.488L77.704 129.472C78.888 128.864 80.168 128.56 81.544 128.56C82.4187 128.56 83.224 128.688 83.96 128.944C84.696 129.2 85.2827 129.573 85.72 130.064C86.1573 130.555 86.376 131.125 86.376 131.776C86.376 132.309 86.232 132.784 85.944 133.2C85.656 133.616 85.2613 133.936 84.76 134.16ZM88.7 131.392H91.18V134.752H94.924V131.392H97.42V140H94.924V136.784H91.18V140H88.7V131.392ZM103.153 131.264C104.487 131.264 105.511 131.584 106.225 132.224C106.94 132.853 107.297 133.808 107.297 135.088V140H104.961V138.928C104.492 139.728 103.617 140.128 102.337 140.128C101.676 140.128 101.1 140.016 100.609 139.792C100.129 139.568 99.7614 139.259 99.5054 138.864C99.2494 138.469 99.1214 138.021 99.1214 137.52C99.1214 136.72 99.42 136.091 100.017 135.632C100.625 135.173 101.559 134.944 102.817 134.944H104.801C104.801 134.4 104.636 133.984 104.305 133.696C103.975 133.397 103.479 133.248 102.817 133.248C102.359 133.248 101.905 133.323 101.457 133.472C101.02 133.611 100.647 133.803 100.337 134.048L99.4414 132.304C99.9107 131.973 100.471 131.717 101.121 131.536C101.783 131.355 102.46 131.264 103.153 131.264ZM102.961 138.448C103.388 138.448 103.767 138.352 104.097 138.16C104.428 137.957 104.663 137.664 104.801 137.28V136.4H103.089C102.065 136.4 101.553 136.736 101.553 137.408C101.553 137.728 101.676 137.984 101.921 138.176C102.177 138.357 102.524 138.448 102.961 138.448ZM117.866 140V134.848L115.29 139.168H114.234L111.722 134.832V140H109.466V131.392H112.074L114.826 136.368L117.754 131.392H120.09L120.122 140H117.866ZM130.881 135.728C130.881 135.76 130.865 135.984 130.833 136.4H124.321C124.438 136.933 124.715 137.355 125.153 137.664C125.59 137.973 126.134 138.128 126.785 138.128C127.233 138.128 127.627 138.064 127.969 137.936C128.321 137.797 128.646 137.584 128.945 137.296L130.273 138.736C129.462 139.664 128.278 140.128 126.721 140.128C125.75 140.128 124.891 139.941 124.145 139.568C123.398 139.184 122.822 138.656 122.417 137.984C122.011 137.312 121.809 136.549 121.809 135.696C121.809 134.853 122.006 134.096 122.401 133.424C122.806 132.741 123.355 132.213 124.049 131.84C124.753 131.456 125.537 131.264 126.401 131.264C127.243 131.264 128.006 131.445 128.689 131.808C129.371 132.171 129.905 132.693 130.289 133.376C130.683 134.048 130.881 134.832 130.881 135.728ZM126.417 133.152C125.851 133.152 125.377 133.312 124.993 133.632C124.609 133.952 124.374 134.389 124.289 134.944H128.529C128.443 134.4 128.209 133.968 127.825 133.648C127.441 133.317 126.971 133.152 126.417 133.152ZM132.794 131.392H135.274V134.752H139.018V131.392H141.514V140H139.018V136.784H135.274V140H132.794V131.392ZM143.903 131.392H146.383V136.512L150.575 131.392H152.863V140H150.383V134.88L146.207 140H143.903V131.392ZM162.495 133.44H159.583V140H157.103V133.44H154.191V131.392H162.495V133.44ZM168.353 134.144C169.473 134.155 170.321 134.405 170.897 134.896C171.473 135.387 171.761 136.091 171.761 137.008C171.761 137.968 171.436 138.709 170.785 139.232C170.134 139.755 169.212 140.016 168.017 140.016L163.825 140V131.392H166.305V134.144H168.353ZM172.689 131.392H175.169V140H172.689V131.392ZM167.793 138.24C168.273 138.251 168.641 138.149 168.897 137.936C169.153 137.723 169.281 137.403 169.281 136.976C169.281 136.56 169.153 136.256 168.897 136.064C168.652 135.872 168.284 135.771 167.793 135.76L166.305 135.744V138.24H167.793ZM177.575 131.392H180.055V136.512L184.247 131.392H186.535V140H184.055V134.88L179.879 140H177.575V131.392ZM181.895 130.464C180.018 130.464 179.074 129.637 179.063 127.984H180.695C180.706 128.357 180.807 128.651 180.999 128.864C181.202 129.067 181.495 129.168 181.879 129.168C182.263 129.168 182.556 129.067 182.759 128.864C182.972 128.651 183.079 128.357 183.079 127.984H184.743C184.732 129.637 183.783 130.464 181.895 130.464Z" fill="white"/>
</svg>
