<svg width="45" height="63" viewBox="0 0 45 63" fill="none" xmlns="http://www.w3.org/2000/svg">
<path d="M12.7965 12.1621L13.3902 10.9831L22.7258 11.7874L22.1681 12.8949L14.2902 12.1752L19.5598 18.0753L18.9931 19.2007L12.7965 12.1621Z" fill="white"/>
<path d="M31.1789 22.2316L26.9377 19.1543L27.6659 18.1507L31.9071 21.228L31.1789 22.2316Z" fill="white"/>
<path d="M33.0776 29.9925L32.9858 24.7533L34.2256 24.7315L34.3174 29.9707L33.0776 29.9925Z" fill="white"/>
<path d="M29.501 36.7871L32.3706 32.4027L33.4082 33.0818L30.5386 37.4662L29.501 36.7871Z" fill="white"/>
<path d="M23.4814 42.2142L27.4078 38.7442L28.2289 39.6734L24.3025 43.1433L23.4814 42.2142Z" fill="white"/>
<path d="M16.4814 48.2142L20.4078 44.7442L21.2289 45.6734L17.3025 49.1433L16.4814 48.2142Z" fill="white"/>
<path d="M11.4306 54.8677L14.3501 50.5164L15.3798 51.2073L12.4603 55.5586L11.4306 54.8677Z" fill="white"/>
<path d="M19.1369 13.8749L24.0133 15.7928L23.5595 16.9468L18.6831 15.0289L19.1369 13.8749Z" fill="white"/>
</svg>
