<svg width="316" height="253" viewBox="0 0 316 253" fill="none" xmlns="http://www.w3.org/2000/svg">
<path d="M145.227 106.003L174.926 109.266L210.841 103.822L222.088 93.7892L225.203 65.4346L215.327 62.9972L184.871 64.9095L195.994 71.3902L203.081 82.1213C201.69 85.6624 198.727 93.0253 198.003 94.1477C197.278 95.27 189.621 97.4836 185.883 98.4502L179.233 90.5828L161.01 95.7172L140 81.7647L121.78 73.1883L77.677 77.9218L106.633 81.1035L113.938 89.0427L127.779 104.086L130.377 104.371L145.227 106.003Z" fill="#F88E14"/>
<path d="M174.926 109.266L145.227 106.003L136.93 133.638L172.438 131.905L218.866 123.109L249.079 108.023L259.244 90.735L248.249 71.1219L225.203 65.4346L222.088 93.7892L210.841 103.822L174.926 109.266Z" fill="#F88E14"/>
<path d="M72.4797 77.3508C70.4008 77.1224 53.6264 95.0616 45.4991 104.06C47.0591 109.239 50.9721 120.587 54.1445 124.542C57.3169 128.496 66.9409 133.46 71.3564 135.447L104.768 139.119L136.93 133.638L145.227 106.003L130.377 104.371L132.278 107.585C133.724 109.246 136.582 112.866 136.452 114.053C136.321 115.241 134.257 118.069 133.242 119.335L124.916 123.303L116.255 123.478L105.746 130.211L93.9568 134.926C89.846 134.725 81.1789 134.273 79.397 134.077C77.1696 133.832 69.2063 131.079 65.2858 129.146C62.1494 127.6 58.7788 125.677 57.4856 124.909C56.2031 121.763 53.6708 115.174 53.8013 113.987C53.9318 112.799 56.5968 106.782 57.913 103.921C59.5461 101.597 63.0178 96.444 63.8401 94.4309C64.6624 92.4179 77.7891 90.5798 84.2496 89.9124L100.127 89.0277L105.859 88.155L113.938 89.0427L106.633 81.1035L77.677 77.9218L72.4797 77.3508Z" fill="#F88E14"/>
<path d="M152.667 67.226L131.285 72.1681L121.78 73.1883L140 81.7647L161.01 95.7172L179.233 90.5828L185.883 98.4502C189.621 97.4836 197.278 95.27 198.003 94.1477C198.727 93.0253 201.69 85.6624 203.081 82.1213L195.994 71.3902L184.871 64.9095L173.127 65.6469L171.864 68.7389L183.22 79.939L171.008 76.5326C170.076 79.31 167.966 85.063 166.978 85.8558C165.742 86.8468 160.581 82.5236 158.064 81.4958C156.05 80.6736 159.718 74.4158 161.804 71.3896L155.334 75.5617L146.098 77.5518L142.341 74.1341L152.667 67.226Z" fill="white"/>
<path d="M178.032 53.6408L175.551 48.8608L171.15 58.1432L156.414 48.6362L155.558 56.43L142.936 55.0431L139.766 59.9535L139.195 65.1493L160.184 62.1969L152.667 67.226L154.416 66.8217L173.127 65.6469L178.032 53.6408Z" fill="#048B28"/>
<path d="M183.22 79.939L171.864 68.7389L173.127 65.6469L154.416 66.8217L152.667 67.226L142.341 74.1341L146.098 77.5518L155.334 75.5617L161.804 71.3896C159.718 74.4158 156.05 80.6736 158.064 81.4958C160.581 82.5236 165.742 86.8468 166.978 85.8558C167.966 85.063 170.076 79.31 171.008 76.5326L183.22 79.939Z" fill="#048B28"/>
<path fill-rule="evenodd" clip-rule="evenodd" d="M105.859 88.155L100.127 89.0277L84.2496 89.9124C77.7891 90.5798 64.6624 92.4179 63.8401 94.4309C63.0178 96.444 59.5461 101.597 57.913 103.921C56.5968 106.782 53.9318 112.799 53.8013 113.987C53.6708 115.174 56.2031 121.763 57.4856 124.909C58.7788 125.677 62.1494 127.6 65.2858 129.146C69.2063 131.079 77.1696 133.832 79.397 134.077C81.1789 134.273 89.846 134.725 93.9568 134.926L105.746 130.211L116.255 123.478L124.916 123.303L133.242 119.335C134.257 118.069 136.321 115.241 136.452 114.053C136.582 112.866 133.724 109.246 132.278 107.585L130.377 104.371L127.779 104.086L113.938 89.0427L105.859 88.155ZM65.844 113.807L76.756 99.9818L82.4146 106.613L72.6613 123.571L59.2968 122.103L58.4643 116.001L65.844 113.807ZM86.7063 108.587L98.659 102.388L106.382 110.749L90.3456 116.5L86.7063 108.587ZM101.792 101.23L97.2429 91.3401L115.148 95.9367L112.47 102.404L101.792 101.23ZM114.019 116.471L114.088 105.586L126.506 108.829L126.27 117.817L114.019 116.471ZM85.206 129.081L83.9615 123.31L107.255 116.479L109.983 125.043L85.206 129.081Z" fill="white"/>
<path d="M98.659 102.388L86.7063 108.587L90.3456 116.5L106.382 110.749L98.659 102.388Z" fill="#F88E14"/>
<path d="M114.088 105.586L114.019 116.471L126.27 117.817L126.506 108.829L114.088 105.586Z" fill="#C42733"/>
<path d="M76.756 99.9818L65.844 113.807L58.4643 116.001L59.2968 122.103L72.6613 123.571L82.4146 106.613L76.756 99.9818Z" fill="#C42733"/>
<path d="M83.9615 123.31L85.206 129.081L109.983 125.043L107.255 116.479L83.9615 123.31Z" fill="#048B28"/>
<path d="M97.2429 91.3401L101.792 101.23L112.47 102.404L115.148 95.9367L97.2429 91.3401Z" fill="#048B28"/>
<path d="M157.735 181.686L197.789 175.536L242.932 155.796L254.145 138.704L248.273 100.462L234.477 100.736L195.249 113.933L212.096 118.518L225.148 130.09C224.568 135.217 223.271 145.904 222.716 147.628C222.161 149.353 212.906 154.941 208.348 157.52L196.874 149.547L174.802 162.671L142.379 151.767L115.499 146.926L59.3798 168.61L98.4329 162.614L110.79 170.451L134.203 185.3L137.708 184.762L157.735 181.686Z" fill="#F88E14"/>
<path d="M197.789 175.536L157.735 181.686L156.567 220.804L202.478 206.069L260.216 178.246L294.502 147.877L301.751 121.659L280.461 99.8234L248.273 100.462L254.145 138.704L242.932 155.796L197.789 175.536Z" fill="#F88E14"/>
<path d="M52.3703 169.687C49.5665 170.117 33.8876 199.508 26.3986 214.15C30.2606 220.388 39.3707 233.881 44.9151 237.948C50.4594 242.015 64.8105 245.14 71.293 246.194L116.354 239.275L156.567 220.804L157.735 181.686L137.708 184.762L141.327 188.305C143.804 189.974 148.819 193.712 149.065 195.314C149.311 196.916 147.6 201.345 146.713 203.36L137.198 211.482L125.913 214.752L114.51 227.262L100.719 237.577C95.2627 238.756 83.7494 241.207 81.3462 241.576C78.3421 242.038 66.9428 241.226 61.1279 240.07C56.4759 239.145 51.3851 237.809 49.4212 237.256C46.6367 233.585 41.0062 225.842 40.7603 224.241C40.5143 222.639 41.8934 213.82 42.6137 209.61C43.9371 205.992 46.6766 198.022 47.0473 195.096C47.418 192.17 63.9702 185.154 72.1999 182.012L92.6905 175.279L99.8932 172.124L110.79 170.451L98.4329 162.614L59.3798 168.61L52.3703 169.687Z" fill="#F88E14"/>
<path d="M153.87 128.273L127.593 142.253L115.499 146.926L142.379 151.767L174.802 162.671L196.874 149.547L208.348 157.52C212.906 154.941 222.161 149.353 222.716 147.628C223.271 145.904 224.568 135.217 225.148 130.09L212.096 118.518L195.249 113.933L180.121 119.021L179.552 123.516L198.361 134.203L181.166 134.027C180.921 137.993 180.176 146.27 179.159 147.656C177.887 149.388 169.609 145.536 165.95 145.073C163.023 144.703 165.632 135.217 167.303 130.52L160.291 138.257L148.89 144.107L142.767 140.948L153.87 128.273Z" fill="white"/>
<path d="M182.332 101.57L177.404 96.1789L174.896 109.885L152.254 102.603L153.868 113.114L136.845 115.728L134.416 123.274L135.492 130.281L161.953 119.045L153.87 128.273L156.02 127.129L180.121 119.021L182.332 101.57Z" fill="#048B28"/>
<path d="M198.361 134.203L179.552 123.516L180.121 119.021L156.02 127.129L153.87 128.273L142.767 140.948L148.89 144.107L160.291 138.257L167.303 130.52C165.632 135.217 163.023 144.703 165.95 145.073C169.609 145.536 177.887 149.388 179.159 147.656C180.176 146.27 180.921 137.993 181.166 134.027L198.361 134.203Z" fill="#048B28"/>
<path fill-rule="evenodd" clip-rule="evenodd" d="M99.8932 172.124L92.6905 175.279L72.1999 182.012C63.9702 185.154 47.418 192.17 47.0473 195.096C46.6766 198.022 43.9371 205.992 42.6137 209.61C41.8934 213.82 40.5143 222.639 40.7603 224.241C41.0062 225.842 46.6367 233.585 49.4212 237.256C51.3851 237.809 56.4759 239.145 61.1279 240.07C66.9428 241.226 78.3421 242.038 81.3462 241.576C83.7494 241.207 95.2627 238.756 100.719 237.577L114.51 227.262L125.913 214.752L137.198 211.482L146.713 203.36C147.6 201.345 149.311 196.916 149.065 195.314C148.819 193.712 143.804 189.974 141.327 188.305L137.708 184.762L134.203 185.3L110.79 170.451L99.8932 172.124ZM56.4746 219.778L65.9173 197.835L75.6586 204.536L68.8335 230.177L50.809 232.944L47.5766 225.243L56.4746 219.778ZM81.9742 205.616L95.4574 193.299L108.51 201.541L89.5195 214.704L81.9742 205.616ZM99.1554 190.681L89.7237 179.321L114.795 179.058L113.557 188.47L99.1554 190.681ZM120.524 206.357L116.793 192.072L134.201 191.961L137.047 203.82L120.524 206.357ZM87.2028 232.992L83.5465 225.868L111.666 208.742L118.245 219.003L87.2028 232.992Z" fill="white"/>
<path d="M95.4574 193.299L81.9742 205.616L89.5195 214.704L108.51 201.541L95.4574 193.299Z" fill="#F88E14"/>
<path d="M116.793 192.072L120.524 206.357L137.047 203.82L134.201 191.961L116.793 192.072Z" fill="#C42733"/>
<path d="M65.9173 197.835L56.4746 219.778L47.5766 225.243L50.809 232.944L68.8335 230.177L75.6586 204.536L65.9173 197.835Z" fill="#C42733"/>
<path d="M83.5465 225.868L87.2028 232.992L118.245 219.003L111.666 208.742L83.5465 225.868Z" fill="#048B28"/>
<path d="M89.7237 179.321L99.1554 190.681L113.557 188.47L114.795 179.058L89.7237 179.321Z" fill="#048B28"/>
</svg>
