<svg width="117" height="99" viewBox="0 0 117 99" fill="none" xmlns="http://www.w3.org/2000/svg">
<path d="M42.5 13.9999L48.8 1.3999L52.4 13.9999L59.6 4.0999L65.9 16.6999L78.5 11.2999V23.8999H98.3L88.4 35.5999L115.4 48.1999L93.8 53.5999L101 67.0999L86.6 69.7999L93.8 79.6999H81.2L78.5 93.1999L65.9 87.7999L59.6 97.6999L52.4 84.1999L39.8 93.1999V84.1999L24.5 93.1999L30.8 74.2999L2 76.9999L11.9 69.7999L2 61.6999L11.9 57.1999L7.4 35.5999H19.1V23.8999H24.5L21.8 9.4999L30.8 13.9999L36.2 9.4999L42.5 13.9999Z" fill="white" stroke="#F88E14"/>
</svg>
