<svg width="82" height="84" viewBox="0 0 82 84" fill="none" xmlns="http://www.w3.org/2000/svg">
<path d="M8.93655 16.3602L11.7001 28.7225L3.56603 29.8257L10.6692 36.9237L1.16954 39.9857L8.88978 46.8388L3.31595 52.5929L13.0387 53.6926L7.68793 63.6084L14.6993 65.0758L15.7626 73.1543L22.5509 70.4601L22.9971 78.7835L32.2538 75.1095L38.9827 83.0645L42.9678 75.1074L50.0907 78.6557L52.8417 71.1886L61.3103 76.3279L61.4813 67.7596L70.4555 70.5731L69.2807 60.4138L74.8347 58.2094L71.92 50.8658L79.831 45.6008L72.7081 42.0525L80.3959 32.6259L70.4303 30.9142L72.9384 22.8351L64.6928 21.8575L68.8093 12.4315L58.3183 16.5953L55.4037 9.25167L49.8496 11.456L45.9634 1.66448L37.0414 11.5809L32.8925 4.72714L27.2989 14.0309L19.2044 8.03473L19.8737 20.5198L8.93655 16.3602Z" fill="white" stroke="#F88E14"/>
</svg>
