<svg width="98" height="98" viewBox="0 0 98 98" fill="none" xmlns="http://www.w3.org/2000/svg">
<path d="M24.0467 6.17039L21.6416 21.2754L12.0215 18.8904L16.8315 30.0204L4.80633 29.2254L10.4181 40.3554L1.59961 44.3304L12.0215 49.8954L1.59961 58.6404L8.81474 63.4104L6.4097 72.9504H15.2282L12.0215 82.4904H24.0467L28.0551 94.4154L36.0719 87.2604L42.4853 94.4154L48.8988 87.2604L56.1139 96.8004L60.1223 87.2604L68.9408 94.4154L72.1475 82.4904H79.3627V72.9504L90.5862 70.5654L84.1728 63.4104L96.9996 56.2554L86.5778 49.8954L92.9912 41.9454L84.1728 37.1754L92.9912 28.4304H79.3627V18.8904H72.1475V6.17039L57.7173 13.3254L56.1139 3.78539L45.6921 11.7354L39.2786 1.40039L34.4685 15.7104L24.0467 6.17039Z" fill="white" stroke="#C42733"/>
</svg>
