<svg width="117" height="99" viewBox="0 0 117 99" fill="none" xmlns="http://www.w3.org/2000/svg">
<path d="M42.2712 14.3999L48.5356 1.87109L52.1153 14.3999L59.2746 4.55584L65.539 17.0847L78.0678 11.7152V24.244H97.7559L87.9119 35.8779L114.759 48.4067L93.2814 53.7762L100.441 67.1999L86.122 69.8847L93.2814 79.7287H80.7525L78.0678 93.1525L65.539 87.783L59.2746 97.627L52.1153 84.2033L39.5864 93.1525V84.2033L24.3729 93.1525L30.6373 74.3592L2 77.044L11.8441 69.8847L2 61.8304L11.8441 57.3558L7.36949 35.8779H19.0034V24.244H24.3729L21.6881 9.92533L30.6373 14.3999L36.0068 9.92533L42.2712 14.3999Z" fill="white" stroke="#048B28"/>
</svg>
