<svg width="66" height="66" viewBox="0 0 66 66" fill="none" xmlns="http://www.w3.org/2000/svg">
<path d="M16.8235 4.95005L15.2353 14.925L8.88235 13.35L12.0588 20.7001L4.11765 20.1751L7.82353 27.5251L2 30.1501L8.88235 33.8251L2 39.6001L6.76471 42.75L5.17647 49.05H11L8.88235 55.3501H16.8235L19.4706 63.2251L24.7647 58.5001L29 63.2251L33.2353 58.5001L38 64.8001L40.6471 58.5001L46.4706 63.2251L48.5882 55.3501H53.3529V49.05L60.7647 47.4751L56.5294 42.75L65 38.0251L58.1176 33.8251L62.3529 28.5751L56.5294 25.425L62.3529 19.65H53.3529V13.35H48.5882V4.95005L39.0588 9.67505L38 3.37505L31.1176 8.62505L26.8824 1.80005L23.7059 11.25L16.8235 4.95005Z" fill="white" stroke="#F88E14"/>
</svg>
