<svg width="110" height="110" viewBox="0 0 110 110" fill="none" xmlns="http://www.w3.org/2000/svg">
<path d="M27.0576 6.5526L24.3729 23.556L13.6339 20.8712L19.0034 33.4001L5.57966 32.5051L11.8441 45.034L2 49.5085L13.6339 55.7729L2 65.617L10.0542 70.9865L7.36949 81.7255H17.2136L13.6339 92.4645H27.0576L31.5322 105.888L40.4814 97.834L47.6407 105.888L54.8 97.834L62.8542 108.573L67.3288 97.834L77.1729 105.888L80.7525 92.4645H88.8068V81.7255L101.336 79.0407L94.1763 70.9865L108.495 62.9323L96.861 55.7729L104.02 46.8238L94.1763 41.4543L104.02 31.6102H88.8068V20.8712H80.7525V6.5526L64.6441 14.6068L62.8542 3.86785L51.2203 12.817L44.061 1.18311L38.6915 17.2916L27.0576 6.5526Z" fill="white" stroke="#048B28"/>
</svg>
