<svg width="118" height="100" viewBox="0 0 118 100" fill="none" xmlns="http://www.w3.org/2000/svg">
<path d="M42.7003 14.6002L49.0003 2.00024L52.6003 14.6002L59.8003 4.70025L66.1003 17.3003L78.7003 11.9002V24.5003H98.5003L88.6003 36.2003L115.6 48.8003L94.0003 54.2003L101.2 67.7003L86.8003 70.4003L94.0003 80.3003H81.4003L78.7003 93.8003L66.1003 88.4003L59.8003 98.3003L52.6003 84.8003L40.0003 93.8003V84.8003L24.7003 93.8003L31.0003 74.9003L2.20029 77.6003L12.1003 70.4003L2.20029 62.3003L12.1003 57.8003L7.60029 36.2003H19.3003V24.5003H24.7003L22.0003 10.1002L31.0003 14.6002L36.4003 10.1002L42.7003 14.6002Z" fill="white" stroke="#C42733"/>
</svg>
