<svg width="339" height="269" viewBox="0 0 339 269" fill="none" xmlns="http://www.w3.org/2000/svg">
<path d="M65.3043 244.686L46.5096 214.069L49.6595 205.207L53.4601 172.773L56.447 163.5L56.8265 147.648L70.1721 135.698L72.1342 113.032L107.912 98.8543L122.693 74.9159L137.132 54.9192L148.601 64.649L163.04 44.6524L196.834 85.504L173.958 46.9874L189.585 40.7947L204.529 42.4856L225.667 59.8036L247.277 57.9015L257.544 83.8097L266.67 106.839L297.513 94.6166L312.885 116.598L330.965 139.41L317.395 144.788L65.3043 244.686Z" fill="#048B28"/>
<path d="M60.0832 259.127L59.5908 182.239L78.4902 129.071L104.397 93.5861L151.573 60.141L205.562 53.4964L249.784 70.2314L295.496 108.739L321.407 148.908L327.436 164.124L60.0832 259.127Z" fill="#F88E14"/>
<rect x="41.7124" y="173.146" width="39.8118" height="8.84707" transform="rotate(-21.6174 41.7124 173.146)" fill="white"/>
<rect x="88.3573" y="74.7231" width="6.19295" height="34.5036" transform="rotate(-21.6174 88.3573 74.7231)" fill="white"/>
<rect x="105.21" y="83.6321" width="8.84707" height="24.7718" transform="rotate(-78.5339 105.21 83.6321)" fill="white"/>
<rect x="250.413" y="89.8284" width="28.3106" height="9.73178" transform="rotate(-40.4965 250.413 89.8284)" fill="white"/>
<rect x="248.124" y="100.865" width="45.1201" height="7.07766" transform="rotate(-21.6174 248.124 100.865)" fill="white"/>
</svg>
