<svg width="111" height="132" viewBox="0 0 111 132" fill="none" xmlns="http://www.w3.org/2000/svg">
<path d="M71.7908 21.3981C76.5181 20.4441 71.7908 21.3981 83.8958 18.9553L88.2581 11.5074L97.9664 9.77545L94.3064 0.951941L77.0071 7.33438L74.5989 13.8272L71.7908 21.3981Z" fill="#048B28"/>
<path d="M81.6354 25.0495L83.526 30.017L83.8958 18.9553C71.7908 21.3981 76.5181 20.4441 71.7908 21.3981L81.6354 25.0495Z" fill="#048B28"/>
<path d="M75.1577 62.6433L85.4165 34.9845L83.526 30.017L81.6354 25.0495L71.7908 21.3981L74.5989 13.8272L66.7091 7.78098L60.4562 10.2613L41.2357 3.13233L30.5678 14.6408L20.9584 27.6084L9.99552 38.4742L1.30162 61.9138L3.44279 87.7724L10.7628 105.419L23.4202 110.114L34.7548 121.251L38.9278 110L55.9015 94.4308L75.1577 62.6433Z" fill="#CD0D26"/>
<path d="M85.4165 34.9845L75.1577 62.6433L55.9015 94.4308L38.9278 110L34.7548 121.251L41.34 113.561L44.5994 124.902L61.9447 131.336L80.1816 125.301L88.5277 102.799L93.9554 82.4143L109.56 60.4714L108.387 43.5045L98.9808 31.483L90.4589 21.3895L83.8958 18.9553L83.526 30.017L85.4165 34.9845Z" fill="#CD0D26"/>
<path d="M60.1017 25.5951L71.7908 21.3981M71.7908 21.3981L74.5989 13.8272M71.7908 21.3981L81.6354 25.0495L83.526 30.017M71.7908 21.3981C76.5181 20.4441 71.7908 21.3981 83.8958 18.9553M34.7548 121.251L38.9278 110L55.9015 94.4308L75.1577 62.6433L85.4165 34.9845L83.526 30.017M34.7548 121.251L23.4202 110.114M34.7548 121.251L41.34 113.561L44.5994 124.902L61.9447 131.336L80.1816 125.301L88.5277 102.799L93.9554 82.4143L109.56 60.4714L108.387 43.5045L98.9808 31.483L90.4589 21.3895L83.8958 18.9553M23.4202 110.114L10.7628 105.419L3.44279 87.7724L1.30162 61.9138L9.99552 38.4742L20.9584 27.6084L30.5678 14.6408L41.2357 3.13233L60.4562 10.2613L66.7091 7.78098L74.5989 13.8272M23.4202 110.114L15.6314 92.2932L31.3793 61.3376L41.2357 46.5M83.526 30.017L83.8958 18.9553M74.5989 13.8272L77.0071 7.33438L94.3064 0.951941L97.9664 9.77545L88.2581 11.5074L83.8958 18.9553" stroke="white"/>
</svg>
