<svg width="193" height="296" viewBox="0 0 193 296" fill="none" xmlns="http://www.w3.org/2000/svg">
<rect x="0.649048" y="0.761719" width="192" height="295" fill="#F3C794"/>
<path d="M48.1691 59.3617L43.753 81.7617H36.873L38.857 71.5537L32.553 79.7457H29.225L25.769 71.6817L23.753 81.7617H16.873L21.353 59.3617H27.497L32.361 71.2657L41.737 59.3617H48.1691Z" fill="white"/>
<path d="M47.505 100.05C45.6704 100.05 44.0704 99.7297 42.705 99.0897C41.3397 98.4284 40.2837 97.5004 39.537 96.3057C38.7904 95.1111 38.417 93.7244 38.417 92.1457C38.417 90.2471 38.8757 88.5404 39.793 87.0257C40.7104 85.5111 41.9797 84.3164 43.601 83.4417C45.2224 82.5671 47.0464 82.1297 49.073 82.1297C50.9077 82.1297 52.5077 82.4604 53.873 83.1217C55.2384 83.7617 56.2944 84.6791 57.041 85.8737C57.7877 87.0471 58.161 88.4231 58.161 90.0017C58.161 91.9004 57.7024 93.6177 56.785 95.1537C55.8677 96.6684 54.5984 97.8631 52.977 98.7377C51.377 99.6124 49.553 100.05 47.505 100.05ZM47.857 95.1537C49.073 95.1537 50.065 94.7057 50.833 93.8097C51.601 92.9137 51.985 91.7511 51.985 90.3217C51.985 89.2977 51.697 88.4871 51.121 87.8897C50.545 87.2924 49.745 86.9937 48.721 86.9937C47.505 86.9937 46.513 87.4417 45.745 88.3377C44.977 89.2337 44.593 90.4071 44.593 91.8577C44.593 92.8817 44.881 93.6924 45.457 94.2897C46.033 94.8657 46.833 95.1537 47.857 95.1537Z" fill="white"/>
<path d="M58.777 96.5457H63.737L62.393 103.266H69.881L71.225 96.5457H76.185L72.761 113.762H67.769L69.049 107.33H61.593L60.313 113.762H55.321L58.777 96.5457Z" fill="white"/>
<path d="M23.409 15.5617L21.201 26.7617H17.761L18.753 21.6577L15.601 25.7537H13.937L12.209 21.7217L11.201 26.7617H7.76105L10.001 15.5617H13.073L15.505 21.5137L20.193 15.5617H23.409ZM31.5993 24.8097H27.3273L26.2073 26.7617H22.2233L29.3593 15.5617H33.0713L35.7273 26.7617H31.9673L31.5993 24.8097ZM31.0713 22.0897L30.5273 19.2257L28.8793 22.0897H31.0713ZM42.8448 27.0177C41.7035 27.0177 40.6955 26.8097 39.8208 26.3937C38.9568 25.9671 38.2848 25.3751 37.8048 24.6177C37.3355 23.8604 37.1008 22.9911 37.1008 22.0097C37.1008 20.7084 37.3995 19.5511 37.9968 18.5377C38.6048 17.5244 39.4421 16.7351 40.5088 16.1697C41.5861 15.5937 42.8075 15.3057 44.1728 15.3057C45.2501 15.3057 46.2048 15.5031 47.0368 15.8977C47.8688 16.2817 48.4875 16.8311 48.8928 17.5457L46.1728 19.6737C45.6715 18.7991 44.9248 18.3617 43.9328 18.3617C43.3461 18.3617 42.8235 18.5057 42.3648 18.7937C41.9061 19.0817 41.5488 19.4871 41.2928 20.0097C41.0368 20.5217 40.9088 21.1084 40.9088 21.7697C40.9088 22.4311 41.1168 22.9644 41.5328 23.3697C41.9595 23.7644 42.5195 23.9617 43.2128 23.9617C44.1621 23.9617 44.9941 23.5297 45.7088 22.6657L47.9328 24.7937C47.2821 25.5937 46.5408 26.1644 45.7088 26.5057C44.8875 26.8471 43.9328 27.0177 42.8448 27.0177ZM66.4924 15.5617L64.2524 26.7617H48.6204L50.8604 15.5617H54.5724L52.9564 23.8337H55.2124L56.8284 15.5617H60.5404L58.9244 23.8337H61.1644L62.7804 15.5617H66.4924ZM77.4298 18.4897H74.1018L72.4858 26.7617H68.7738L70.3898 18.4897H67.1578L67.7338 15.5617H78.0058L77.4298 18.4897ZM84.8805 24.8097H80.6085L79.4885 26.7617H75.5045L82.6405 15.5617H86.3525L89.0085 26.7617H85.2485L84.8805 24.8097ZM84.3525 22.0897L83.8085 19.2257L82.1605 22.0897H84.3525ZM92.2823 15.5617H101.994L101.418 18.4097H95.4183L95.1623 19.7057H97.8343C98.997 19.7057 99.893 19.9724 100.522 20.5057C101.162 21.0391 101.482 21.7911 101.482 22.7617C101.482 23.5724 101.258 24.2817 100.81 24.8897C100.362 25.4871 99.7223 25.9511 98.8903 26.2817C98.0583 26.6017 97.077 26.7617 95.9463 26.7617H90.0423L92.2823 15.5617ZM96.2183 24.1217C96.645 24.1217 96.981 24.0257 97.2263 23.8337C97.4823 23.6417 97.6103 23.3857 97.6103 23.0657C97.6103 22.5751 97.2636 22.3297 96.5703 22.3297H94.6343L94.2823 24.1217H96.2183ZM104.267 15.5617H107.979L106.779 21.3857L111.787 15.5617H115.387L113.147 26.7617H109.435L110.651 20.9537L105.643 26.7617L102.027 26.7617L104.267 15.5617ZM122.272 15.5617C123.765 15.5617 124.923 15.8871 125.744 16.5377C126.565 17.1884 126.976 18.1004 126.976 19.2737C126.976 20.2124 126.741 21.0391 126.272 21.7537C125.813 22.4684 125.152 23.0231 124.288 23.4177C123.435 23.8124 122.443 24.0097 121.312 24.0097H119.376L118.832 26.7617H115.056L117.296 15.5617H122.272ZM121.504 21.0977C122.027 21.0977 122.432 20.9697 122.72 20.7137C123.008 20.4471 123.152 20.0791 123.152 19.6097C123.152 18.8524 122.683 18.4737 121.744 18.4737H120.48L119.952 21.0977H121.504ZM140.06 15.5617L133.868 24.1217C133.154 25.0924 132.38 25.8231 131.548 26.3137C130.716 26.8044 129.847 27.0497 128.94 27.0497C128.215 27.0497 127.474 26.8897 126.716 26.5697L127.916 23.9297C128.268 24.0257 128.588 24.0737 128.876 24.0737C129.218 24.0737 129.522 24.0044 129.788 23.8657C130.066 23.7271 130.327 23.5191 130.572 23.2417L127.9 15.5617H131.804L133.084 20.2177L136.332 15.5617H140.06ZM143.996 18.4097L143.74 19.7217H148.476L147.932 22.4417H143.18L142.892 23.9137H148.508L147.932 26.7617H138.62L140.86 15.5617H149.964L149.388 18.4097H143.996ZM160.664 18.4897H157.336L155.72 26.7617H152.008L153.624 18.4897H150.392L150.968 15.5617H161.24L160.664 18.4897ZM166.329 27.0177C165.188 27.0177 164.18 26.8097 163.305 26.3937C162.441 25.9671 161.769 25.3751 161.289 24.6177C160.82 23.8604 160.585 22.9911 160.585 22.0097C160.585 20.7084 160.884 19.5511 161.481 18.5377C162.089 17.5244 162.927 16.7351 163.993 16.1697C165.071 15.5937 166.292 15.3057 167.657 15.3057C168.735 15.3057 169.689 15.5031 170.521 15.8977C171.353 16.2817 171.972 16.8311 172.377 17.5457L169.657 19.6737C169.156 18.7991 168.409 18.3617 167.417 18.3617C166.831 18.3617 166.308 18.5057 165.849 18.7937C165.391 19.0817 165.033 19.4871 164.777 20.0097C164.521 20.5217 164.393 21.1084 164.393 21.7697C164.393 22.4311 164.601 22.9644 165.017 23.3697C165.444 23.7644 166.004 23.9617 166.697 23.9617C167.647 23.9617 168.479 23.5297 169.193 22.6657L171.417 24.7937C170.767 25.5937 170.025 26.1644 169.193 26.5057C168.372 26.8471 167.417 27.0177 166.329 27.0177ZM184.109 15.5777L181.869 26.7617H178.157L178.701 24.1057H177.741L175.501 26.7617H171.421L174.333 23.4817C173.799 23.1724 173.394 22.7564 173.117 22.2337C172.839 21.7111 172.701 21.0977 172.701 20.3937C172.701 19.4337 172.951 18.5911 173.453 17.8657C173.954 17.1404 174.658 16.5804 175.565 16.1857C176.471 15.7804 177.517 15.5777 178.701 15.5777L184.109 15.5777ZM178.333 18.4897C177.778 18.4897 177.346 18.6337 177.037 18.9217C176.738 19.1991 176.589 19.5937 176.589 20.1057C176.589 20.5004 176.685 20.7937 176.877 20.9857C177.069 21.1671 177.373 21.2577 177.789 21.2577H179.261L179.805 18.4897H178.333Z" fill="#F88E14"/>
<path d="M15.985 39.7617L16.727 36.0867H18.33C18.7174 36.0867 19.0114 36.1567 19.212 36.2967C19.4127 36.4321 19.513 36.6327 19.513 36.8987C19.513 37.2114 19.3824 37.4657 19.121 37.6617C18.8597 37.8531 18.5167 37.9487 18.092 37.9487L18.183 37.8157C18.5704 37.8157 18.8527 37.8811 19.03 38.0117C19.212 38.1377 19.303 38.3384 19.303 38.6137C19.303 38.9731 19.1584 39.2554 18.869 39.4607C18.5844 39.6614 18.19 39.7617 17.686 39.7617H15.985ZM16.552 39.3697H17.714C18.0594 39.3697 18.3277 39.3021 18.519 39.1667C18.715 39.0314 18.813 38.8424 18.813 38.5997C18.813 38.4177 18.7524 38.2871 18.631 38.2077C18.5097 38.1284 18.3137 38.0887 18.043 38.0887H16.811L16.552 39.3697ZM16.881 37.7177H17.98C18.288 37.7177 18.5354 37.6524 18.722 37.5217C18.9134 37.3864 19.009 37.2067 19.009 36.9827C19.009 36.8101 18.9437 36.6817 18.813 36.5977C18.687 36.5137 18.4957 36.4717 18.239 36.4717H17.133L16.881 37.7177ZM21.9588 39.7967C21.6088 39.7967 21.3055 39.7337 21.0488 39.6077C20.7968 39.4771 20.6008 39.2951 20.4608 39.0617C20.3255 38.8284 20.2578 38.5531 20.2578 38.2357C20.2578 37.8157 20.3488 37.4424 20.5308 37.1157C20.7128 36.7844 20.9648 36.5254 21.2868 36.3387C21.6135 36.1474 21.9845 36.0517 22.3998 36.0517C22.7405 36.0517 23.0322 36.1147 23.2748 36.2407C23.5222 36.3621 23.7135 36.5441 23.8488 36.7867L23.4288 37.0317C23.3262 36.8451 23.1838 36.7074 23.0018 36.6187C22.8245 36.5301 22.6098 36.4857 22.3578 36.4857C22.0498 36.4857 21.7745 36.5604 21.5318 36.7097C21.2892 36.8591 21.0978 37.0644 20.9578 37.3257C20.8225 37.5824 20.7548 37.8787 20.7548 38.2147C20.7548 38.5741 20.8598 38.8541 21.0698 39.0547C21.2845 39.2554 21.5878 39.3557 21.9798 39.3557C22.2178 39.3557 22.4372 39.3114 22.6378 39.2227C22.8432 39.1294 23.0112 38.9964 23.1418 38.8237L23.4988 39.0967C23.3402 39.3161 23.1232 39.4887 22.8478 39.6147C22.5725 39.7361 22.2762 39.7967 21.9588 39.7967ZM25.9515 39.7967C25.6015 39.7967 25.2959 39.7337 25.0345 39.6077C24.7778 39.4771 24.5795 39.2951 24.4395 39.0617C24.3042 38.8284 24.2365 38.5507 24.2365 38.2287C24.2365 37.8087 24.3252 37.4354 24.5025 37.1087C24.6798 36.7821 24.9225 36.5254 25.2305 36.3387C25.5385 36.1474 25.8862 36.0517 26.2735 36.0517C26.6002 36.0517 26.8825 36.1147 27.1205 36.2407C27.3585 36.3621 27.5429 36.5394 27.6735 36.7727C27.8089 37.0061 27.8765 37.2861 27.8765 37.6127C27.8765 37.6874 27.8719 37.7644 27.8625 37.8437C27.8532 37.9184 27.8415 37.9907 27.8275 38.0607H24.6005L24.6635 37.6897H27.5965L27.3935 37.8297C27.4402 37.5357 27.4192 37.2884 27.3305 37.0877C27.2419 36.8871 27.1042 36.7354 26.9175 36.6327C26.7355 36.5254 26.5162 36.4717 26.2595 36.4717C25.9609 36.4717 25.6949 36.5464 25.4615 36.6957C25.2282 36.8404 25.0462 37.0434 24.9155 37.3047C24.7848 37.5614 24.7195 37.8624 24.7195 38.2077C24.7195 38.5764 24.8245 38.8611 25.0345 39.0617C25.2492 39.2577 25.5689 39.3557 25.9935 39.3557C26.2409 39.3557 26.4695 39.3161 26.6795 39.2367C26.8895 39.1527 27.0622 39.0384 27.1975 38.8937L27.4215 39.2507C27.2489 39.4234 27.0319 39.5587 26.7705 39.6567C26.5139 39.7501 26.2408 39.7967 25.9515 39.7967ZM28.0588 40.7837L28.6258 39.4887L28.6748 39.7967C28.5722 39.7967 28.4858 39.7617 28.4158 39.6917C28.3458 39.6217 28.3108 39.5354 28.3108 39.4327C28.3108 39.3161 28.3505 39.2204 28.4298 39.1457C28.5092 39.0711 28.6002 39.0337 28.7028 39.0337C28.8055 39.0337 28.8895 39.0687 28.9548 39.1387C29.0248 39.2041 29.0598 39.2904 29.0598 39.3977C29.0598 39.4584 29.0482 39.5167 29.0248 39.5727C29.0062 39.6241 28.9735 39.6894 28.9268 39.7687L28.3948 40.7837H28.0588ZM34.5383 38.2147C34.3096 38.3127 34.0809 38.3874 33.8523 38.4387C33.6236 38.4854 33.4066 38.5087 33.2013 38.5087C32.7579 38.5087 32.4266 38.4061 32.2073 38.2007C31.9926 37.9954 31.9249 37.6874 32.0043 37.2767L32.2423 36.0867H32.7393L32.5013 37.2837C32.4453 37.5637 32.4896 37.7714 32.6343 37.9067C32.7836 38.0374 33.0076 38.1027 33.3063 38.1027C33.4976 38.1027 33.7006 38.0771 33.9153 38.0257C34.1346 37.9697 34.3586 37.8951 34.5873 37.8017L34.5383 38.2147ZM34.1743 39.7617L34.9093 36.0867H35.4063L34.6713 39.7617H34.1743ZM36.7759 39.7617L37.4479 36.3877L37.5459 36.5207H36.0339L36.1179 36.0867H39.4079L39.3169 36.5207H37.7909L37.9449 36.3877L37.2729 39.7617H36.7759ZM40.9006 39.7967C40.5599 39.7967 40.2636 39.7337 40.0116 39.6077C39.7642 39.4771 39.5706 39.2951 39.4306 39.0617C39.2952 38.8284 39.2276 38.5531 39.2276 38.2357C39.2276 37.8157 39.3186 37.4424 39.5006 37.1157C39.6826 36.7844 39.9346 36.5254 40.2566 36.3387C40.5786 36.1474 40.9449 36.0517 41.3556 36.0517C41.6962 36.0517 41.9902 36.1147 42.2376 36.2407C42.4896 36.3667 42.6832 36.5464 42.8186 36.7797C42.9586 37.0131 43.0286 37.2884 43.0286 37.6057C43.0286 38.0257 42.9376 38.4014 42.7556 38.7327C42.5736 39.0594 42.3216 39.3184 41.9996 39.5097C41.6822 39.7011 41.3159 39.7967 40.9006 39.7967ZM40.9356 39.3557C41.2436 39.3557 41.5166 39.2834 41.7546 39.1387C41.9972 38.9894 42.1862 38.7841 42.3216 38.5227C42.4616 38.2614 42.5316 37.9651 42.5316 37.6337C42.5316 37.2697 42.4242 36.9874 42.2096 36.7867C41.9996 36.5861 41.7032 36.4857 41.3206 36.4857C41.0172 36.4857 40.7442 36.5604 40.5016 36.7097C40.2589 36.8591 40.0676 37.0644 39.9276 37.3257C39.7922 37.5824 39.7246 37.8787 39.7246 38.2147C39.7246 38.5741 39.8296 38.8541 40.0396 39.0547C40.2542 39.2554 40.5529 39.3557 40.9356 39.3557ZM45.5436 39.7617L46.2856 36.0867H47.8886C48.276 36.0867 48.57 36.1567 48.7706 36.2967C48.9713 36.4321 49.0716 36.6327 49.0716 36.8987C49.0716 37.2114 48.941 37.4657 48.6796 37.6617C48.4183 37.8531 48.0753 37.9487 47.6506 37.9487L47.7416 37.8157C48.129 37.8157 48.4113 37.8811 48.5886 38.0117C48.7706 38.1377 48.8616 38.3384 48.8616 38.6137C48.8616 38.9731 48.717 39.2554 48.4276 39.4607C48.143 39.6614 47.7486 39.7617 47.2446 39.7617H45.5436ZM46.1106 39.3697H47.2726C47.618 39.3697 47.8863 39.3021 48.0776 39.1667C48.2736 39.0314 48.3716 38.8424 48.3716 38.5997C48.3716 38.4177 48.311 38.2871 48.1896 38.2077C48.0683 38.1284 47.8723 38.0887 47.6016 38.0887H46.3696L46.1106 39.3697ZM46.4396 37.7177H47.5386C47.8466 37.7177 48.094 37.6524 48.2806 37.5217C48.472 37.3864 48.5676 37.2067 48.5676 36.9827C48.5676 36.8101 48.5023 36.6817 48.3716 36.5977C48.2456 36.5137 48.0543 36.4717 47.7976 36.4717H46.6916L46.4396 37.7177ZM53.3864 39.7617L54.1214 36.0867H54.6184L53.8834 39.7617H53.3864ZM51.7904 37.3747C52.2011 37.3747 52.5091 37.4564 52.7144 37.6197C52.9244 37.7831 53.0294 38.0304 53.0294 38.3617C53.0294 38.6464 52.9571 38.8937 52.8124 39.1037C52.6724 39.3137 52.4741 39.4771 52.2174 39.5937C51.9608 39.7057 51.6598 39.7617 51.3144 39.7617H49.8024L50.5374 36.0937H51.0344L50.7824 37.3747H51.7904ZM51.3144 39.3837C51.5571 39.3837 51.7694 39.3441 51.9514 39.2647C52.1334 39.1807 52.2758 39.0664 52.3784 38.9217C52.4811 38.7724 52.5324 38.5997 52.5324 38.4037C52.5324 37.9651 52.2361 37.7457 51.6434 37.7457H50.7054L50.3764 39.3837H51.3144ZM56.5147 39.7617L58.4957 37.7317L58.4397 37.9767L57.3477 36.0867H57.8727L58.7827 37.6757L58.5587 37.6687L60.0847 36.0867H60.6587L58.7757 38.0257L58.8177 37.7457L59.9867 39.7617H59.4547L58.4957 38.0817H58.7197L57.1027 39.7617H56.5147ZM62.3654 39.7967C62.0247 39.7967 61.7284 39.7337 61.4764 39.6077C61.2291 39.4771 61.0354 39.2951 60.8954 39.0617C60.7601 38.8284 60.6924 38.5531 60.6924 38.2357C60.6924 37.8157 60.7834 37.4424 60.9654 37.1157C61.1474 36.7844 61.3994 36.5254 61.7214 36.3387C62.0434 36.1474 62.4097 36.0517 62.8204 36.0517C63.1611 36.0517 63.4551 36.1147 63.7024 36.2407C63.9544 36.3667 64.1481 36.5464 64.2834 36.7797C64.4234 37.0131 64.4934 37.2884 64.4934 37.6057C64.4934 38.0257 64.4024 38.4014 64.2204 38.7327C64.0384 39.0594 63.7864 39.3184 63.4644 39.5097C63.1471 39.7011 62.7807 39.7967 62.3654 39.7967ZM62.4004 39.3557C62.7084 39.3557 62.9814 39.2834 63.2194 39.1387C63.4621 38.9894 63.6511 38.7841 63.7864 38.5227C63.9264 38.2614 63.9964 37.9651 63.9964 37.6337C63.9964 37.2697 63.8891 36.9874 63.6744 36.7867C63.4644 36.5861 63.1681 36.4857 62.7854 36.4857C62.4821 36.4857 62.2091 36.5604 61.9664 36.7097C61.7237 36.8591 61.5324 37.0644 61.3924 37.3257C61.2571 37.5824 61.1894 37.8787 61.1894 38.2147C61.1894 38.5741 61.2944 38.8541 61.5044 39.0547C61.7191 39.2554 62.0177 39.3557 62.4004 39.3557ZM65.7397 39.7617L66.4117 36.3877L66.5097 36.5207H64.9977L65.0817 36.0867H68.3717L68.2807 36.5207H66.7547L66.9087 36.3877L66.2367 39.7617H65.7397ZM69.9134 39.7967C69.5634 39.7967 69.2578 39.7337 68.9964 39.6077C68.7398 39.4771 68.5414 39.2951 68.4014 39.0617C68.2661 38.8284 68.1984 38.5507 68.1984 38.2287C68.1984 37.8087 68.2871 37.4354 68.4644 37.1087C68.6418 36.7821 68.8844 36.5254 69.1924 36.3387C69.5004 36.1474 69.8481 36.0517 70.2354 36.0517C70.5621 36.0517 70.8444 36.1147 71.0824 36.2407C71.3204 36.3621 71.5048 36.5394 71.6354 36.7727C71.7708 37.0061 71.8384 37.2861 71.8384 37.6127C71.8384 37.6874 71.8338 37.7644 71.8244 37.8437C71.8151 37.9184 71.8034 37.9907 71.7894 38.0607H68.5624L68.6254 37.6897H71.5584L71.3554 37.8297C71.4021 37.5357 71.3811 37.2884 71.2924 37.0877C71.2038 36.8871 71.0661 36.7354 70.8794 36.6327C70.6974 36.5254 70.4781 36.4717 70.2214 36.4717C69.9228 36.4717 69.6568 36.5464 69.4234 36.6957C69.1901 36.8404 69.0081 37.0434 68.8774 37.3047C68.7468 37.5614 68.6814 37.8624 68.6814 38.2077C68.6814 38.5764 68.7864 38.8611 68.9964 39.0617C69.2111 39.2577 69.5308 39.3557 69.9554 39.3557C70.2028 39.3557 70.4314 39.3161 70.6414 39.2367C70.8514 39.1527 71.0241 39.0384 71.1594 38.8937L71.3834 39.2507C71.2108 39.4234 70.9938 39.5587 70.7324 39.6567C70.4758 39.7501 70.2028 39.7967 69.9134 39.7967ZM71.7986 39.7547L71.9176 39.3277C71.9502 39.3324 71.9806 39.3394 72.0086 39.3487C72.0366 39.3534 72.0622 39.3557 72.0856 39.3557C72.2536 39.3557 72.4006 39.2811 72.5266 39.1317C72.6572 38.9777 72.7739 38.7537 72.8766 38.4597C72.9839 38.1657 73.0912 37.8064 73.1986 37.3817L73.5206 36.0867H76.2156L75.4736 39.7617H74.9766L75.6556 36.3597L75.7606 36.5207H73.7586L73.9056 36.3597L73.6396 37.4307C73.5369 37.8321 73.4342 38.1821 73.3316 38.4807C73.2336 38.7747 73.1262 39.0197 73.0096 39.2157C72.8976 39.4117 72.7716 39.5587 72.6316 39.6567C72.4962 39.7547 72.3399 39.8037 72.1626 39.8037C72.1019 39.8037 72.0436 39.7991 71.9876 39.7897C71.9316 39.7804 71.8686 39.7687 71.7986 39.7547ZM76.8864 39.7617L77.6284 36.0867H78.1254L77.5304 39.0547L80.5544 36.0867H81.0304L80.2954 39.7617H79.7844L80.3934 36.7867L77.3694 39.7617H76.8864ZM83.5378 39.7617L84.2728 36.0867H84.7698L84.4478 37.7107H86.7578L87.0868 36.0867H87.5838L86.8488 39.7617H86.3518L86.6738 38.1377H84.3638L84.0348 39.7617H83.5378ZM89.8786 39.7967C89.5659 39.7967 89.2882 39.7337 89.0456 39.6077C88.8029 39.4817 88.6139 39.3021 88.4786 39.0687C88.3432 38.8354 88.2756 38.5577 88.2756 38.2357C88.2756 37.9231 88.3269 37.6337 88.4296 37.3677C88.5322 37.1017 88.6769 36.8707 88.8636 36.6747C89.0502 36.4741 89.2696 36.3201 89.5216 36.2127C89.7782 36.1054 90.0559 36.0517 90.3546 36.0517C90.6766 36.0517 90.9496 36.1101 91.1736 36.2267C91.3976 36.3387 91.5702 36.5044 91.6916 36.7237C91.8129 36.9384 91.8736 37.1997 91.8736 37.5077C91.8736 37.9511 91.7919 38.3454 91.6286 38.6907C91.4652 39.0361 91.2342 39.3067 90.9356 39.5027C90.6369 39.6987 90.2846 39.7967 89.8786 39.7967ZM89.9836 39.3557C90.2916 39.3557 90.5646 39.2834 90.8026 39.1387C91.0452 38.9894 91.2342 38.7841 91.3696 38.5227C91.5096 38.2614 91.5796 37.9651 91.5796 37.6337C91.5796 37.2697 91.4722 36.9874 91.2576 36.7867C91.0476 36.5861 90.7512 36.4857 90.3686 36.4857C90.0652 36.4857 89.7922 36.5604 89.5496 36.7097C89.3069 36.8591 89.1156 37.0644 88.9756 37.3257C88.8402 37.5824 88.7726 37.8787 88.7726 38.2147C88.7726 38.5741 88.8776 38.8541 89.0876 39.0547C89.3022 39.2554 89.6009 39.3557 89.9836 39.3557ZM91.1946 39.7617L91.4046 38.7047L91.6146 37.9627L91.6846 37.1927L91.9086 36.0867H92.4056L91.6706 39.7617H91.1946ZM93.0808 39.7617L93.8158 36.0867H97.1198L96.3848 39.7617H95.8878L96.5528 36.3877L96.6578 36.5207H94.0888L94.2428 36.3877L93.5778 39.7617H93.0808ZM97.7907 39.7617L98.5327 36.0867H99.0297L98.4347 39.0547L101.459 36.0867H101.935L101.2 39.7617H100.689L101.298 36.7867L98.2737 39.7617H97.7907ZM104.325 39.7967C103.975 39.7967 103.672 39.7337 103.415 39.6077C103.163 39.4771 102.967 39.2951 102.827 39.0617C102.692 38.8284 102.624 38.5531 102.624 38.2357C102.624 37.8157 102.715 37.4424 102.897 37.1157C103.079 36.7844 103.331 36.5254 103.653 36.3387C103.98 36.1474 104.351 36.0517 104.766 36.0517C105.107 36.0517 105.398 36.1147 105.641 36.2407C105.888 36.3621 106.08 36.5441 106.215 36.7867L105.795 37.0317C105.692 36.8451 105.55 36.7074 105.368 36.6187C105.191 36.5301 104.976 36.4857 104.724 36.4857C104.416 36.4857 104.141 36.5604 103.898 36.7097C103.655 36.8591 103.464 37.0644 103.324 37.3257C103.189 37.5824 103.121 37.8787 103.121 38.2147C103.121 38.5741 103.226 38.8541 103.436 39.0547C103.651 39.2554 103.954 39.3557 104.346 39.3557C104.584 39.3557 104.803 39.3114 105.004 39.2227C105.209 39.1294 105.377 38.9964 105.508 38.8237L105.865 39.0967C105.706 39.3161 105.489 39.4887 105.214 39.6147C104.939 39.7361 104.642 39.7967 104.325 39.7967ZM108.206 39.7967C107.893 39.7967 107.615 39.7337 107.373 39.6077C107.13 39.4817 106.941 39.3021 106.806 39.0687C106.67 38.8354 106.603 38.5577 106.603 38.2357C106.603 37.9231 106.654 37.6337 106.757 37.3677C106.859 37.1017 107.004 36.8707 107.191 36.6747C107.377 36.4741 107.597 36.3201 107.849 36.2127C108.105 36.1054 108.383 36.0517 108.682 36.0517C109.004 36.0517 109.277 36.1101 109.501 36.2267C109.725 36.3387 109.897 36.5044 110.019 36.7237C110.14 36.9384 110.201 37.1997 110.201 37.5077C110.201 37.9511 110.119 38.3454 109.956 38.6907C109.792 39.0361 109.561 39.3067 109.263 39.5027C108.964 39.6987 108.612 39.7967 108.206 39.7967ZM108.311 39.3557C108.619 39.3557 108.892 39.2834 109.13 39.1387C109.372 38.9894 109.561 38.7841 109.697 38.5227C109.837 38.2614 109.907 37.9651 109.907 37.6337C109.907 37.2697 109.799 36.9874 109.585 36.7867C109.375 36.5861 109.078 36.4857 108.696 36.4857C108.392 36.4857 108.119 36.5604 107.877 36.7097C107.634 36.8591 107.443 37.0644 107.303 37.3257C107.167 37.5824 107.1 37.8787 107.1 38.2147C107.1 38.5741 107.205 38.8541 107.415 39.0547C107.629 39.2554 107.928 39.3557 108.311 39.3557ZM109.522 39.7617L109.732 38.7047L109.942 37.9627L110.012 37.1927L110.236 36.0867H110.733L109.998 39.7617H109.522ZM112.108 39.7617L112.78 36.3877L112.878 36.5207H111.366L111.45 36.0867H114.74L114.649 36.5207H113.123L113.277 36.3877L112.605 39.7617H112.108ZM116.725 37.3747C117.141 37.3747 117.451 37.4564 117.656 37.6197C117.866 37.7831 117.971 38.0304 117.971 38.3617C117.971 38.6464 117.899 38.8937 117.754 39.1037C117.614 39.3137 117.416 39.4771 117.159 39.5937C116.903 39.7057 116.602 39.7617 116.256 39.7617H114.716L115.458 36.0867H115.948L115.696 37.3747H116.725ZM116.256 39.3837C116.499 39.3837 116.711 39.3441 116.893 39.2647C117.075 39.1807 117.218 39.0664 117.32 38.9217C117.423 38.7724 117.474 38.5997 117.474 38.4037C117.474 37.9651 117.178 37.7457 116.585 37.7457H115.619L115.29 39.3837H116.256ZM17.805 48.8037C17.2824 48.8037 16.874 48.6497 16.58 48.3417C16.286 48.0337 16.139 47.5881 16.139 47.0047C16.139 46.6174 16.1974 46.2487 16.314 45.8987C16.4307 45.5487 16.5964 45.2291 16.811 44.9397C17.0257 44.6504 17.2824 44.4077 17.581 44.2117C17.8797 44.0157 18.2087 43.8804 18.568 43.8057L20.276 43.4487L20.29 43.8757L18.68 44.2117C18.3067 44.2911 17.9754 44.4404 17.686 44.6597C17.4014 44.8791 17.168 45.1544 16.986 45.4857C16.8087 45.8171 16.692 46.1904 16.636 46.6057L16.489 46.5147C16.7037 46.1134 16.9814 45.8077 17.322 45.5977C17.6627 45.3877 18.043 45.2827 18.463 45.2827C18.9297 45.2827 19.2937 45.4111 19.555 45.6677C19.821 45.9197 19.954 46.2744 19.954 46.7317C19.954 47.1284 19.8607 47.4831 19.674 47.7957C19.492 48.1084 19.2377 48.3557 18.911 48.5377C18.589 48.7151 18.2204 48.8037 17.805 48.8037ZM17.84 48.4117C18.1387 48.4117 18.407 48.3417 18.645 48.2017C18.8877 48.0571 19.0767 47.8657 19.212 47.6277C19.352 47.3851 19.422 47.1121 19.422 46.8087C19.422 46.4634 19.324 46.1974 19.128 46.0107C18.932 45.8194 18.659 45.7237 18.309 45.7237C18.0897 45.7237 17.8797 45.7634 17.679 45.8427C17.4784 45.9221 17.2987 46.0294 17.14 46.1647C16.9814 46.3001 16.8554 46.4564 16.762 46.6337C16.6734 46.8111 16.629 47.0001 16.629 47.2007C16.629 47.5647 16.7364 47.8587 16.951 48.0827C17.1704 48.3021 17.4667 48.4117 17.84 48.4117ZM20.3628 50.1547C20.1901 50.1547 20.0244 50.1244 19.8658 50.0637C19.7071 50.0077 19.5811 49.9284 19.4878 49.8257L19.7538 49.4617C19.8331 49.5457 19.9264 49.6111 20.0338 49.6577C20.1411 49.7044 20.2624 49.7277 20.3978 49.7277C20.5564 49.7277 20.7011 49.6834 20.8318 49.5947C20.9671 49.5107 21.1071 49.3567 21.2518 49.1327L21.6228 48.5657L21.6858 48.4957L23.8698 45.0867H24.3808L21.6928 49.2377C21.5388 49.4711 21.3941 49.6531 21.2588 49.7837C21.1234 49.9191 20.9834 50.0147 20.8388 50.0707C20.6988 50.1267 20.5401 50.1547 20.3628 50.1547ZM21.5388 48.8667L20.5938 45.0867H21.0978L21.9238 48.4607L21.5388 48.8667ZM26.8529 48.5237L27.4549 45.5207H25.6839L25.4809 46.3607C25.4155 46.6081 25.3479 46.8507 25.2779 47.0887C25.2125 47.3221 25.1379 47.5367 25.0539 47.7327C24.9699 47.9287 24.8719 48.0897 24.7599 48.2157C24.6525 48.3371 24.5242 48.4071 24.3749 48.4257L23.8639 48.3277C24.0132 48.3324 24.1439 48.2811 24.2559 48.1737C24.3725 48.0617 24.4775 47.9077 24.5709 47.7117C24.6642 47.5157 24.7482 47.2941 24.8229 47.0467C24.8975 46.7994 24.9675 46.5474 25.0329 46.2907L25.3269 45.0867H28.0359L27.3499 48.5237H26.8529ZM23.4719 49.6507L23.7309 48.3277H27.9659L27.7069 49.6507H27.2379L27.4129 48.7617H24.1159L23.9409 49.6507H23.4719ZM30.5726 48.7967C30.2226 48.7967 29.9169 48.7337 29.6556 48.6077C29.3989 48.4771 29.2006 48.2951 29.0606 48.0617C28.9253 47.8284 28.8576 47.5507 28.8576 47.2287C28.8576 46.8087 28.9463 46.4354 29.1236 46.1087C29.3009 45.7821 29.5436 45.5254 29.8516 45.3387C30.1596 45.1474 30.5073 45.0517 30.8946 45.0517C31.2213 45.0517 31.5036 45.1147 31.7416 45.2407C31.9796 45.3621 32.1639 45.5394 32.2946 45.7727C32.4299 46.0061 32.4976 46.2861 32.4976 46.6127C32.4976 46.6874 32.4929 46.7644 32.4836 46.8437C32.4743 46.9184 32.4626 46.9907 32.4486 47.0607H29.2216L29.2846 46.6897H32.2176L32.0146 46.8297C32.0613 46.5357 32.0403 46.2884 31.9516 46.0877C31.8629 45.8871 31.7253 45.7354 31.5386 45.6327C31.3566 45.5254 31.1373 45.4717 30.8806 45.4717C30.5819 45.4717 30.3159 45.5464 30.0826 45.6957C29.8493 45.8404 29.6673 46.0434 29.5366 46.3047C29.4059 46.5614 29.3406 46.8624 29.3406 47.2077C29.3406 47.5764 29.4456 47.8611 29.6556 48.0617C29.8703 48.2577 30.1899 48.3557 30.6146 48.3557C30.8619 48.3557 31.0906 48.3161 31.3006 48.2367C31.5106 48.1527 31.6833 48.0384 31.8186 47.8937L32.0426 48.2507C31.8699 48.4234 31.6529 48.5587 31.3916 48.6567C31.1349 48.7501 30.8619 48.7967 30.5726 48.7967ZM33.7339 48.7617L34.4059 45.3877L34.5039 45.5207H32.9919L33.0759 45.0867H36.3659L36.2749 45.5207H34.7489L34.9029 45.3877L34.2309 48.7617H33.7339ZM37.5095 48.7547L37.6285 48.3277C37.6612 48.3324 37.6915 48.3394 37.7195 48.3487C37.7475 48.3534 37.7732 48.3557 37.7965 48.3557C37.9645 48.3557 38.1115 48.2811 38.2375 48.1317C38.3682 47.9777 38.4848 47.7537 38.5875 47.4597C38.6948 47.1657 38.8022 46.8064 38.9095 46.3817L39.2315 45.0867H41.9265L41.1845 48.7617H40.6875L41.3665 45.3597L41.4715 45.5207H39.4695L39.6165 45.3597L39.3505 46.4307C39.2478 46.8321 39.1452 47.1821 39.0425 47.4807C38.9445 47.7747 38.8372 48.0197 38.7205 48.2157C38.6085 48.4117 38.4825 48.5587 38.3425 48.6567C38.2072 48.7547 38.0508 48.8037 37.8735 48.8037C37.8128 48.8037 37.7545 48.7991 37.6985 48.7897C37.6425 48.7804 37.5795 48.7687 37.5095 48.7547ZM44.3334 48.7967C43.9834 48.7967 43.6777 48.7337 43.4164 48.6077C43.1597 48.4771 42.9614 48.2951 42.8214 48.0617C42.686 47.8284 42.6184 47.5507 42.6184 47.2287C42.6184 46.8087 42.707 46.4354 42.8844 46.1087C43.0617 45.7821 43.3044 45.5254 43.6124 45.3387C43.9204 45.1474 44.268 45.0517 44.6554 45.0517C44.982 45.0517 45.2644 45.1147 45.5024 45.2407C45.7404 45.3621 45.9247 45.5394 46.0554 45.7727C46.1907 46.0061 46.2584 46.2861 46.2584 46.6127C46.2584 46.6874 46.2537 46.7644 46.2444 46.8437C46.235 46.9184 46.2234 46.9907 46.2094 47.0607H42.9824L43.0454 46.6897H45.9784L45.7754 46.8297C45.822 46.5357 45.801 46.2884 45.7124 46.0877C45.6237 45.8871 45.486 45.7354 45.2994 45.6327C45.1174 45.5254 44.898 45.4717 44.6414 45.4717C44.3427 45.4717 44.0767 45.5464 43.8434 45.6957C43.61 45.8404 43.428 46.0434 43.2974 46.3047C43.1667 46.5614 43.1014 46.8624 43.1014 47.2077C43.1014 47.5764 43.2064 47.8611 43.4164 48.0617C43.631 48.2577 43.9507 48.3557 44.3754 48.3557C44.6227 48.3557 44.8514 48.3161 45.0614 48.2367C45.2714 48.1527 45.444 48.0384 45.5794 47.8937L45.8034 48.2507C45.6307 48.4234 45.4137 48.5587 45.1524 48.6567C44.8957 48.7501 44.6227 48.7967 44.3334 48.7967ZM46.9587 48.7617L47.6937 45.0867H50.3047L50.2137 45.5207H47.9737L48.1207 45.3947L47.4557 48.7617H46.9587ZM52.9829 48.7617L51.8559 46.9347L52.2689 46.7457L53.5499 48.7617H52.9829ZM50.2809 48.7617L51.0229 45.0867H51.5199L50.7779 48.7617H50.2809ZM50.9599 47.1237L51.0369 46.6967H52.2199L52.1429 47.1237H50.9599ZM52.2829 46.9767L51.7999 46.9067L53.6409 45.0867H54.2009L52.2829 46.9767ZM55.8918 48.7967C55.5511 48.7967 55.2548 48.7337 55.0028 48.6077C54.7554 48.4771 54.5618 48.2951 54.4218 48.0617C54.2864 47.8284 54.2188 47.5531 54.2188 47.2357C54.2188 46.8157 54.3098 46.4424 54.4918 46.1157C54.6738 45.7844 54.9258 45.5254 55.2478 45.3387C55.5698 45.1474 55.9361 45.0517 56.3468 45.0517C56.6874 45.0517 56.9814 45.1147 57.2288 45.2407C57.4808 45.3667 57.6744 45.5464 57.8098 45.7797C57.9498 46.0131 58.0198 46.2884 58.0198 46.6057C58.0198 47.0257 57.9288 47.4014 57.7468 47.7327C57.5648 48.0594 57.3128 48.3184 56.9908 48.5097C56.6734 48.7011 56.3071 48.7967 55.8918 48.7967ZM55.9268 48.3557C56.2348 48.3557 56.5078 48.2834 56.7458 48.1387C56.9884 47.9894 57.1774 47.7841 57.3128 47.5227C57.4528 47.2614 57.5228 46.9651 57.5228 46.6337C57.5228 46.2697 57.4154 45.9874 57.2008 45.7867C56.9908 45.5861 56.6944 45.4857 56.3118 45.4857C56.0084 45.4857 55.7354 45.5604 55.4928 45.7097C55.2501 45.8591 55.0588 46.0644 54.9188 46.3257C54.7834 46.5824 54.7158 46.8787 54.7158 47.2147C54.7158 47.5741 54.8208 47.8541 55.0308 48.0547C55.2454 48.2554 55.5441 48.3557 55.9268 48.3557ZM63.1809 47.2147C62.9522 47.3127 62.7235 47.3874 62.4949 47.4387C62.2662 47.4854 62.0492 47.5087 61.8439 47.5087C61.4005 47.5087 61.0692 47.4061 60.8499 47.2007C60.6352 46.9954 60.5675 46.6874 60.6469 46.2767L60.8849 45.0867H61.3819L61.1439 46.2837C61.0879 46.5637 61.1322 46.7714 61.2769 46.9067C61.4262 47.0374 61.6502 47.1027 61.9489 47.1027C62.1402 47.1027 62.3432 47.0771 62.5579 47.0257C62.7772 46.9697 63.0012 46.8951 63.2299 46.8017L63.1809 47.2147ZM62.8169 48.7617L63.5519 45.0867H64.0489L63.3139 48.7617H62.8169ZM64.7184 48.7617L65.4604 45.0867H65.9574L65.3624 48.0547L68.3864 45.0867H68.8624L68.1274 48.7617H67.6164L68.2254 45.7867L65.2014 48.7617H64.7184ZM70.2378 48.7617L70.9098 45.3877L71.0078 45.5207H69.4958L69.5798 45.0867H72.8698L72.7788 45.5207H71.2528L71.4068 45.3877L70.7348 48.7617H70.2378ZM74.2995 48.7967C73.9868 48.7967 73.7091 48.7337 73.4665 48.6077C73.2238 48.4817 73.0348 48.3021 72.8995 48.0687C72.7641 47.8354 72.6965 47.5577 72.6965 47.2357C72.6965 46.9231 72.7478 46.6337 72.8505 46.3677C72.9531 46.1017 73.0978 45.8707 73.2845 45.6747C73.4711 45.4741 73.6905 45.3201 73.9425 45.2127C74.1991 45.1054 74.4768 45.0517 74.7755 45.0517C75.0975 45.0517 75.3705 45.1101 75.5945 45.2267C75.8185 45.3387 75.9911 45.5044 76.1125 45.7237C76.2338 45.9384 76.2945 46.1997 76.2945 46.5077C76.2945 46.9511 76.2128 47.3454 76.0495 47.6907C75.8861 48.0361 75.6551 48.3067 75.3565 48.5027C75.0578 48.6987 74.7055 48.7967 74.2995 48.7967ZM74.4045 48.3557C74.7125 48.3557 74.9855 48.2834 75.2235 48.1387C75.4661 47.9894 75.6551 47.7841 75.7905 47.5227C75.9305 47.2614 76.0005 46.9651 76.0005 46.6337C76.0005 46.2697 75.8931 45.9874 75.6785 45.7867C75.4685 45.5861 75.1721 45.4857 74.7895 45.4857C74.4861 45.4857 74.2131 45.5604 73.9705 45.7097C73.7278 45.8591 73.5365 46.0644 73.3965 46.3257C73.2611 46.5824 73.1935 46.8787 73.1935 47.2147C73.1935 47.5741 73.2985 47.8541 73.5085 48.0547C73.7231 48.2554 74.0218 48.3557 74.4045 48.3557ZM75.6155 48.7617L75.8255 47.7047L76.0355 46.9627L76.1055 46.1927L76.3295 45.0867H76.8265L76.0915 48.7617H75.6155ZM78.2016 48.7617L78.8736 45.3877L78.9716 45.5207H77.4596L77.5436 45.0867H80.8336L80.7426 45.5207H79.2166L79.3706 45.3877L78.6986 48.7617H78.2016ZM82.8192 46.3747C83.2346 46.3747 83.5449 46.4564 83.7502 46.6197C83.9602 46.7831 84.0652 47.0304 84.0652 47.3617C84.0652 47.6464 83.9929 47.8937 83.8482 48.1037C83.7082 48.3137 83.5099 48.4771 83.2532 48.5937C82.9966 48.7057 82.6956 48.7617 82.3502 48.7617H80.8102L81.5522 45.0867H82.0422L81.7902 46.3747H82.8192ZM82.3502 48.3837C82.5929 48.3837 82.8052 48.3441 82.9872 48.2647C83.1692 48.1807 83.3116 48.0664 83.4142 47.9217C83.5169 47.7724 83.5682 47.5997 83.5682 47.4037C83.5682 46.9651 83.2719 46.7457 82.6792 46.7457H81.7132L81.3842 48.3837H82.3502ZM86.4559 48.7967C86.1059 48.7967 85.8026 48.7337 85.5459 48.6077C85.2939 48.4771 85.0979 48.2951 84.9579 48.0617C84.8226 47.8284 84.7549 47.5531 84.7549 47.2357C84.7549 46.8157 84.8459 46.4424 85.0279 46.1157C85.2099 45.7844 85.4619 45.5254 85.7839 45.3387C86.1106 45.1474 86.4816 45.0517 86.8969 45.0517C87.2376 45.0517 87.5292 45.1147 87.7719 45.2407C88.0192 45.3621 88.2106 45.5441 88.3459 45.7867L87.9259 46.0317C87.8232 45.8451 87.6809 45.7074 87.4989 45.6187C87.3216 45.5301 87.1069 45.4857 86.8549 45.4857C86.5469 45.4857 86.2716 45.5604 86.0289 45.7097C85.7862 45.8591 85.5949 46.0644 85.4549 46.3257C85.3196 46.5824 85.2519 46.8787 85.2519 47.2147C85.2519 47.5741 85.3569 47.8541 85.5669 48.0547C85.7816 48.2554 86.0849 48.3557 86.4769 48.3557C86.7149 48.3557 86.9342 48.3114 87.1349 48.2227C87.3402 48.1294 87.5082 47.9964 87.6389 47.8237L87.9959 48.0967C87.8372 48.3161 87.6202 48.4887 87.3449 48.6147C87.0696 48.7361 86.7732 48.7967 86.4559 48.7967ZM91.0381 48.7617L91.3041 47.4247L91.3811 47.5577H90.1491C89.7197 47.5577 89.3931 47.4644 89.1691 47.2777C88.9451 47.0864 88.8331 46.8227 88.8331 46.4867C88.8331 46.0481 88.9964 45.7051 89.3231 45.4577C89.6497 45.2104 90.0954 45.0867 90.6601 45.0867H92.2211L91.4931 48.7617H91.0381ZM88.3501 48.7617L89.6451 47.3477H90.1701L88.9171 48.7617H88.3501ZM91.3321 47.2987L91.7171 45.3527L91.7871 45.5137H90.6251C90.2191 45.5137 89.9041 45.5977 89.6801 45.7657C89.4561 45.9337 89.3441 46.1717 89.3441 46.4797C89.3441 46.9324 89.6381 47.1587 90.2261 47.1587H91.4441L91.3321 47.2987Z" fill="white"/>
<path d="M153.884 43.5117L153.002 49.0534L149.473 48.1784L151.237 52.2617L146.826 51.9701L148.884 56.0534L145.649 57.5117L149.473 59.5534L145.649 62.7617L148.296 64.5117L147.414 68.0117H150.649L149.473 71.5117H153.884L155.355 75.8867L158.296 73.2617L160.649 75.8867L163.002 73.2617L165.649 76.7617L167.12 73.2617L170.355 75.8867L171.531 71.5117H174.178V68.0117L178.296 67.1367L175.943 64.5117L180.649 61.8867L176.826 59.5534L179.178 56.6367L175.943 54.8867L179.178 51.6784H174.178V48.1784H171.531V43.5117L166.237 46.1367L165.649 42.6367L161.826 45.5534L159.473 41.7617L157.708 47.0117L153.884 43.5117Z" fill="white" stroke="#F88E14"/>
<path d="M145.058 218.184L146.594 225.052L142.075 225.665L146.021 229.608L140.743 231.309L145.032 235.117L141.936 238.313L147.337 238.924L144.365 244.433L148.26 245.248L148.85 249.736L152.622 248.239L152.87 252.864L158.012 250.823L161.751 255.242L163.965 250.821L167.922 252.793L169.45 248.644L174.155 251.499L174.25 246.739L179.235 248.302L178.583 242.658L181.668 241.434L180.049 237.354L184.444 234.429L180.487 232.458L184.758 227.221L179.221 226.27L180.615 221.781L176.034 221.238L178.321 216.001L172.493 218.315L170.873 214.235L167.788 215.459L165.629 210.02L160.672 215.529L158.367 211.721L155.26 216.89L150.763 213.559L151.134 220.495L145.058 218.184Z" fill="white" stroke="#F88E14"/>
<path d="M95.7752 162.985L112.275 164.798L132.228 161.774L138.476 156.2L140.207 140.448L134.72 139.093L117.8 140.156L123.98 143.756L127.917 149.718C127.144 151.685 125.498 155.776 125.095 156.399C124.693 157.023 120.439 158.253 118.362 158.79L114.667 154.419L104.544 157.271L92.8713 149.52L82.7495 144.755L58.2476 147.385L74.3345 149.152L78.3927 153.563L86.0818 161.92L87.5255 162.079L95.7752 162.985Z" fill="#F88E14"/>
<path d="M112.275 164.798L95.7752 162.985L91.166 178.338L110.893 177.376L136.686 172.489L153.471 164.108L159.118 154.503L153.01 143.607L140.207 140.448L138.476 156.2L132.228 161.774L112.275 164.798Z" fill="#F88E14"/>
<path d="M55.3602 147.068C54.2053 146.941 44.8862 156.907 40.371 161.906C41.2376 164.783 43.4115 171.088 45.174 173.285C46.9364 175.482 52.2831 178.239 54.7361 179.344L73.2979 181.383L91.166 178.338L95.7752 162.985L87.5255 162.079L88.5817 163.864C89.3848 164.787 90.9729 166.798 90.9004 167.458C90.8279 168.118 89.6812 169.689 89.1169 170.392L84.4913 172.597L79.6797 172.694L73.8417 176.435L67.2919 179.054C65.0081 178.942 60.1931 178.691 59.2032 178.582C57.9657 178.446 53.5416 176.917 51.3636 175.843C49.6212 174.984 47.7486 173.915 47.0302 173.489C46.3177 171.741 44.9108 168.081 44.9833 167.421C45.0558 166.761 46.5364 163.418 47.2676 161.829C48.1749 160.538 50.1036 157.675 50.5604 156.557C51.0173 155.438 58.3099 154.417 61.8991 154.046L70.7198 153.555L73.9041 153.07L78.3927 153.563L74.3345 149.152L58.2476 147.385L55.3602 147.068Z" fill="#F88E14"/>
<path d="M99.9087 141.443L88.0301 144.188L82.7495 144.755L92.8713 149.52L104.544 157.271L114.667 154.419L118.362 158.79C120.439 158.253 124.693 157.023 125.095 156.399C125.498 155.776 127.144 151.685 127.917 149.718L123.98 143.756L117.8 140.156L111.275 140.565L110.574 142.283L116.883 148.506L110.098 146.613C109.581 148.156 108.408 151.352 107.859 151.793C107.172 152.343 104.305 149.941 102.907 149.37C101.788 148.914 103.826 145.437 104.985 143.756L101.391 146.074L96.2595 147.179L94.1721 145.281L99.9087 141.443Z" fill="white"/>
<path d="M114 133.895L112.622 131.24L110.177 136.397L101.99 131.115L101.515 135.445L94.5025 134.674L92.7416 137.402L92.4245 140.289L104.085 138.649L99.9087 141.443L100.88 141.218L111.275 140.565L114 133.895Z" fill="#048B28"/>
<path d="M116.883 148.506L110.574 142.283L111.275 140.565L100.88 141.218L99.9087 141.443L94.1721 145.281L96.2595 147.179L101.391 146.074L104.985 143.756C103.826 145.437 101.788 148.914 102.907 149.37C104.305 149.941 107.172 152.343 107.859 151.793C108.408 151.352 109.581 148.156 110.098 146.613L116.883 148.506Z" fill="#048B28"/>
<path fill-rule="evenodd" clip-rule="evenodd" d="M73.9041 153.07L70.7198 153.555L61.8991 154.046C58.3099 154.417 51.0173 155.438 50.5604 156.557C50.1036 157.675 48.1749 160.538 47.2676 161.829C46.5364 163.418 45.0558 166.761 44.9833 167.421C44.9108 168.081 46.3177 171.741 47.0302 173.489C47.7486 173.915 49.6212 174.984 51.3636 175.843C53.5416 176.917 57.9657 178.446 59.2032 178.582C60.1931 178.691 65.0081 178.942 67.2919 179.054L73.8417 176.435L79.6797 172.694L84.4913 172.597L89.1169 170.392C89.6812 169.689 90.8279 168.118 90.9004 167.458C90.9729 166.798 89.3848 164.787 88.5817 163.864L87.5255 162.079L86.0818 161.92L78.3927 153.563L73.9041 153.07ZM51.6737 167.321L57.736 159.64L60.8796 163.325L55.4611 172.746L48.0364 171.93L47.5739 168.54L51.6737 167.321ZM63.2639 164.421L69.9043 160.977L74.1947 165.622L65.2857 168.817L63.2639 164.421ZM71.6448 160.334L69.1176 154.839L79.0648 157.393L77.5771 160.986L71.6448 160.334ZM78.4376 168.801L78.4758 162.754L85.3748 164.555L85.2436 169.549L78.4376 168.801ZM62.4304 175.807L61.739 172.601L74.6799 168.806L76.1952 173.563L62.4304 175.807Z" fill="white"/>
<path d="M69.9043 160.977L63.2639 164.421L65.2857 168.817L74.1947 165.622L69.9043 160.977Z" fill="#F88E14"/>
<path d="M78.4758 162.754L78.4376 168.801L85.2436 169.549L85.3748 164.555L78.4758 162.754Z" fill="#C42733"/>
<path d="M57.736 159.64L51.6737 167.321L47.5739 168.54L48.0364 171.93L55.4611 172.746L60.8796 163.325L57.736 159.64Z" fill="#C42733"/>
<path d="M61.739 172.601L62.4304 175.807L76.1952 173.563L74.6799 168.806L61.739 172.601Z" fill="#048B28"/>
<path d="M69.1176 154.839L71.6448 160.334L77.5771 160.986L79.0648 157.393L69.1176 154.839Z" fill="#048B28"/>
<path d="M102.725 205.032L124.977 201.615L150.056 190.648L156.285 181.153L153.023 159.907L145.359 160.06L123.565 167.391L132.925 169.939L140.176 176.367C139.854 179.216 139.133 185.153 138.825 186.111C138.517 187.069 133.375 190.173 130.843 191.606L124.468 187.177L112.206 194.468L94.1932 188.41L79.2599 185.721L48.0828 197.767L69.7789 194.436L76.6439 198.79L89.6512 207.039L91.5983 206.74L102.725 205.032Z" fill="#F88E14"/>
<path d="M124.977 201.615L102.725 205.032L102.076 226.764L127.582 218.578L159.659 203.121L178.706 186.249L182.733 171.683L170.906 159.552L153.023 159.907L156.285 181.153L150.056 190.648L124.977 201.615Z" fill="#F88E14"/>
<path d="M44.1886 198.365C42.6309 198.605 33.9204 214.933 29.7599 223.067C31.9054 226.533 36.9666 234.029 40.0468 236.288C43.127 238.548 51.0998 240.284 54.7012 240.87L79.7352 237.025L102.076 226.764L102.725 205.032L91.5983 206.74L93.6088 208.709C94.985 209.636 97.7714 211.713 97.9081 212.603C98.0447 213.493 97.0939 215.954 96.6015 217.073L91.3153 221.585L85.0458 223.401L78.7104 230.352L71.049 236.082C68.0177 236.737 61.6214 238.099 60.2863 238.304C58.6174 238.56 52.2844 238.11 49.0539 237.467C46.4695 236.953 43.6413 236.211 42.5502 235.904C41.0033 233.865 37.8752 229.563 37.7386 228.673C37.6019 227.783 38.3681 222.884 38.7682 220.545C39.5035 218.535 41.0254 214.107 41.2314 212.482C41.4373 210.856 50.633 206.958 55.205 205.213L66.5887 201.472L70.5902 199.719L76.6439 198.79L69.7789 194.436L48.0828 197.767L44.1886 198.365Z" fill="#F88E14"/>
<path d="M100.578 175.358L85.9791 183.125L79.2599 185.721L94.1932 188.41L112.206 194.468L124.468 187.177L130.843 191.606C133.375 190.173 138.517 187.069 138.825 186.111C139.133 185.153 139.854 179.216 140.176 176.367L132.925 169.939L123.565 167.391L115.161 170.218L114.845 172.715L125.295 178.652L115.742 178.554C115.606 180.758 115.192 185.356 114.627 186.126C113.92 187.089 109.321 184.948 107.288 184.691C105.662 184.486 107.112 179.215 108.04 176.606L104.145 180.905L97.8104 184.154L94.4091 182.399L100.578 175.358Z" fill="white"/>
<path d="M116.39 160.523L113.652 157.528L112.259 165.142L99.6794 161.096L100.576 166.936L91.1188 168.388L89.7695 172.58L90.3673 176.473L105.068 170.231L100.578 175.358L101.772 174.722L115.161 170.218L116.39 160.523Z" fill="#048B28"/>
<path d="M125.295 178.652L114.845 172.715L115.161 170.218L101.772 174.722L100.578 175.358L94.4091 182.399L97.8104 184.154L104.145 180.905L108.04 176.606C107.112 179.215 105.662 184.486 107.288 184.691C109.321 184.948 113.92 187.089 114.627 186.126C115.192 185.356 115.606 180.758 115.742 178.554L125.295 178.652Z" fill="#048B28"/>
<path fill-rule="evenodd" clip-rule="evenodd" d="M70.5902 199.719L66.5887 201.472L55.205 205.213C50.633 206.958 41.4373 210.856 41.2314 212.482C41.0254 214.107 39.5035 218.535 38.7682 220.545C38.3681 222.884 37.6019 227.783 37.7386 228.673C37.8752 229.563 41.0033 233.865 42.5502 235.904C43.6413 236.211 46.4695 236.953 49.0539 237.467C52.2844 238.11 58.6174 238.56 60.2863 238.304C61.6214 238.099 68.0177 236.737 71.049 236.082L78.7104 230.352L85.0458 223.401L91.3153 221.585L96.6015 217.073C97.0939 215.954 98.0447 213.493 97.9081 212.603C97.7714 211.713 94.985 209.636 93.6088 208.709L91.5983 206.74L89.6512 207.039L76.6439 198.79L70.5902 199.719ZM46.4688 226.194L51.7147 214.003L57.1265 217.726L53.3348 231.971L43.3212 233.509L41.5254 229.23L46.4688 226.194ZM60.6352 218.326L68.1259 211.483L75.3774 216.062L64.8271 223.375L60.6352 218.326ZM70.1803 210.029L64.9405 203.718L78.869 203.572L78.1811 208.801L70.1803 210.029ZM82.052 218.738L79.9792 210.802L89.65 210.74L91.2311 217.328L82.052 218.738ZM63.54 233.535L61.5087 229.577L77.1306 220.063L80.7858 225.763L63.54 233.535Z" fill="white"/>
<path d="M68.1259 211.483L60.6352 218.326L64.8271 223.375L75.3774 216.062L68.1259 211.483Z" fill="#F88E14"/>
<path d="M79.9792 210.802L82.052 218.738L91.2311 217.328L89.65 210.74L79.9792 210.802Z" fill="#C42733"/>
<path d="M51.7147 214.003L46.4688 226.194L41.5254 229.23L43.3212 233.509L53.3348 231.971L57.1265 217.726L51.7147 214.003Z" fill="#C42733"/>
<path d="M61.5087 229.577L63.54 233.535L80.7858 225.763L77.1306 220.063L61.5087 229.577Z" fill="#048B28"/>
<path d="M64.9405 203.718L70.1803 210.029L78.1811 208.801L78.869 203.572L64.9405 203.718Z" fill="#048B28"/>
<path d="M149.224 229.219L151.055 229.542L148.67 235.677L146.838 235.354L149.224 229.219ZM150.609 228.55C150.294 228.494 150.05 228.358 149.877 228.14C149.713 227.916 149.655 227.671 149.702 227.403C149.758 227.088 149.914 226.847 150.171 226.681C150.437 226.509 150.751 226.454 151.113 226.518C151.436 226.575 151.68 226.712 151.845 226.928C152.02 227.137 152.084 227.372 152.038 227.632C151.978 227.971 151.816 228.226 151.55 228.399C151.285 228.563 150.971 228.613 150.609 228.55ZM153.282 234.175C153.256 234.235 153.232 234.321 153.213 234.431C153.141 234.841 153.329 235.085 153.778 235.164C154.022 235.207 154.284 235.176 154.562 235.071L154.603 236.431C154.149 236.611 153.599 236.644 152.953 236.53C152.354 236.424 151.901 236.182 151.594 235.803C151.287 235.424 151.183 234.958 151.28 234.407C151.308 234.249 151.36 234.068 151.437 233.862L152.397 231.387L151.416 231.214L151.95 229.846L152.931 230.019L153.511 228.525L155.355 228.85L154.774 230.344L156.358 230.623L155.824 231.991L154.241 231.712L153.282 234.175ZM164.159 231.853L161.773 237.988L160.024 237.679L160.253 237.074C159.64 237.461 158.948 237.587 158.176 237.451C157.679 237.363 157.242 237.168 156.865 236.866C156.488 236.564 156.211 236.178 156.034 235.708C155.866 235.232 155.833 234.702 155.936 234.119C156.06 233.418 156.324 232.815 156.73 232.31C157.146 231.798 157.649 231.432 158.24 231.211C158.833 230.983 159.452 230.925 160.098 231.039C161.075 231.211 161.708 231.652 161.997 232.361L162.315 231.528L164.159 231.853ZM159.012 236.026C159.374 236.09 159.712 236.06 160.027 235.937C160.342 235.806 160.606 235.597 160.82 235.309C161.033 235.022 161.175 234.673 161.248 234.264C161.324 233.83 161.255 233.465 161.039 233.167C160.831 232.87 160.499 232.682 160.042 232.601C159.68 232.537 159.341 232.571 159.025 232.702C158.711 232.825 158.447 233.031 158.234 233.318C158.021 233.605 157.878 233.954 157.806 234.364C157.73 234.797 157.795 235.162 158.003 235.458C158.218 235.756 158.555 235.946 159.012 236.026ZM166.775 229.828L168.619 230.153L165.323 238.614L163.48 238.288L166.775 229.828ZM169.42 232.78L171.252 233.103L168.866 239.238L167.034 238.915L169.42 232.78ZM170.805 232.111C170.49 232.055 170.246 231.919 170.073 231.701C169.91 231.478 169.851 231.232 169.899 230.964C169.954 230.649 170.11 230.408 170.367 230.242C170.633 230.07 170.947 230.016 171.31 230.079C171.633 230.136 171.877 230.273 172.042 230.489C172.216 230.698 172.28 230.933 172.234 231.193C172.175 231.532 172.012 231.787 171.746 231.96C171.481 232.124 171.168 232.175 170.805 232.111ZM173.917 240.226C173.263 240.111 172.713 239.892 172.266 239.57C171.819 239.247 171.499 238.85 171.306 238.377C171.123 237.898 171.081 237.375 171.181 236.807C171.305 236.106 171.581 235.505 172.011 235.004C172.44 234.503 172.979 234.143 173.627 233.924C174.275 233.705 174.969 233.661 175.71 233.792C176.387 233.911 176.945 234.156 177.384 234.526C177.831 234.889 178.132 235.348 178.286 235.903L176.589 236.408C176.414 235.784 175.992 235.414 175.323 235.295C174.96 235.232 174.617 235.265 174.294 235.394C173.98 235.518 173.712 235.722 173.491 236.008C173.278 236.296 173.136 236.64 173.065 237.042C172.989 237.475 173.057 237.845 173.272 238.151C173.487 238.449 173.827 238.639 174.292 238.721C174.97 238.84 175.54 238.648 176.002 238.145L177.211 239.235C176.819 239.662 176.332 239.962 175.749 240.135C175.174 240.31 174.563 240.34 173.917 240.226Z" fill="#F88E14"/>
<path fill-rule="evenodd" clip-rule="evenodd" d="M158.649 50.7617H159.263V69.3862L170.361 52.7394L170.871 53.0798L158.649 71.4131V50.7617Z" fill="#F88E14"/>
<path fill-rule="evenodd" clip-rule="evenodd" d="M162.049 60.3203C161.263 60.2142 160.379 60.4503 159.105 61.156L158.807 60.6192C160.122 59.8906 161.15 59.5797 162.131 59.7121C163.107 59.8439 163.974 60.4073 164.985 61.2676L164.587 61.7349C163.592 60.8877 162.839 60.4271 162.049 60.3203Z" fill="#F88E14"/>
<path d="M168.127 53.2901C167.947 53.2901 167.781 53.2472 167.63 53.1612C167.482 53.0753 167.364 52.9587 167.274 52.8114C167.188 52.6601 167.145 52.4944 167.145 52.3144C167.145 52.1384 167.188 51.9768 167.274 51.8295C167.364 51.6782 167.482 51.5595 167.63 51.4736C167.781 51.3877 167.947 51.3447 168.127 51.3447C168.307 51.3447 168.47 51.3877 168.618 51.4736C168.769 51.5595 168.888 51.6782 168.974 51.8295C169.059 51.9768 169.102 52.1384 169.102 52.3144C169.102 52.4944 169.059 52.6601 168.974 52.8114C168.888 52.9587 168.769 53.0753 168.618 53.1612C168.47 53.2472 168.307 53.2901 168.127 53.2901ZM168.127 53.0324C168.327 53.0324 168.495 52.9649 168.63 52.8298C168.765 52.6907 168.832 52.5189 168.832 52.3144C168.832 52.1139 168.765 51.9461 168.63 51.8111C168.495 51.672 168.327 51.6025 168.127 51.6025C167.926 51.6025 167.756 51.67 167.617 51.805C167.482 51.94 167.415 52.1098 167.415 52.3144C167.415 52.5189 167.482 52.6907 167.617 52.8298C167.756 52.9649 167.926 53.0324 168.127 53.0324Z" fill="#F88E14"/>
<path d="M164.162 55.7081C163.724 55.7081 163.381 55.571 163.131 55.2969C162.886 55.0228 162.763 54.6423 162.763 54.1554C162.763 53.6645 162.851 53.2042 163.027 52.7746C163.203 52.341 163.454 51.9932 163.781 51.7314C164.109 51.4695 164.485 51.3386 164.911 51.3386C165.348 51.3386 165.69 51.4757 165.936 51.7498C166.185 52.0239 166.31 52.4044 166.31 52.8912C166.31 53.3822 166.222 53.8445 166.046 54.2782C165.87 54.7078 165.618 55.0535 165.291 55.3153C164.964 55.5771 164.587 55.7081 164.162 55.7081ZM164.199 55.303C164.534 55.303 164.829 55.1844 165.083 54.9471C165.336 54.7057 165.528 54.3989 165.659 54.0266C165.794 53.6543 165.862 53.2779 165.862 52.8974C165.862 52.5251 165.774 52.2407 165.598 52.0444C165.426 51.8439 165.185 51.7437 164.874 51.7437C164.538 51.7437 164.244 51.8643 163.99 52.1057C163.736 52.343 163.542 52.6478 163.407 53.0201C163.276 53.3924 163.211 53.7688 163.211 54.1493C163.211 54.5216 163.297 54.808 163.469 55.0085C163.644 55.2048 163.888 55.303 164.199 55.303Z" fill="#F88E14"/>
<path d="M162.233 51.3755L161.374 55.6713H160.926L161.705 51.7682H160.693L160.773 51.3755H162.233Z" fill="#F88E14"/>
<path d="M95.473 100.37H98.065L96.593 107.698H92.849L93.649 103.762H78.641L82.065 86.6737H86.033L83.313 100.37H91.473L94.193 86.6737H98.193L95.473 100.37Z" fill="white"/>
<path d="M101.097 114.242V114.434C101.097 116.012 101.545 117.218 102.441 118.05C103.337 118.86 104.681 119.266 106.473 119.266C107.518 119.266 108.5 119.095 109.417 118.754C110.334 118.391 111.102 117.911 111.721 117.314L113.033 119.522C112.201 120.29 111.188 120.887 109.993 121.314C108.798 121.74 107.54 121.954 106.217 121.954C104.553 121.954 103.113 121.655 101.897 121.058C100.681 120.46 99.7424 119.607 99.081 118.498C98.4197 117.388 98.089 116.087 98.089 114.594C98.089 112.695 98.4944 110.988 99.305 109.474C100.137 107.959 101.278 106.775 102.729 105.922C104.201 105.068 105.844 104.642 107.657 104.642C109.961 104.642 111.796 105.303 113.161 106.626C114.548 107.927 115.241 109.708 115.241 111.97C115.241 112.652 115.166 113.41 115.017 114.242H101.097ZM107.529 107.202C106.014 107.202 104.713 107.628 103.625 108.482C102.537 109.335 101.801 110.508 101.417 112.002H112.361C112.446 110.487 112.041 109.314 111.145 108.482C110.27 107.628 109.065 107.202 107.529 107.202Z" fill="white"/>
<path d="M129.769 95.8017C131.198 95.8017 132.468 96.0897 133.577 96.6657C134.708 97.2417 135.582 98.0631 136.201 99.1297C136.82 100.196 137.129 101.455 137.129 102.906C137.129 104.804 136.713 106.522 135.881 108.058C135.07 109.572 133.94 110.767 132.489 111.642C131.038 112.495 129.406 112.922 127.593 112.922C125.993 112.922 124.649 112.612 123.561 111.994C122.473 111.354 121.684 110.436 121.193 109.242L119.273 118.97H117.001L121.577 95.9297H123.753L123.209 98.6177C124.02 97.7004 124.98 97.0071 126.089 96.5377C127.198 96.0471 128.425 95.8017 129.769 95.8017ZM127.561 110.906C128.948 110.906 130.185 110.575 131.273 109.914C132.382 109.231 133.246 108.292 133.865 107.098C134.505 105.903 134.825 104.548 134.825 103.034C134.825 101.391 134.334 100.111 133.353 99.1937C132.393 98.2551 131.038 97.7857 129.289 97.7857C127.902 97.7857 126.654 98.1271 125.545 98.8097C124.457 99.4711 123.593 100.41 122.953 101.626C122.334 102.82 122.025 104.175 122.025 105.69C122.025 107.332 122.505 108.612 123.465 109.53C124.446 110.447 125.812 110.906 127.561 110.906Z" fill="white"/>
<path d="M147.705 108.93C149.881 108.93 151.63 109.559 152.953 110.818C154.276 112.055 154.937 113.74 154.937 115.874C154.937 117.772 154.521 119.49 153.689 121.026C152.878 122.54 151.748 123.735 150.297 124.61C148.868 125.463 147.257 125.89 145.465 125.89C143.737 125.89 142.308 125.527 141.177 124.802C140.068 124.055 139.3 122.988 138.873 121.602L136.793 131.97H135.193L139.769 109.058H141.337L140.697 112.29C141.508 111.223 142.51 110.402 143.705 109.826C144.9 109.228 146.233 108.93 147.705 108.93ZM145.497 124.45C146.99 124.45 148.324 124.087 149.497 123.362C150.692 122.615 151.62 121.602 152.281 120.322C152.964 119.042 153.305 117.591 153.305 115.97C153.305 114.199 152.782 112.823 151.737 111.842C150.713 110.86 149.262 110.37 147.385 110.37C145.892 110.37 144.548 110.732 143.353 111.458C142.18 112.183 141.252 113.196 140.569 114.498C139.886 115.778 139.545 117.228 139.545 118.85C139.545 120.62 140.068 121.996 141.113 122.978C142.158 123.959 143.62 124.45 145.497 124.45Z" fill="white"/>
<path d="M174.649 113.154L171.353 129.762H170.297L171.065 125.986C170.254 127.202 169.209 128.151 167.929 128.834C166.649 129.516 165.22 129.858 163.641 129.858C161.465 129.858 159.726 129.25 158.425 128.034C157.145 126.796 156.505 125.132 156.505 123.042C156.505 121.143 156.91 119.436 157.721 117.922C158.532 116.407 159.652 115.212 161.081 114.338C162.51 113.463 164.121 113.026 165.913 113.026C167.769 113.026 169.273 113.452 170.425 114.306C171.577 115.159 172.313 116.364 172.633 117.922L173.593 113.154H174.649ZM163.833 128.898C165.412 128.898 166.82 128.514 168.057 127.746C169.316 126.978 170.297 125.911 171.001 124.546C171.726 123.159 172.089 121.612 172.089 119.906C172.089 118.028 171.534 116.578 170.425 115.554C169.337 114.53 167.812 114.018 165.849 114.018C164.27 114.018 162.852 114.412 161.593 115.202C160.334 115.97 159.342 117.036 158.617 118.402C157.913 119.767 157.561 121.303 157.561 123.01C157.561 124.887 158.105 126.338 159.193 127.362C160.302 128.386 161.849 128.898 163.833 128.898Z" fill="white"/>
<rect x="0.649048" y="263.762" width="192" height="32" fill="#F88E14"/>
<path d="M79.429 273.962L73.451 282.096C72.9937 282.721 72.5037 283.188 71.981 283.496C71.4677 283.804 70.945 283.958 70.413 283.958C69.9837 283.958 69.5404 283.855 69.083 283.65L69.587 282.558C69.867 282.67 70.147 282.726 70.427 282.726C71.0897 282.726 71.6917 282.385 72.233 281.704L72.569 281.312L70.105 273.962H71.561L73.521 280.15L78.015 273.962H79.429ZM89.323 273.962L87.363 283.762H85.963L86.831 279.422H81.203L80.335 283.762H78.935L80.895 273.962H82.295L81.455 278.162H87.083L87.923 273.962H89.323ZM92.3794 273.962H93.7654L92.2394 281.522L99.5474 273.962H100.849L98.8894 283.762H97.5174L99.0434 276.216L91.7214 283.762H90.4194L92.3794 273.962ZM109.477 278.708C109.915 278.857 110.256 279.1 110.499 279.436C110.741 279.772 110.863 280.192 110.863 280.696C110.863 281.685 110.48 282.446 109.715 282.978C108.959 283.5 107.923 283.762 106.607 283.762H101.889L103.849 273.962H108.189C109.178 273.962 109.939 274.148 110.471 274.522C111.012 274.886 111.283 275.418 111.283 276.118C111.283 276.752 111.115 277.294 110.779 277.742C110.452 278.18 110.018 278.502 109.477 278.708ZM105.011 275.096L104.381 278.232H107.251C108.044 278.232 108.669 278.073 109.127 277.756C109.593 277.429 109.827 276.958 109.827 276.342C109.827 275.922 109.659 275.609 109.323 275.404C108.996 275.198 108.52 275.096 107.895 275.096H105.011ZM106.705 282.628C107.591 282.628 108.273 282.464 108.749 282.138C109.234 281.802 109.477 281.326 109.477 280.71C109.477 280.224 109.304 279.879 108.959 279.674C108.623 279.468 108.114 279.366 107.433 279.366H104.157L103.513 282.628H106.705ZM115.648 275.18L115.046 278.19H119.974L119.736 279.38H114.808L114.178 282.544H119.904L119.666 283.762H112.54L114.5 273.962H121.416L121.178 275.18H115.648ZM127.409 273.962C128.548 273.962 129.43 274.214 130.055 274.718C130.69 275.212 131.007 275.917 131.007 276.832C131.007 277.662 130.82 278.376 130.447 278.974C130.083 279.562 129.556 280.014 128.865 280.332C128.174 280.64 127.358 280.794 126.415 280.794H123.797L123.209 283.762H121.809L123.769 273.962H127.409ZM126.443 279.576C127.451 279.576 128.23 279.352 128.781 278.904C129.332 278.456 129.607 277.807 129.607 276.958C129.607 276.379 129.406 275.94 129.005 275.642C128.604 275.334 128.03 275.18 127.283 275.18H124.931L124.049 279.576H126.443ZM136.785 283.874C135.814 283.874 134.979 283.701 134.279 283.356C133.579 283.01 133.042 282.53 132.669 281.914C132.296 281.288 132.109 280.565 132.109 279.744C132.109 278.652 132.356 277.658 132.851 276.762C133.346 275.866 134.046 275.156 134.951 274.634C135.866 274.111 136.92 273.85 138.115 273.85C138.927 273.85 139.646 273.985 140.271 274.256C140.896 274.517 141.377 274.89 141.713 275.376L140.705 276.244C140.117 275.478 139.221 275.096 138.017 275.096C137.112 275.096 136.318 275.301 135.637 275.712C134.956 276.122 134.428 276.678 134.055 277.378C133.691 278.068 133.509 278.829 133.509 279.66C133.509 280.565 133.798 281.288 134.377 281.83C134.965 282.362 135.8 282.628 136.883 282.628C138.087 282.628 139.076 282.24 139.851 281.466L140.663 282.39C140.215 282.875 139.655 283.244 138.983 283.496C138.32 283.748 137.588 283.874 136.785 283.874ZM148.947 281.312H143.711L142.157 283.762H140.645L147.057 273.962H148.443L150.921 283.762H149.535L148.947 281.312ZM148.667 280.192L147.505 275.362L144.425 280.192H148.667ZM162.622 273.962L160.662 283.762H159.29L161.012 275.18H156.672L155.986 278.05C155.64 279.524 155.295 280.682 154.95 281.522C154.604 282.352 154.217 282.954 153.788 283.328C153.358 283.692 152.831 283.874 152.206 283.874C151.916 283.874 151.618 283.836 151.31 283.762L151.66 282.516C151.781 282.553 151.916 282.572 152.066 282.572C152.458 282.572 152.803 282.427 153.102 282.138C153.41 281.848 153.69 281.382 153.942 280.738C154.203 280.084 154.464 279.202 154.726 278.092L155.72 273.962H162.622ZM166.822 275.18L166.22 278.19H171.148L170.91 279.38H165.982L165.352 282.544H171.078L170.84 283.762H163.714L165.674 273.962H172.59L172.352 275.18H166.822ZM183.413 273.962L181.453 283.762H180.053L180.921 279.422H175.293L174.425 283.762H173.025L174.985 273.962H176.385L175.545 278.162H181.173L182.013 273.962H183.413Z" fill="white"/>
<path d="M28.149 245.762L31.649 238.762L33.649 245.762L37.649 240.262L41.149 247.262L48.149 244.262V251.262H59.149L53.649 257.762L68.649 264.762L56.649 267.762L60.649 275.262L52.649 276.762L56.649 282.262H49.649L48.149 289.762L41.149 286.762L37.649 292.262L33.649 284.762L26.649 289.762V284.762L18.149 289.762L21.649 279.262L5.64905 280.762L11.149 276.762L5.64905 272.262L11.149 269.762L8.64905 257.762H15.149V251.262H18.149L16.649 243.262L21.649 245.762L24.649 243.262L28.149 245.762Z" fill="white" stroke="#F88E14"/>
<path d="M19.3637 262.992L18.1094 274.345L15.5273 274.571L16.5487 265.327L14.3172 265.522L14.5501 263.414L19.3637 262.992ZM25.0692 273.928C23.826 274.037 22.8105 273.751 22.0228 273.07C21.2341 272.379 20.7821 271.375 20.6667 270.057C20.5495 268.718 20.6864 267.47 21.0775 266.311C21.4792 265.152 22.0926 264.209 22.9178 263.484C23.7421 262.748 24.7174 262.33 25.8437 262.232C27.087 262.123 28.1029 262.414 28.8916 263.105C29.6793 263.786 30.1308 264.785 30.2462 266.102C30.3635 267.441 30.2212 268.69 29.8195 269.85C29.4285 271.009 28.8208 271.956 27.9965 272.692C27.1713 273.417 26.1956 273.829 25.0692 273.928ZM25.117 271.723C25.7334 271.669 26.2414 271.357 26.6412 270.787C27.0515 270.216 27.3392 269.526 27.5041 268.72C27.6681 267.902 27.718 267.127 27.6537 266.394C27.5914 265.682 27.3966 265.169 27.0693 264.855C26.7516 264.529 26.3272 264.39 25.7959 264.436C25.1796 264.49 24.6662 264.803 24.2558 265.374C23.8561 265.945 23.5742 266.639 23.4102 267.456C23.2453 268.263 23.195 269.033 23.2592 269.766C23.3215 270.478 23.5115 270.997 23.8291 271.322C24.1564 271.636 24.5857 271.77 25.117 271.723ZM35.8716 272.982C34.6284 273.091 33.6129 272.805 32.8252 272.124C32.0365 271.433 31.5845 270.429 31.4691 269.111C31.3519 267.772 31.4888 266.524 31.8799 265.365C32.2816 264.206 32.895 263.263 33.7202 262.538C34.5445 261.802 35.5198 261.384 36.6461 261.286C37.8894 261.177 38.9053 261.468 39.694 262.159C40.4817 262.84 40.9332 263.839 41.0486 265.156C41.1659 266.495 41.0236 267.744 40.6219 268.904C40.2309 270.062 39.6232 271.01 38.7989 271.746C37.9737 272.471 36.998 272.883 35.8716 272.982ZM35.9195 270.777C36.5358 270.723 37.0438 270.411 37.4436 269.841C37.8539 269.269 38.1416 268.58 38.3065 267.774C38.4705 266.956 38.5204 266.181 38.4561 265.448C38.3938 264.736 38.199 264.223 37.8717 263.909C37.554 263.583 37.1296 263.444 36.5983 263.49C35.982 263.544 35.4686 263.857 35.0582 264.428C34.6585 264.999 34.3766 265.693 34.2126 266.51C34.0477 267.317 33.9974 268.087 34.0616 268.82C34.1239 269.532 34.3139 270.051 34.6315 270.376C34.9588 270.69 35.3882 270.824 35.9195 270.777ZM45.0442 266.814C44.311 266.878 43.7017 266.707 43.2164 266.3C42.7416 265.891 42.4698 265.294 42.4009 264.508C42.3423 263.838 42.4163 263.216 42.623 262.641C42.8296 262.067 43.158 261.599 43.6083 261.238C44.0682 260.866 44.6223 260.651 45.2705 260.595C46.0037 260.53 46.6076 260.702 47.0824 261.111C47.5678 261.518 47.8449 262.115 47.9138 262.901C47.9733 263.581 47.8998 264.208 47.6931 264.783C47.4856 265.348 47.1518 265.816 46.6919 266.188C46.2416 266.549 45.6924 266.757 45.0442 266.814ZM52.0238 260.132L54.0321 259.956L45.2865 271.965L43.2623 272.142L52.0238 260.132ZM45.0732 265.495C45.5408 265.454 45.8767 265.194 46.0811 264.716C46.2855 264.237 46.3625 263.711 46.3123 263.137C46.2741 262.702 46.1607 262.385 45.9721 262.188C45.7826 261.979 45.539 261.888 45.2415 261.914C44.7739 261.955 44.438 262.215 44.2336 262.693C44.0292 263.171 43.9522 263.698 44.0024 264.271C44.0406 264.707 44.1544 265.029 44.344 265.237C44.5326 265.435 44.7757 265.521 45.0732 265.495ZM52.0399 271.502C51.296 271.567 50.6868 271.395 50.212 270.987C49.7373 270.579 49.4654 269.982 49.3966 269.195C49.338 268.526 49.412 267.904 49.6186 267.329C49.8252 266.754 50.1537 266.286 50.6039 265.926C51.0648 265.564 51.614 265.355 52.2516 265.3C52.9954 265.234 53.6047 265.406 54.0794 265.814C54.5648 266.221 54.8419 266.818 54.9108 267.604C54.9703 268.284 54.8968 268.912 54.6902 269.487C54.4826 270.051 54.1484 270.514 53.6875 270.876C53.2373 271.236 52.6881 271.445 52.0399 271.502ZM52.0702 270.198C52.5272 270.158 52.8578 269.899 53.0622 269.421C53.2763 268.931 53.3582 268.399 53.3079 267.825C53.2698 267.389 53.1511 267.073 52.9518 266.876C52.7623 266.668 52.524 266.577 52.2371 266.602C51.7696 266.643 51.4288 266.908 51.2147 267.398C51.0103 267.876 50.9333 268.402 50.9835 268.976C51.0217 269.412 51.1355 269.734 51.3251 269.942C51.5243 270.139 51.7727 270.224 52.0702 270.198Z" fill="#F88E14"/>
<path d="M185.137 134.826H178.385L175.217 150.762H174.577L177.745 134.826H171.057L171.185 134.218H185.265L185.137 134.826Z" fill="white"/>
</svg>
